STARTFONT 2.1
FONT -Adobe-Utopia-Bold-R-Normal--19-140-100-100-P-108-ISO10646-1
SIZE 14 100 100
FONTBOUNDINGBOX 27 31 -3 -8
COMMENT $Xorg: $
COMMENT ISO10646-1 extension by Markus Kuhn <mkuhn@acm.org>, 2001-03-20
STARTPROPERTIES 28
FOUNDRY "Adobe"
FAMILY_NAME "Utopia"
WEIGHT_NAME "Bold"
SLANT "R"
SETWIDTH_NAME "Normal"
ADD_STYLE_NAME ""
PIXEL_SIZE 19
POINT_SIZE 140
RESOLUTION_X 100
RESOLUTION_Y 100
SPACING "P"
AVERAGE_WIDTH 108
CHARSET_REGISTRY "ISO10646"
CHARSET_ENCODING "1"
CAP_HEIGHT 13
X_HEIGHT 10
RELATIVE_SETWIDTH 50
RELATIVE_WEIGHT 70
WEIGHT 218
FACE_NAME "Utopia Bold"
COPYRIGHT "Copyright (c) 1989, 1991 Adobe Systems Incorporated.  All Rights Reserved."
NOTICE "Utopia is a registered trademark of Adobe Systems Incorporated."
DESTINATION 0
FONT_ASCENT 18
FONT_DESCENT 5
DEFAULT_CHAR 0
_ADOBE_PSFONT "Utopia-Bold"
_DEC_DEVICE_FONTNAMES "PS=Utopia-Bold"
ENDPROPERTIES
CHARS 756
STARTCHAR char0
ENCODING 0
SWIDTH 807 0
DWIDTH 16 0
BBX 13 13 1 0
BITMAP
AAA8
0000
8008
0000
8008
0000
8008
0000
8008
0000
8008
0000
AAA8
ENDCHAR
STARTCHAR space
ENCODING 32
SWIDTH 210 0
DWIDTH 4 0
BBX 0 0 0 0
BITMAP
ENDCHAR
STARTCHAR exclam
ENCODING 33
SWIDTH 278 0
DWIDTH 5 0
BBX 4 14 1 0
BITMAP
60
F0
F0
60
60
60
60
60
60
00
40
F0
F0
60
ENDCHAR
STARTCHAR quotedbl
ENCODING 34
SWIDTH 473 0
DWIDTH 9 0
BBX 6 6 2 8
BITMAP
CC
CC
CC
CC
48
48
ENDCHAR
STARTCHAR numbersign
ENCODING 35
SWIDTH 560 0
DWIDTH 11 0
BBX 10 13 0 0
BITMAP
0C80
0980
0980
1900
7FC0
1300
1200
3200
FF80
2600
6400
6400
4C00
ENDCHAR
STARTCHAR dollar
ENCODING 36
SWIDTH 560 0
DWIDTH 11 0
BBX 9 16 1 -2
BITMAP
0800
3C00
6B00
CB00
C800
F800
7C00
3F00
0F00
0B80
4B80
CB00
EB00
3E00
0800
0800
ENDCHAR
STARTCHAR percent
ENCODING 37
SWIDTH 887 0
DWIDTH 17 0
BBX 15 14 1 -1
BITMAP
3818
47F0
C620
C660
C640
44C0
38BC
0124
0366
0266
0666
0424
083C
0800
ENDCHAR
STARTCHAR ampersand
ENCODING 38
SWIDTH 748 0
DWIDTH 15 0
BBX 13 13 1 0
BITMAP
0C00
1300
3300
3200
3A38
1C38
1E30
6F30
E7E0
E3C0
E1E0
70F8
3F18
ENDCHAR
STARTCHAR quotesingle
ENCODING 39
SWIDTH 252 0
DWIDTH 5 0
BBX 3 6 1 8
BITMAP
E0
E0
E0
40
40
40
ENDCHAR
STARTCHAR parenleft
ENCODING 40
SWIDTH 365 0
DWIDTH 7 0
BBX 5 17 2 -3
BITMAP
18
30
60
60
40
C0
C0
C0
C0
C0
C0
C0
40
60
60
30
18
ENDCHAR
STARTCHAR parenright
ENCODING 41
SWIDTH 365 0
DWIDTH 7 0
BBX 5 17 0 -3
BITMAP
C0
60
30
30
10
18
18
18
18
18
18
18
10
30
30
60
C0
ENDCHAR
STARTCHAR asterisk
ENCODING 42
SWIDTH 442 0
DWIDTH 9 0
BBX 7 8 1 6
BITMAP
10
92
D6
38
7C
D6
92
10
ENDCHAR
STARTCHAR plus
ENCODING 43
SWIDTH 600 0
DWIDTH 12 0
BBX 10 10 1 0
BITMAP
0C00
0C00
0C00
0C00
FFC0
FFC0
0C00
0C00
0C00
0C00
ENDCHAR
STARTCHAR comma
ENCODING 44
SWIDTH 280 0
DWIDTH 5 0
BBX 3 7 1 -3
BITMAP
40
E0
60
60
40
C0
80
ENDCHAR
STARTCHAR hyphen
ENCODING 45
SWIDTH 392 0
DWIDTH 8 0
BBX 5 2 1 4
BITMAP
F8
F8
ENDCHAR
STARTCHAR period
ENCODING 46
SWIDTH 280 0
DWIDTH 5 0
BBX 4 4 1 0
BITMAP
60
F0
F0
60
ENDCHAR
STARTCHAR slash
ENCODING 47
SWIDTH 378 0
DWIDTH 7 0
BBX 6 14 1 0
BITMAP
0C
0C
18
18
18
30
30
30
30
60
60
60
C0
C0
ENDCHAR
STARTCHAR zero
ENCODING 48
SWIDTH 560 0
DWIDTH 11 0
BBX 9 13 1 0
BITMAP
1C00
3600
6300
E380
E380
E380
E380
E380
E380
E380
6300
3600
1C00
ENDCHAR
STARTCHAR one
ENCODING 49
SWIDTH 560 0
DWIDTH 11 0
BBX 7 13 2 0
BITMAP
18
F8
38
38
38
38
38
38
38
38
38
38
FE
ENDCHAR
STARTCHAR two
ENCODING 50
SWIDTH 560 0
DWIDTH 11 0
BBX 11 13 0 0
BITMAP
1F00
3980
71C0
71C0
01C0
01C0
0380
0600
0C00
3800
7060
FFC0
FFC0
ENDCHAR
STARTCHAR three
ENCODING 51
SWIDTH 560 0
DWIDTH 11 0
BBX 9 13 1 0
BITMAP
1E00
7300
E380
6380
0380
0300
3C00
0300
0380
4380
C380
E700
3E00
ENDCHAR
STARTCHAR four
ENCODING 52
SWIDTH 560 0
DWIDTH 11 0
BBX 10 13 1 0
BITMAP
0700
0700
0F00
1F00
1700
2700
6700
4700
FFC0
0700
0700
0700
1F80
ENDCHAR
STARTCHAR five
ENCODING 53
SWIDTH 560 0
DWIDTH 11 0
BBX 9 13 1 0
BITMAP
7F80
7F00
4000
4000
4000
7E00
4700
0380
0380
4380
E380
6700
3E00
ENDCHAR
STARTCHAR six
ENCODING 54
SWIDTH 560 0
DWIDTH 11 0
BBX 9 13 1 0
BITMAP
0E00
3380
6180
6100
EE00
FF00
E380
E380
E380
E380
6300
3700
1E00
ENDCHAR
STARTCHAR seven
ENCODING 55
SWIDTH 560 0
DWIDTH 11 0
BBX 9 13 1 0
BITMAP
FF80
FF80
8100
8300
0200
0600
0C00
0C00
1800
1800
3800
3800
3800
ENDCHAR
STARTCHAR eight
ENCODING 56
SWIDTH 560 0
DWIDTH 11 0
BBX 9 13 1 0
BITMAP
3E00
7300
E380
E380
E380
7200
7F00
6300
E380
E380
E380
6300
3E00
ENDCHAR
STARTCHAR nine
ENCODING 57
SWIDTH 560 0
DWIDTH 11 0
BBX 9 13 1 0
BITMAP
3C00
7700
6300
E380
E380
E380
7380
3F80
0380
4380
E300
6700
3C00
ENDCHAR
STARTCHAR colon
ENCODING 58
SWIDTH 280 0
DWIDTH 5 0
BBX 4 10 1 0
BITMAP
60
F0
F0
60
00
00
60
F0
F0
60
ENDCHAR
STARTCHAR semicolon
ENCODING 59
SWIDTH 280 0
DWIDTH 5 0
BBX 4 13 1 -3
BITMAP
60
F0
70
60
00
00
40
E0
60
60
40
40
80
ENDCHAR
STARTCHAR less
ENCODING 60
SWIDTH 600 0
DWIDTH 12 0
BBX 9 10 1 0
BITMAP
0080
0380
0F80
3C00
F000
C000
7800
1E00
0780
0080
ENDCHAR
STARTCHAR equal
ENCODING 61
SWIDTH 600 0
DWIDTH 12 0
BBX 9 6 1 2
BITMAP
FF80
FF80
0000
0000
FF80
FF80
ENDCHAR
STARTCHAR greater
ENCODING 62
SWIDTH 600 0
DWIDTH 12 0
BBX 9 10 1 0
BITMAP
8000
E000
F800
1E00
0780
0180
0F00
3C00
F000
8000
ENDCHAR
STARTCHAR question
ENCODING 63
SWIDTH 456 0
DWIDTH 9 0
BBX 8 14 0 0
BITMAP
3C
77
E7
67
0E
1C
38
38
1E
00
10
38
3C
18
ENDCHAR
STARTCHAR at
ENCODING 64
SWIDTH 833 0
DWIDTH 16 0
BBX 14 14 1 0
BITMAP
03E0
0C30
3808
31FC
6364
4664
C6E4
CCC4
CDC8
CDC8
6EF0
6000
3820
0FC0
ENDCHAR
STARTCHAR A
ENCODING 65
SWIDTH 644 0
DWIDTH 13 0
BBX 13 14 0 0
BITMAP
0700
0700
0780
0B80
0B80
0B80
19C0
11C0
1FC0
30E0
20E0
20E0
60F0
F1F8
ENDCHAR
STARTCHAR B
ENCODING 66
SWIDTH 683 0
DWIDTH 13 0
BBX 11 14 1 0
BITMAP
FF80
71C0
70E0
70E0
70E0
71C0
7F00
7180
70C0
70E0
70E0
70E0
71C0
FF80
ENDCHAR
STARTCHAR C
ENCODING 67
SWIDTH 689 0
DWIDTH 13 0
BBX 12 14 1 0
BITMAP
0FE0
3870
7030
7010
E000
E000
E000
E000
E000
E010
7010
7030
3870
0FC0
ENDCHAR
STARTCHAR D
ENCODING 68
SWIDTH 777 0
DWIDTH 15 0
BBX 13 14 1 0
BITMAP
FFC0
70E0
7070
7070
7038
7038
7038
7038
7038
7030
7070
7070
70E0
FF80
ENDCHAR
STARTCHAR E
ENCODING 69
SWIDTH 629 0
DWIDTH 12 0
BBX 11 14 1 0
BITMAP
FFC0
70C0
7040
7040
7080
7080
7F80
7080
7080
7000
7060
7040
70C0
FFC0
ENDCHAR
STARTCHAR F
ENCODING 70
SWIDTH 593 0
DWIDTH 12 0
BBX 10 14 1 0
BITMAP
FFC0
70C0
7040
7040
7000
7080
7080
7F80
7080
7080
7000
7000
7000
FC00
ENDCHAR
STARTCHAR G
ENCODING 71
SWIDTH 726 0
DWIDTH 14 0
BBX 13 14 1 0
BITMAP
07E0
3870
7030
7010
E000
E000
E000
E000
E1F8
E070
6070
7070
3870
0FC0
ENDCHAR
STARTCHAR H
ENCODING 72
SWIDTH 807 0
DWIDTH 16 0
BBX 13 14 1 0
BITMAP
F8F8
7070
7070
7070
7070
7070
7FF0
7070
7070
7070
7070
7070
7070
F8F8
ENDCHAR
STARTCHAR I
ENCODING 73
SWIDTH 384 0
DWIDTH 7 0
BBX 5 14 1 0
BITMAP
F8
70
70
70
70
70
70
70
70
70
70
70
70
F8
ENDCHAR
STARTCHAR J
ENCODING 74
SWIDTH 386 0
DWIDTH 8 0
BBX 6 16 0 -2
BITMAP
7C
38
38
38
38
38
38
38
38
38
38
38
38
38
70
C0
ENDCHAR
STARTCHAR K
ENCODING 75
SWIDTH 707 0
DWIDTH 14 0
BBX 13 14 1 0
BITMAP
FCF8
7060
70C0
7180
7300
7600
7F00
7F00
7780
77C0
73C0
71E0
70F0
F838
ENDCHAR
STARTCHAR L
ENCODING 76
SWIDTH 585 0
DWIDTH 11 0
BBX 10 14 1 0
BITMAP
FC00
7000
7000
7000
7000
7000
7000
7000
7000
7000
7040
7040
70C0
FFC0
ENDCHAR
STARTCHAR M
ENCODING 77
SWIDTH 918 0
DWIDTH 18 0
BBX 16 14 1 0
BITMAP
F81F
781E
781E
5C2E
5C2E
5E6E
4E4E
4E4E
4FCE
478E
478E
430E
430E
F33F
ENDCHAR
STARTCHAR N
ENCODING 78
SWIDTH 739 0
DWIDTH 14 0
BBX 12 14 1 0
BITMAP
F0F0
7820
7820
7C20
5E20
4E20
4F20
47A0
43A0
43E0
41E0
40E0
40E0
F060
ENDCHAR
STARTCHAR O
ENCODING 79
SWIDTH 768 0
DWIDTH 15 0
BBX 13 14 1 0
BITMAP
0F80
38E0
7070
6030
E038
E038
E038
E038
E038
E038
6030
7070
38E0
0F80
ENDCHAR
STARTCHAR P
ENCODING 80
SWIDTH 650 0
DWIDTH 13 0
BBX 11 14 1 0
BITMAP
FF80
71C0
70E0
70E0
70E0
70E0
70E0
71C0
7F00
7000
7000
7000
7000
FC00
ENDCHAR
STARTCHAR Q
ENCODING 81
SWIDTH 768 0
DWIDTH 15 0
BBX 13 18 1 -4
BITMAP
0F80
38E0
7070
6030
E038
E038
E038
E038
E038
E038
6030
7070
38E0
1FC0
0780
03C0
01E0
0070
ENDCHAR
STARTCHAR R
ENCODING 82
SWIDTH 684 0
DWIDTH 13 0
BBX 12 14 1 0
BITMAP
FF80
71C0
70E0
70E0
70E0
70E0
71C0
7F00
73C0
71C0
71C0
70E0
70E0
F870
ENDCHAR
STARTCHAR S
ENCODING 83
SWIDTH 561 0
DWIDTH 11 0
BBX 9 14 1 0
BITMAP
1F00
6180
E180
E080
F000
F800
7E00
1F00
0F80
8380
8380
C380
E300
3E00
ENDCHAR
STARTCHAR T
ENCODING 84
SWIDTH 624 0
DWIDTH 12 0
BBX 11 14 0 0
BITMAP
FFE0
CE60
8E20
8E20
0E00
0E00
0E00
0E00
0E00
0E00
0E00
0E00
0E00
3F80
ENDCHAR
STARTCHAR U
ENCODING 85
SWIDTH 786 0
DWIDTH 15 0
BBX 13 14 1 0
BITMAP
F8F8
7070
7070
7070
7070
7070
7070
7070
7070
7070
7070
7070
38E0
0F80
ENDCHAR
STARTCHAR V
ENCODING 86
SWIDTH 645 0
DWIDTH 13 0
BBX 14 14 -1 0
BITMAP
FC7C
7818
3830
3830
1C20
1C20
1C60
0E40
0E40
0EC0
0F80
0780
0780
0700
ENDCHAR
STARTCHAR W
ENCODING 87
SWIDTH 933 0
DWIDTH 18 0
BBX 19 14 0 0
BITMAP
F803E0
7060C0
70E080
30F080
38F080
38F180
39B900
193900
1D3900
1D3A00
1D1E00
0E1E00
0E1E00
0E0C00
ENDCHAR
STARTCHAR X
ENCODING 88
SWIDTH 634 0
DWIDTH 12 0
BBX 14 14 -1 0
BITMAP
7E78
3C30
1C60
0E40
0F80
0780
0380
0380
07C0
05E0
0CE0
18F0
3878
FCFC
ENDCHAR
STARTCHAR Y
ENCODING 89
SWIDTH 617 0
DWIDTH 12 0
BBX 13 14 0 0
BITMAP
FCF8
7830
3820
1C60
1C40
0E80
0E80
0700
0700
0700
0700
0700
0700
1FC0
ENDCHAR
STARTCHAR Z
ENCODING 90
SWIDTH 614 0
DWIDTH 12 0
BBX 12 14 0 0
BITMAP
7FF0
60E0
41E0
43C0
0380
0780
0F00
0F00
1E00
3C00
3C10
7830
F070
FFF0
ENDCHAR
STARTCHAR bracketleft
ENCODING 91
SWIDTH 335 0
DWIDTH 7 0
BBX 4 17 2 -3
BITMAP
F0
C0
C0
C0
C0
C0
C0
C0
C0
C0
C0
C0
C0
C0
C0
C0
F0
ENDCHAR
STARTCHAR backslash
ENCODING 92
SWIDTH 379 0
DWIDTH 7 0
BBX 6 14 1 0
BITMAP
C0
C0
60
60
60
30
30
30
30
18
18
18
0C
0C
ENDCHAR
STARTCHAR bracketright
ENCODING 93
SWIDTH 335 0
DWIDTH 7 0
BBX 4 17 0 -3
BITMAP
F0
30
30
30
30
30
30
30
30
30
30
30
30
30
30
30
F0
ENDCHAR
STARTCHAR asciicircum
ENCODING 94
SWIDTH 600 0
DWIDTH 12 0
BBX 9 9 1 4
BITMAP
1C00
1C00
1400
3600
3200
6300
6300
4100
C180
ENDCHAR
STARTCHAR underscore
ENCODING 95
SWIDTH 500 0
DWIDTH 10 0
BBX 10 1 0 -2
BITMAP
FFC0
ENDCHAR
STARTCHAR grave
ENCODING 96
SWIDTH 430 0
DWIDTH 8 0
BBX 5 4 1 10
BITMAP
C0
E0
30
08
ENDCHAR
STARTCHAR a
ENCODING 97
SWIDTH 544 0
DWIDTH 11 0
BBX 10 10 1 0
BITMAP
1E00
6700
E700
4700
3F00
6700
E700
E700
7FC0
3300
ENDCHAR
STARTCHAR b
ENCODING 98
SWIDTH 605 0
DWIDTH 12 0
BBX 11 14 0 0
BITMAP
3000
F000
7000
7000
7780
79C0
70E0
70E0
70E0
70E0
70E0
70C0
71C0
4F00
ENDCHAR
STARTCHAR c
ENCODING 99
SWIDTH 494 0
DWIDTH 10 0
BBX 9 10 1 0
BITMAP
1E00
7700
6300
E200
E000
E000
E000
E080
7100
3E00
ENDCHAR
STARTCHAR d
ENCODING 100
SWIDTH 605 0
DWIDTH 12 0
BBX 10 14 1 0
BITMAP
0180
0780
0380
0380
1F80
7380
6380
E380
E380
E380
E380
E380
7380
3FC0
ENDCHAR
STARTCHAR e
ENCODING 101
SWIDTH 519 0
DWIDTH 10 0
BBX 9 10 1 0
BITMAP
3E00
7300
6380
E380
FF80
E000
E000
E080
7100
3E00
ENDCHAR
STARTCHAR f
ENCODING 102
SWIDTH 342 0
DWIDTH 7 0
BBX 7 14 1 0
BITMAP
1C
36
72
70
FC
70
70
70
70
70
70
70
70
F8
ENDCHAR
STARTCHAR g
ENCODING 103
SWIDTH 533 0
DWIDTH 10 0
BBX 10 14 0 -4
BITMAP
1EC0
33C0
7380
7380
7380
3300
3E00
6000
7F80
3FC0
60C0
E0C0
7180
1F00
ENDCHAR
STARTCHAR h
ENCODING 104
SWIDTH 631 0
DWIDTH 12 0
BBX 11 14 1 0
BITMAP
3000
F000
7000
7000
7780
79C0
71C0
71C0
71C0
71C0
71C0
71C0
71C0
FBE0
ENDCHAR
STARTCHAR i
ENCODING 105
SWIDTH 316 0
DWIDTH 6 0
BBX 5 14 1 0
BITMAP
60
70
70
00
30
F0
70
70
70
70
70
70
70
F8
ENDCHAR
STARTCHAR j
ENCODING 106
SWIDTH 316 0
DWIDTH 6 0
BBX 5 19 0 -4
BITMAP
30
38
38
10
00
18
78
38
38
38
38
38
38
38
38
38
38
70
C0
ENDCHAR
STARTCHAR k
ENCODING 107
SWIDTH 582 0
DWIDTH 11 0
BBX 11 14 1 0
BITMAP
3000
F000
7000
7000
71E0
7380
7600
7C00
7E00
7F00
7700
7380
73C0
F9E0
ENDCHAR
STARTCHAR l
ENCODING 108
SWIDTH 309 0
DWIDTH 6 0
BBX 5 14 1 0
BITMAP
30
F0
70
70
70
70
70
70
70
70
70
70
70
F8
ENDCHAR
STARTCHAR m
ENCODING 109
SWIDTH 948 0
DWIDTH 18 0
BBX 17 10 1 0
BITMAP
379E00
F9E700
71C700
71C700
71C700
71C700
71C700
71C700
71C700
FBEF80
ENDCHAR
STARTCHAR n
ENCODING 110
SWIDTH 638 0
DWIDTH 12 0
BBX 11 10 1 0
BITMAP
3780
F9C0
71C0
71C0
71C0
71C0
71C0
71C0
71C0
FBE0
ENDCHAR
STARTCHAR o
ENCODING 111
SWIDTH 585 0
DWIDTH 11 0
BBX 10 10 1 0
BITMAP
1E00
7380
6180
E1C0
E1C0
E1C0
E1C0
6180
7380
1E00
ENDCHAR
STARTCHAR p
ENCODING 112
SWIDTH 615 0
DWIDTH 12 0
BBX 10 14 1 -4
BITMAP
6F00
F380
71C0
71C0
71C0
71C0
71C0
7180
7380
7E00
7000
7000
7000
FC00
ENDCHAR
STARTCHAR q
ENCODING 113
SWIDTH 597 0
DWIDTH 12 0
BBX 10 14 1 -4
BITMAP
1F80
7380
6380
E380
E380
E380
E380
E380
7380
3F80
0380
0380
0380
07C0
ENDCHAR
STARTCHAR r
ENCODING 114
SWIDTH 440 0
DWIDTH 9 0
BBX 8 10 1 0
BITMAP
36
FF
76
70
70
70
70
70
70
FC
ENDCHAR
STARTCHAR s
ENCODING 115
SWIDTH 446 0
DWIDTH 9 0
BBX 8 10 0 0
BITMAP
1E
33
71
78
3C
1F
8F
47
46
3C
ENDCHAR
STARTCHAR t
ENCODING 116
SWIDTH 370 0
DWIDTH 7 0
BBX 7 12 1 0
BITMAP
30
30
FC
70
70
70
70
70
70
70
70
3E
ENDCHAR
STARTCHAR u
ENCODING 117
SWIDTH 629 0
DWIDTH 12 0
BBX 11 10 1 0
BITMAP
30C0
F3C0
71C0
71C0
71C0
71C0
71C0
71C0
7FC0
19E0
ENDCHAR
STARTCHAR v
ENCODING 118
SWIDTH 520 0
DWIDTH 10 0
BBX 11 10 0 0
BITMAP
F9E0
70C0
3880
3980
3900
1D00
1F00
1E00
0E00
0E00
ENDCHAR
STARTCHAR w
ENCODING 119
SWIDTH 774 0
DWIDTH 15 0
BBX 16 10 0 0
BITMAP
F9CF
71C6
39C4
39E4
3BEC
1AE8
1E68
1E78
1C70
0C30
ENDCHAR
STARTCHAR x
ENCODING 120
SWIDTH 522 0
DWIDTH 10 0
BBX 10 10 0 0
BITMAP
FBC0
7100
3A00
1E00
1C00
0E00
1600
3700
6380
F7C0
ENDCHAR
STARTCHAR y
ENCODING 121
SWIDTH 524 0
DWIDTH 10 0
BBX 11 14 0 -4
BITMAP
F9E0
70C0
3080
3980
3900
1D00
1F00
1E00
0E00
0C00
0C00
2800
7800
3000
ENDCHAR
STARTCHAR z
ENCODING 122
SWIDTH 483 0
DWIDTH 9 0
BBX 10 10 0 0
BITMAP
7FC0
6380
4780
0F00
1E00
1C00
3C40
78C0
70C0
FF80
ENDCHAR
STARTCHAR braceleft
ENCODING 123
SWIDTH 365 0
DWIDTH 7 0
BBX 5 17 1 -3
BITMAP
18
30
30
30
30
30
30
20
E0
30
30
30
30
30
30
30
18
ENDCHAR
STARTCHAR bar
ENCODING 124
SWIDTH 284 0
DWIDTH 6 0
BBX 2 14 2 0
BITMAP
C0
C0
C0
C0
C0
C0
C0
C0
C0
C0
C0
C0
C0
C0
ENDCHAR
STARTCHAR braceright
ENCODING 125
SWIDTH 365 0
DWIDTH 7 0
BBX 5 17 1 -3
BITMAP
C0
60
60
60
60
60
60
60
38
20
60
60
60
60
60
60
C0
ENDCHAR
STARTCHAR asciitilde
ENCODING 126
SWIDTH 600 0
DWIDTH 12 0
BBX 10 4 1 3
BITMAP
1040
7F80
4F80
8000
ENDCHAR
STARTCHAR space
ENCODING 160
SWIDTH 210 0
DWIDTH 4 0
BBX 0 0 0 0
BITMAP
ENDCHAR
STARTCHAR exclamdown
ENCODING 161
SWIDTH 278 0
DWIDTH 5 0
BBX 4 14 1 -4
BITMAP
60
F0
F0
40
00
60
60
60
60
60
60
F0
F0
60
ENDCHAR
STARTCHAR cent
ENCODING 162
SWIDTH 560 0
DWIDTH 11 0
BBX 10 13 1 0
BITMAP
0400
1F00
7580
65C0
E400
E400
E400
E400
6440
7480
1F00
0400
0400
ENDCHAR
STARTCHAR sterling
ENCODING 163
SWIDTH 560 0
DWIDTH 11 0
BBX 10 13 0 0
BITMAP
1F00
3380
7180
7000
7800
3800
FF00
1C00
1C00
1800
7840
FFC0
FF80
ENDCHAR
STARTCHAR currency
ENCODING 164
SWIDTH 560 0
DWIDTH 11 0
BBX 9 9 1 2
BITMAP
DD80
FF80
6300
C180
C180
C180
6300
FF80
DD80
ENDCHAR
STARTCHAR yen
ENCODING 165
SWIDTH 560 0
DWIDTH 11 0
BBX 11 13 0 0
BITMAP
F9E0
70C0
3880
3900
1F00
7FC0
0E00
0E00
7FC0
0E00
0E00
0E00
1F80
ENDCHAR
STARTCHAR brokenbar
ENCODING 166
SWIDTH 284 0
DWIDTH 6 0
BBX 2 14 2 0
BITMAP
C0
C0
C0
C0
C0
00
00
00
C0
C0
C0
C0
C0
C0
ENDCHAR
STARTCHAR section
ENCODING 167
SWIDTH 566 0
DWIDTH 11 0
BBX 9 16 1 -2
BITMAP
1E00
2700
6200
7000
FC00
9E00
8F00
C380
E180
7880
3C80
0F00
0700
6300
7200
3C00
ENDCHAR
STARTCHAR dieresis
ENCODING 168
SWIDTH 430 0
DWIDTH 8 0
BBX 8 3 0 11
BITMAP
66
E7
66
ENDCHAR
STARTCHAR copyright
ENCODING 169
SWIDTH 800 0
DWIDTH 16 0
BBX 14 14 1 0
BITMAP
0F80
1060
2030
6798
4CC8
D84C
D80C
D80C
D84C
4CC8
6718
2030
1060
0F80
ENDCHAR
STARTCHAR ordfeminine
ENCODING 170
SWIDTH 405 0
DWIDTH 8 0
BBX 7 7 1 5
BITMAP
78
CC
4C
7C
CC
CC
7E
ENDCHAR
STARTCHAR guillemotleft
ENCODING 171
SWIDTH 487 0
DWIDTH 9 0
BBX 8 8 1 1
BITMAP
11
32
66
EE
EE
66
32
11
ENDCHAR
STARTCHAR logicalnot
ENCODING 172
SWIDTH 600 0
DWIDTH 12 0
BBX 9 6 2 2
BITMAP
FF80
FF80
0180
0180
0180
0180
ENDCHAR
STARTCHAR hyphen
ENCODING 173
SWIDTH 392 0
DWIDTH 8 0
BBX 5 2 1 4
BITMAP
F8
F8
ENDCHAR
STARTCHAR registered
ENCODING 174
SWIDTH 800 0
DWIDTH 16 0
BBX 14 14 1 0
BITMAP
0780
1860
3030
7F98
4CC8
CCC8
CCCC
CF0C
CD8C
4CC8
7EF8
2030
1860
0F80
ENDCHAR
STARTCHAR macron
ENCODING 175
SWIDTH 430 0
DWIDTH 8 0
BBX 6 2 1 11
BITMAP
FC
FC
ENDCHAR
STARTCHAR degree
ENCODING 176
SWIDTH 396 0
DWIDTH 8 0
BBX 6 6 1 7
BITMAP
78
CC
84
84
CC
78
ENDCHAR
STARTCHAR plusminus
ENCODING 177
SWIDTH 600 0
DWIDTH 12 0
BBX 10 11 1 0
BITMAP
0C00
0C00
0C00
FFC0
FFC0
0C00
0C00
0C00
0000
FFC0
FFC0
ENDCHAR
STARTCHAR twosuperior
ENCODING 178
SWIDTH 402 0
DWIDTH 8 0
BBX 6 8 1 5
BITMAP
38
6C
CC
1C
38
60
7C
FC
ENDCHAR
STARTCHAR threesuperior
ENCODING 179
SWIDTH 402 0
DWIDTH 8 0
BBX 6 8 1 5
BITMAP
38
EC
0C
78
0C
CC
CC
78
ENDCHAR
STARTCHAR acute
ENCODING 180
SWIDTH 430 0
DWIDTH 8 0
BBX 5 4 2 10
BITMAP
18
38
60
80
ENDCHAR
STARTCHAR mu
ENCODING 181
SWIDTH 629 0
DWIDTH 12 0
BBX 11 14 1 -4
BITMAP
30C0
F3C0
71C0
71C0
71C0
71C0
71C0
71C0
7FC0
69E0
6000
6000
7000
4000
ENDCHAR
STARTCHAR paragraph
ENCODING 182
SWIDTH 552 0
DWIDTH 11 0
BBX 10 16 1 -2
BITMAP
1BC0
7B00
7B00
FB00
FB00
FB00
FB00
7B00
3B00
0300
0300
0300
0300
0300
0300
0F00
ENDCHAR
STARTCHAR periodcentered
ENCODING 183
SWIDTH 280 0
DWIDTH 5 0
BBX 4 4 1 3
BITMAP
60
F0
F0
60
ENDCHAR
STARTCHAR cedilla
ENCODING 184
SWIDTH 430 0
DWIDTH 8 0
BBX 4 6 2 -5
BITMAP
20
40
70
30
30
E0
ENDCHAR
STARTCHAR onesuperior
ENCODING 185
SWIDTH 402 0
DWIDTH 8 0
BBX 4 8 2 5
BITMAP
60
E0
60
60
60
60
60
F0
ENDCHAR
STARTCHAR ordmasculine
ENCODING 186
SWIDTH 427 0
DWIDTH 8 0
BBX 7 7 1 5
BITMAP
38
44
C6
C6
C6
44
38
ENDCHAR
STARTCHAR guillemotright
ENCODING 187
SWIDTH 487 0
DWIDTH 9 0
BBX 8 8 1 1
BITMAP
88
4C
66
77
77
66
4C
88
ENDCHAR
STARTCHAR onequarter
ENCODING 188
SWIDTH 900 0
DWIDTH 17 0
BBX 13 14 2 0
BITMAP
0040
E040
60C0
6080
6180
6100
6330
6270
F670
04B0
0D30
09F8
1830
1078
ENDCHAR
STARTCHAR onehalf
ENCODING 189
SWIDTH 900 0
DWIDTH 17 0
BBX 15 15 1 -1
BITMAP
0020
E030
6060
6040
60C0
6080
611C
6136
F266
020E
041C
0430
083E
087E
1000
ENDCHAR
STARTCHAR threequarters
ENCODING 190
SWIDTH 900 0
DWIDTH 17 0
BBX 15 14 1 0
BITMAP
0010
3810
EC30
0C20
7860
0C40
CCCC
CC9C
799C
012C
024C
02FE
040C
0C1E
ENDCHAR
STARTCHAR questiondown
ENCODING 191
SWIDTH 456 0
DWIDTH 9 0
BBX 8 14 1 -4
BITMAP
30
78
70
20
00
78
1C
1C
38
70
E6
E7
EE
3C
ENDCHAR
STARTCHAR Agrave
ENCODING 192
SWIDTH 644 0
DWIDTH 13 0
BBX 13 18 0 0
BITMAP
0800
1E00
0700
0080
0700
0700
0780
0B80
0B80
0B80
19C0
11C0
1FC0
30E0
20E0
20E0
60F0
F1F8
ENDCHAR
STARTCHAR Aacute
ENCODING 193
SWIDTH 644 0
DWIDTH 13 0
BBX 13 18 0 0
BITMAP
00C0
01C0
0700
0400
0700
0700
0780
0B80
0B80
0B80
19C0
11C0
1FC0
30E0
20E0
20E0
60F0
F1F8
ENDCHAR
STARTCHAR Acircumflex
ENCODING 194
SWIDTH 644 0
DWIDTH 13 0
BBX 13 18 0 0
BITMAP
0300
0780
08C0
1000
0700
0700
0780
0B80
0B80
0B80
19C0
11C0
1FC0
30E0
20E0
20E0
60F0
F1F8
ENDCHAR
STARTCHAR Atilde
ENCODING 195
SWIDTH 644 0
DWIDTH 13 0
BBX 13 17 0 0
BITMAP
0C40
1FC0
2180
0700
0700
0780
0B80
0B80
0B80
19C0
11C0
1FC0
30E0
20E0
20E0
60F0
F1F8
ENDCHAR
STARTCHAR Adieresis
ENCODING 196
SWIDTH 644 0
DWIDTH 13 0
BBX 14 17 -1 0
BITMAP
1CE0
1CE0
1CE0
0380
0780
0780
07C0
0DC0
09C0
09C0
18E0
1FE0
10E0
3070
2070
6078
F8FC
ENDCHAR
STARTCHAR Aring
ENCODING 197
SWIDTH 644 0
DWIDTH 13 0
BBX 14 17 -1 0
BITMAP
0300
0480
0480
0780
0300
0780
0780
07C0
05C0
09C0
09E0
1FE0
10E0
3070
2070
6078
F8FC
ENDCHAR
STARTCHAR AE
ENCODING 198
SWIDTH 879 0
DWIDTH 17 0
BBX 18 14 -1 0
BITMAP
07FF80
01E180
02E080
02E080
04E100
04E100
0FFF00
08E100
10E100
10E000
30E0C0
20E080
60E180
F9FF80
ENDCHAR
STARTCHAR Ccedilla
ENCODING 199
SWIDTH 689 0
DWIDTH 13 0
BBX 12 19 1 -5
BITMAP
0FE0
3870
7030
7010
E000
E000
E000
E000
E000
E010
7010
7030
3C70
0FC0
0200
0780
0180
0180
0700
ENDCHAR
STARTCHAR Egrave
ENCODING 200
SWIDTH 629 0
DWIDTH 12 0
BBX 11 18 1 0
BITMAP
2000
7800
1C00
0200
FFC0
70C0
7040
7040
7080
7080
7F80
7080
7080
7000
7060
7040
70C0
FFC0
ENDCHAR
STARTCHAR Eacute
ENCODING 201
SWIDTH 629 0
DWIDTH 12 0
BBX 11 18 1 0
BITMAP
0180
0780
0E00
1000
FFC0
70C0
7040
7040
7080
7080
7F80
7080
7080
7000
7060
7040
70C0
FFC0
ENDCHAR
STARTCHAR Ecircumflex
ENCODING 202
SWIDTH 629 0
DWIDTH 12 0
BBX 11 18 1 0
BITMAP
0C00
1E00
3180
0000
FFC0
70C0
7040
7040
7080
7080
7F80
7080
7080
7000
7060
7040
70C0
FFC0
ENDCHAR
STARTCHAR Edieresis
ENCODING 203
SWIDTH 629 0
DWIDTH 12 0
BBX 11 17 1 0
BITMAP
7380
7380
7380
FFC0
70C0
7040
7040
7080
7080
7F80
7080
7080
7000
7060
7040
70C0
FFC0
ENDCHAR
STARTCHAR Igrave
ENCODING 204
SWIDTH 384 0
DWIDTH 7 0
BBX 6 18 0 0
BITMAP
C0
F0
38
04
7C
38
38
38
38
38
38
38
38
38
38
38
38
7C
ENDCHAR
STARTCHAR Iacute
ENCODING 205
SWIDTH 384 0
DWIDTH 7 0
BBX 6 18 1 0
BITMAP
0C
3C
70
80
F8
70
70
70
70
70
70
70
70
70
70
70
70
F8
ENDCHAR
STARTCHAR Icircumflex
ENCODING 206
SWIDTH 384 0
DWIDTH 7 0
BBX 7 18 0 0
BITMAP
10
3C
C6
00
7C
38
38
38
38
38
38
38
38
38
38
38
38
7C
ENDCHAR
STARTCHAR Idieresis
ENCODING 207
SWIDTH 384 0
DWIDTH 7 0
BBX 8 17 0 0
BITMAP
E7
E7
E7
7C
38
38
38
38
38
38
38
38
38
38
38
38
7C
ENDCHAR
STARTCHAR Eth
ENCODING 208
SWIDTH 783 0
DWIDTH 15 0
BBX 14 14 0 0
BITMAP
7FE0
3870
3838
3838
381C
381C
FF1C
381C
381C
381C
3838
3838
3870
7FC0
ENDCHAR
STARTCHAR Ntilde
ENCODING 209
SWIDTH 739 0
DWIDTH 14 0
BBX 12 17 1 0
BITMAP
0C40
1FC0
2180
F0F0
7820
7820
7C20
5E20
4E20
4F20
47A0
43A0
43E0
41E0
40E0
40E0
F060
ENDCHAR
STARTCHAR Ograve
ENCODING 210
SWIDTH 768 0
DWIDTH 15 0
BBX 13 18 1 0
BITMAP
1000
1C00
0F00
0180
0F80
38E0
7070
6030
E038
E038
E038
E038
E038
E038
6030
7070
38E0
0F80
ENDCHAR
STARTCHAR Oacute
ENCODING 211
SWIDTH 768 0
DWIDTH 15 0
BBX 13 18 1 0
BITMAP
0040
01C0
0780
0C00
0F80
38E0
7070
6030
E038
E038
E038
E038
E038
E038
6030
7070
38E0
0F80
ENDCHAR
STARTCHAR Ocircumflex
ENCODING 212
SWIDTH 768 0
DWIDTH 15 0
BBX 13 18 1 0
BITMAP
0700
0F80
18C0
2020
0F80
38E0
7070
6030
E038
E038
E038
E038
E038
E038
6030
7070
38E0
0F80
ENDCHAR
STARTCHAR Otilde
ENCODING 213
SWIDTH 768 0
DWIDTH 15 0
BBX 13 17 1 0
BITMAP
0C20
1FC0
1180
0F80
38E0
7070
6030
E038
E038
E038
E038
E038
E038
6030
7070
38E0
0F80
ENDCHAR
STARTCHAR Odieresis
ENCODING 214
SWIDTH 768 0
DWIDTH 15 0
BBX 13 17 1 0
BITMAP
1DC0
1DC0
1DC0
0F80
38E0
7070
6030
E038
E038
E038
E038
E038
E038
6030
7070
38E0
0F80
ENDCHAR
STARTCHAR multiply
ENCODING 215
SWIDTH 600 0
DWIDTH 12 0
BBX 9 9 1 0
BITMAP
4100
E380
7700
3E00
1C00
3E00
7700
E380
4100
ENDCHAR
STARTCHAR Oslash
ENCODING 216
SWIDTH 768 0
DWIDTH 15 0
BBX 13 16 1 -1
BITMAP
0020
0FA0
38E0
7070
60B0
E1B8
E138
E238
E638
E438
EC38
6830
7070
38E0
2F80
2000
ENDCHAR
STARTCHAR Ugrave
ENCODING 217
SWIDTH 786 0
DWIDTH 15 0
BBX 13 18 1 0
BITMAP
1800
1C00
0700
0080
F8F8
7070
7070
7070
7070
7070
7070
7070
7070
7070
7070
7070
38E0
0F80
ENDCHAR
STARTCHAR Uacute
ENCODING 218
SWIDTH 786 0
DWIDTH 15 0
BBX 13 18 1 0
BITMAP
00C0
01C0
0700
0800
F8F8
7070
7070
7070
7070
7070
7070
7070
7070
7070
7070
7070
38E0
0F80
ENDCHAR
STARTCHAR Ucircumflex
ENCODING 219
SWIDTH 786 0
DWIDTH 15 0
BBX 13 18 1 0
BITMAP
0200
0F80
18C0
0000
F8F8
7070
7070
7070
7070
7070
7070
7070
7070
7070
7070
7070
38E0
0F80
ENDCHAR
STARTCHAR Udieresis
ENCODING 220
SWIDTH 786 0
DWIDTH 15 0
BBX 13 17 1 0
BITMAP
1CE0
1CE0
1CE0
F8F8
7070
7070
7070
7070
7070
7070
7070
7070
7070
7070
7070
38E0
0F80
ENDCHAR
STARTCHAR Yacute
ENCODING 221
SWIDTH 617 0
DWIDTH 12 0
BBX 13 18 0 0
BITMAP
00C0
01E0
0700
0400
FCF8
7830
3820
1C60
1C40
0E80
0E80
0700
0700
0700
0700
0700
0700
1FC0
ENDCHAR
STARTCHAR Thorn
ENCODING 222
SWIDTH 640 0
DWIDTH 12 0
BBX 11 14 1 0
BITMAP
FC00
7000
7000
7F80
71C0
70E0
70E0
70E0
70E0
71C0
7F00
7000
7000
FC00
ENDCHAR
STARTCHAR germandbls
ENCODING 223
SWIDTH 662 0
DWIDTH 13 0
BBX 11 14 1 0
BITMAP
1F00
3980
71C0
71C0
7100
7300
7700
7780
73C0
71C0
70E0
7060
7760
FBC0
ENDCHAR
STARTCHAR agrave
ENCODING 224
SWIDTH 544 0
DWIDTH 11 0
BBX 10 15 1 0
BITMAP
2000
7000
3000
1800
0400
1E00
6700
E700
4700
3F00
6700
E700
E700
7FC0
3300
ENDCHAR
STARTCHAR aacute
ENCODING 225
SWIDTH 544 0
DWIDTH 11 0
BBX 10 15 1 0
BITMAP
0200
0700
0E00
0800
1000
1E00
6700
E700
4700
3F00
6700
E700
E700
7FC0
3300
ENDCHAR
STARTCHAR acircumflex
ENCODING 226
SWIDTH 544 0
DWIDTH 11 0
BBX 10 14 1 0
BITMAP
0800
1C00
2600
4100
1E00
6700
E700
4700
3F00
6700
E700
E700
7FC0
3300
ENDCHAR
STARTCHAR atilde
ENCODING 227
SWIDTH 544 0
DWIDTH 11 0
BBX 10 14 1 0
BITMAP
7100
FF00
8600
0000
1E00
6700
E700
4700
3F00
6700
E700
E700
7FC0
3300
ENDCHAR
STARTCHAR adieresis
ENCODING 228
SWIDTH 544 0
DWIDTH 11 0
BBX 10 14 1 0
BITMAP
7700
7700
7700
0000
1E00
6700
E700
4700
3F00
6700
E700
E700
7FC0
3300
ENDCHAR
STARTCHAR aring
ENCODING 229
SWIDTH 544 0
DWIDTH 11 0
BBX 10 15 1 0
BITMAP
1800
2400
2400
2400
1800
3E00
E700
E700
4F00
3700
E700
E700
E700
7FC0
3300
ENDCHAR
STARTCHAR ae
ENCODING 230
SWIDTH 806 0
DWIDTH 16 0
BBX 14 10 1 0
BITMAP
1CF0
6798
E71C
471C
1FFC
6700
E700
E704
E788
79F0
ENDCHAR
STARTCHAR ccedilla
ENCODING 231
SWIDTH 494 0
DWIDTH 10 0
BBX 8 15 1 -5
BITMAP
1C
77
67
E2
E0
E0
E0
E1
71
3E
10
1C
0C
0C
18
ENDCHAR
STARTCHAR egrave
ENCODING 232
SWIDTH 519 0
DWIDTH 10 0
BBX 9 15 1 0
BITMAP
2000
7000
3800
0C00
0600
3E00
7300
6380
E380
FF80
E000
E000
E080
7100
3E00
ENDCHAR
STARTCHAR eacute
ENCODING 233
SWIDTH 519 0
DWIDTH 10 0
BBX 9 15 1 0
BITMAP
0100
0300
0600
0C00
1000
3E00
7300
6380
E380
FF80
E000
E000
E080
7100
3E00
ENDCHAR
STARTCHAR ecircumflex
ENCODING 234
SWIDTH 519 0
DWIDTH 10 0
BBX 9 14 1 0
BITMAP
0800
1C00
2200
4100
3E00
7300
6380
E380
FF80
E000
E000
E080
7100
3E00
ENDCHAR
STARTCHAR edieresis
ENCODING 235
SWIDTH 519 0
DWIDTH 10 0
BBX 9 14 1 0
BITMAP
E700
E700
E700
0000
3E00
7300
6380
E380
FF80
E000
E000
E180
7100
3E00
ENDCHAR
STARTCHAR igrave
ENCODING 236
SWIDTH 316 0
DWIDTH 6 0
BBX 6 15 0 0
BITMAP
80
E0
70
18
08
18
78
38
38
38
38
38
38
38
7C
ENDCHAR
STARTCHAR iacute
ENCODING 237
SWIDTH 316 0
DWIDTH 6 0
BBX 6 15 1 0
BITMAP
08
1C
38
60
80
30
F0
70
70
70
70
70
70
70
F8
ENDCHAR
STARTCHAR icircumflex
ENCODING 238
SWIDTH 316 0
DWIDTH 6 0
BBX 7 14 0 0
BITMAP
10
38
44
82
18
78
38
38
38
38
38
38
38
7C
ENDCHAR
STARTCHAR idieresis
ENCODING 239
SWIDTH 316 0
DWIDTH 6 0
BBX 8 14 -1 0
BITMAP
E7
E7
E7
00
0C
3C
1C
1C
1C
1C
1C
1C
1C
3E
ENDCHAR
STARTCHAR eth
ENCODING 240
SWIDTH 585 0
DWIDTH 11 0
BBX 10 14 1 0
BITMAP
6080
1100
3E00
4700
1F80
7380
61C0
E1C0
E1C0
E1C0
E1C0
6180
7380
1E00
ENDCHAR
STARTCHAR ntilde
ENCODING 241
SWIDTH 638 0
DWIDTH 12 0
BBX 11 14 1 0
BITMAP
1880
3F80
4300
0000
3780
F9C0
71C0
71C0
71C0
71C0
71C0
71C0
71C0
FBE0
ENDCHAR
STARTCHAR ograve
ENCODING 242
SWIDTH 585 0
DWIDTH 11 0
BBX 10 15 1 0
BITMAP
2000
7000
3800
0C00
0200
1E00
7380
6180
E1C0
E1C0
E1C0
E1C0
6180
7380
1E00
ENDCHAR
STARTCHAR oacute
ENCODING 243
SWIDTH 585 0
DWIDTH 11 0
BBX 10 15 1 0
BITMAP
0100
0380
0700
0C00
1000
1E00
7380
6180
E1C0
E1C0
E1C0
E1C0
6180
7380
1E00
ENDCHAR
STARTCHAR ocircumflex
ENCODING 244
SWIDTH 585 0
DWIDTH 11 0
BBX 10 14 1 0
BITMAP
0C00
1E00
3300
4080
1E00
7380
6180
E1C0
E1C0
E1C0
E1C0
6180
7380
1E00
ENDCHAR
STARTCHAR otilde
ENCODING 245
SWIDTH 585 0
DWIDTH 11 0
BBX 10 14 1 0
BITMAP
3880
3F80
4300
0000
1E00
7380
6180
E1C0
E1C0
E1C0
E1C0
6180
7380
1E00
ENDCHAR
STARTCHAR odieresis
ENCODING 246
SWIDTH 585 0
DWIDTH 11 0
BBX 10 14 1 0
BITMAP
7380
7380
7380
0000
1E00
7380
6180
E1C0
E1C0
E1C0
E1C0
6180
7380
1E00
ENDCHAR
STARTCHAR divide
ENCODING 247
SWIDTH 600 0
DWIDTH 12 0
BBX 9 10 1 0
BITMAP
0800
1C00
0800
0000
FF80
FF80
0000
0800
1C00
0800
ENDCHAR
STARTCHAR oslash
ENCODING 248
SWIDTH 585 0
DWIDTH 11 0
BBX 10 12 1 -1
BITMAP
0100
1F80
7300
6380
E5C0
E5C0
E9C0
F9C0
F180
7380
3E00
4000
ENDCHAR
STARTCHAR ugrave
ENCODING 249
SWIDTH 629 0
DWIDTH 12 0
BBX 11 15 1 0
BITMAP
2000
3000
3800
0C00
0200
30C0
F3C0
71C0
71C0
71C0
71C0
71C0
71C0
7FC0
19E0
ENDCHAR
STARTCHAR uacute
ENCODING 250
SWIDTH 629 0
DWIDTH 12 0
BBX 11 15 1 0
BITMAP
0080
0180
0300
0600
0800
30C0
F3C0
71C0
71C0
71C0
71C0
71C0
71C0
7FC0
19E0
ENDCHAR
STARTCHAR ucircumflex
ENCODING 251
SWIDTH 629 0
DWIDTH 12 0
BBX 11 14 1 0
BITMAP
0400
0E00
1100
2080
30C0
F3C0
71C0
71C0
71C0
71C0
71C0
71C0
7FC0
19E0
ENDCHAR
STARTCHAR udieresis
ENCODING 252
SWIDTH 629 0
DWIDTH 12 0
BBX 11 14 1 0
BITMAP
7380
7380
7380
0000
30C0
F3C0
71C0
71C0
71C0
71C0
71C0
71C0
7FC0
19E0
ENDCHAR
STARTCHAR yacute
ENCODING 253
SWIDTH 524 0
DWIDTH 10 0
BBX 11 19 0 -4
BITMAP
0080
01C0
0380
0600
0800
F9E0
70C0
3080
3980
3900
1D00
1F00
1E00
0E00
0C00
0C00
2800
7800
3000
ENDCHAR
STARTCHAR thorn
ENCODING 254
SWIDTH 609 0
DWIDTH 12 0
BBX 11 18 0 -4
BITMAP
F000
7000
7000
7000
7780
79C0
70E0
70E0
70E0
70E0
70E0
70C0
71C0
7F00
7000
7000
7000
FC00
ENDCHAR
STARTCHAR ydieresis
ENCODING 255
SWIDTH 524 0
DWIDTH 10 0
BBX 11 18 0 -4
BITMAP
3B80
3B80
3B80
0000
F9E0
70C0
3080
3980
3900
1D00
1F00
1E00
0E00
0C00
0C00
2800
7800
2000
ENDCHAR
STARTCHAR Amacron
ENCODING 256
SWIDTH 644 0
DWIDTH 13 0
BBX 13 17 0 0
BITMAP
0FC0
0FC0
0000
0700
0700
0780
0B80
0B80
0B80
19C0
11C0
1FC0
30E0
20E0
20E0
60F0
F1F8
ENDCHAR
STARTCHAR amacron
ENCODING 257
SWIDTH 544 0
DWIDTH 11 0
BBX 10 13 1 0
BITMAP
3F00
3F00
0000
1E00
6700
E700
4700
3F00
6700
E700
E700
7FC0
3300
ENDCHAR
STARTCHAR Abreve
ENCODING 258
SWIDTH 644 0
DWIDTH 13 0
BBX 13 18 0 0
BITMAP
0840
0F80
0780
0000
0700
0700
0780
0B80
0B80
0B80
19C0
11C0
1FC0
30E0
20E0
20E0
60F0
F1F8
ENDCHAR
STARTCHAR abreve
ENCODING 259
SWIDTH 544 0
DWIDTH 11 0
BBX 10 14 1 0
BITMAP
2100
3E00
1E00
0000
1E00
6700
E700
4700
3F00
6700
E700
E700
7FC0
3300
ENDCHAR
STARTCHAR Aogonek
ENCODING 260
SWIDTH 644 0
DWIDTH 13 0
BBX 13 19 0 -5
BITMAP
0700
0700
0780
0B80
0B80
0B80
19C0
11C0
1FC0
30E0
20E0
20E0
60F0
F1F8
0180
0200
0600
0600
0380
ENDCHAR
STARTCHAR aogonek
ENCODING 261
SWIDTH 544 0
DWIDTH 11 0
BBX 10 15 1 -5
BITMAP
1E00
6700
E700
4700
3F00
6700
E700
E700
7FC0
3300
0600
0800
1800
1800
0E00
ENDCHAR
STARTCHAR Cacute
ENCODING 262
SWIDTH 689 0
DWIDTH 13 0
BBX 12 19 1 0
BITMAP
00C0
01C0
0300
0400
0000
0FE0
3870
7030
7010
E000
E000
E000
E000
E000
E010
7010
7030
3870
0FC0
ENDCHAR
STARTCHAR cacute
ENCODING 263
SWIDTH 494 0
DWIDTH 10 0
BBX 9 15 1 0
BITMAP
0300
0700
0C00
1000
0000
1E00
7700
6300
E200
E000
E000
E000
E080
7100
3E00
ENDCHAR
STARTCHAR Ccircumflex
ENCODING 264
SWIDTH 689 0
DWIDTH 13 0
BBX 12 19 1 0
BITMAP
0200
0700
0D80
1040
0000
0FE0
3870
7030
7010
E000
E000
E000
E000
E000
E010
7010
7030
3870
0FC0
ENDCHAR
STARTCHAR ccircumflex
ENCODING 265
SWIDTH 494 0
DWIDTH 10 0
BBX 9 15 1 0
BITMAP
0800
1C00
3600
4100
0000
1E00
7700
6300
E200
E000
E000
E000
E080
7100
3E00
ENDCHAR
STARTCHAR Cdotaccent
ENCODING 266
SWIDTH 689 0
DWIDTH 13 0
BBX 12 18 1 0
BITMAP
0700
0700
0700
0000
0FE0
3870
7030
7010
E000
E000
E000
E000
E000
E010
7010
7030
3870
0FC0
ENDCHAR
STARTCHAR cdotaccent
ENCODING 267
SWIDTH 494 0
DWIDTH 10 0
BBX 9 14 1 0
BITMAP
1C00
1C00
1C00
0000
1E00
7700
6300
E200
E000
E000
E000
E080
7100
3E00
ENDCHAR
STARTCHAR Ccaron
ENCODING 268
SWIDTH 689 0
DWIDTH 13 0
BBX 12 19 1 0
BITMAP
1040
0D80
0700
0200
0000
0FE0
3870
7030
7010
E000
E000
E000
E000
E000
E010
7010
7030
3870
0FC0
ENDCHAR
STARTCHAR ccaron
ENCODING 269
SWIDTH 494 0
DWIDTH 10 0
BBX 9 15 1 0
BITMAP
4100
3600
1C00
0800
0000
1E00
7700
6300
E200
E000
E000
E000
E080
7100
3E00
ENDCHAR
STARTCHAR Dcaron
ENCODING 270
SWIDTH 777 0
DWIDTH 15 0
BBX 13 19 1 0
BITMAP
1040
0D80
0700
0200
0000
FFC0
70E0
7070
7070
7038
7038
7038
7038
7038
7030
7070
7070
70E0
FF80
ENDCHAR
STARTCHAR dcaron
ENCODING 271
SWIDTH 827 0
DWIDTH 16 0
BBX 14 14 1 0
BITMAP
0188
079C
038C
0388
1F88
7390
6380
E380
E380
E380
E380
E380
7380
3FC0
ENDCHAR
STARTCHAR Dcroat
ENCODING 272
SWIDTH 783 0
DWIDTH 15 0
BBX 14 14 0 0
BITMAP
7FE0
3870
3838
3838
381C
381C
FF1C
381C
381C
381C
3838
3838
3870
7FC0
ENDCHAR
STARTCHAR dcroat
ENCODING 273
SWIDTH 605 0
DWIDTH 12 0
BBX 10 14 1 0
BITMAP
0180
0780
07C0
0380
1F80
7380
6380
E380
E380
E380
E380
E380
7380
3FC0
ENDCHAR
STARTCHAR Emacron
ENCODING 274
SWIDTH 629 0
DWIDTH 12 0
BBX 11 17 1 0
BITMAP
3F00
3F00
0000
FFC0
70C0
7040
7040
7080
7080
7F80
7080
7080
7000
7060
7040
70C0
FFC0
ENDCHAR
STARTCHAR emacron
ENCODING 275
SWIDTH 519 0
DWIDTH 10 0
BBX 9 13 1 0
BITMAP
3F00
3F00
0000
3E00
7300
6380
E380
FF80
E000
E000
E080
7100
3E00
ENDCHAR
STARTCHAR Ebreve
ENCODING 276
SWIDTH 629 0
DWIDTH 12 0
BBX 11 18 1 0
BITMAP
2100
3E00
1E00
0000
FFC0
70C0
7040
7040
7080
7080
7F80
7080
7080
7000
7060
7040
70C0
FFC0
ENDCHAR
STARTCHAR ebreve
ENCODING 277
SWIDTH 519 0
DWIDTH 10 0
BBX 9 14 1 0
BITMAP
2100
3E00
1E00
0000
3E00
7300
6380
E380
FF80
E000
E000
E080
7100
3E00
ENDCHAR
STARTCHAR Edotaccent
ENCODING 278
SWIDTH 629 0
DWIDTH 12 0
BBX 11 18 1 0
BITMAP
0E00
0E00
0E00
0000
FFC0
70C0
7040
7040
7080
7080
7F80
7080
7080
7000
7060
7040
70C0
FFC0
ENDCHAR
STARTCHAR edotaccent
ENCODING 279
SWIDTH 519 0
DWIDTH 10 0
BBX 9 14 1 0
BITMAP
1C00
1C00
1C00
0000
3E00
7300
6380
E380
FF80
E000
E000
E080
7100
3E00
ENDCHAR
STARTCHAR Eogonek
ENCODING 280
SWIDTH 629 0
DWIDTH 12 0
BBX 11 19 1 -5
BITMAP
FFC0
70C0
7040
7040
7080
7080
7F80
7080
7080
7000
7060
7040
70C0
FFC0
0600
0800
1800
1800
0E00
ENDCHAR
STARTCHAR eogonek
ENCODING 281
SWIDTH 519 0
DWIDTH 10 0
BBX 9 15 1 -5
BITMAP
3E00
7300
6380
E380
FF80
E000
E000
E080
7100
3E00
0C00
1000
3000
3000
1C00
ENDCHAR
STARTCHAR Ecaron
ENCODING 282
SWIDTH 629 0
DWIDTH 12 0
BBX 11 19 1 0
BITMAP
2080
1B00
0E00
0400
0000
FFC0
70C0
7040
7040
7080
7080
7F80
7080
7080
7000
7060
7040
70C0
FFC0
ENDCHAR
STARTCHAR ecaron
ENCODING 283
SWIDTH 519 0
DWIDTH 10 0
BBX 9 15 1 0
BITMAP
4100
3600
1C00
0800
0000
3E00
7300
6380
E380
FF80
E000
E000
E080
7100
3E00
ENDCHAR
STARTCHAR Gcircumflex
ENCODING 284
SWIDTH 726 0
DWIDTH 14 0
BBX 13 19 1 0
BITMAP
0200
0700
0D80
1040
0000
07E0
3870
7030
7010
E000
E000
E000
E000
E1F8
E070
6070
7070
3870
0FC0
ENDCHAR
STARTCHAR gcircumflex
ENCODING 285
SWIDTH 533 0
DWIDTH 10 0
BBX 10 19 0 -4
BITMAP
0400
0E00
1B00
2080
0000
1EC0
33C0
7380
7380
7380
3300
3E00
6000
7F80
3FC0
60C0
E0C0
7180
1F00
ENDCHAR
STARTCHAR Gbreve
ENCODING 286
SWIDTH 726 0
DWIDTH 14 0
BBX 13 18 1 0
BITMAP
0840
0F80
0780
0000
07E0
3870
7030
7010
E000
E000
E000
E000
E1F8
E070
6070
7070
3870
0FC0
ENDCHAR
STARTCHAR gbreve
ENCODING 287
SWIDTH 533 0
DWIDTH 10 0
BBX 10 18 0 -4
BITMAP
2100
3E00
1E00
0000
1EC0
33C0
7380
7380
7380
3300
3E00
6000
7F80
3FC0
60C0
E0C0
7180
1F00
ENDCHAR
STARTCHAR Gdotaccent
ENCODING 288
SWIDTH 726 0
DWIDTH 14 0
BBX 13 18 1 0
BITMAP
0700
0700
0700
0000
07E0
3870
7030
7010
E000
E000
E000
E000
E1F8
E070
6070
7070
3870
0FC0
ENDCHAR
STARTCHAR gdotaccent
ENCODING 289
SWIDTH 533 0
DWIDTH 10 0
BBX 10 18 0 -4
BITMAP
0E00
0E00
0E00
0000
1EC0
33C0
7380
7380
7380
3300
3E00
6000
7F80
3FC0
60C0
E0C0
7180
1F00
ENDCHAR
STARTCHAR Gcommaaccent
ENCODING 290
SWIDTH 726 0
DWIDTH 14 0
BBX 13 22 1 -8
BITMAP
07E0
3870
7030
7010
E000
E000
E000
E000
E1F8
E070
6070
7070
3870
0FC0
0000
0200
0700
0300
0300
0200
0600
0400
ENDCHAR
STARTCHAR gcommaaccent
ENCODING 291
SWIDTH 533 0
DWIDTH 10 0
BBX 10 21 0 -4
BITMAP
0200
0400
0400
0C00
0E00
0400
0000
1EC0
33C0
7380
7380
7380
3300
3E00
6000
7F80
3FC0
60C0
E0C0
7180
1F00
ENDCHAR
STARTCHAR Hcircumflex
ENCODING 292
SWIDTH 807 0
DWIDTH 16 0
BBX 13 19 1 0
BITMAP
0200
0700
0D80
1040
0000
F8F8
7070
7070
7070
7070
7070
7FF0
7070
7070
7070
7070
7070
7070
F8F8
ENDCHAR
STARTCHAR hcircumflex
ENCODING 293
SWIDTH 631 0
DWIDTH 12 0
BBX 11 19 1 0
BITMAP
1000
3800
6C00
8200
0000
3000
F000
7000
7000
7780
79C0
71C0
71C0
71C0
71C0
71C0
71C0
71C0
FBE0
ENDCHAR
STARTCHAR Hbar
ENCODING 294
SWIDTH 807 0
DWIDTH 16 0
BBX 13 14 1 0
BITMAP
F8F8
7070
7070
FFF8
7070
7070
7FF0
7070
7070
7070
7070
7070
7070
F8F8
ENDCHAR
STARTCHAR hbar
ENCODING 295
SWIDTH 631 0
DWIDTH 12 0
BBX 11 14 1 0
BITMAP
3000
F000
7C00
7000
7780
79C0
71C0
71C0
71C0
71C0
71C0
71C0
71C0
FBE0
ENDCHAR
STARTCHAR Itilde
ENCODING 296
SWIDTH 384 0
DWIDTH 7 0
BBX 8 18 0 0
BITMAP
21
7E
84
00
7C
38
38
38
38
38
38
38
38
38
38
38
38
7C
ENDCHAR
STARTCHAR itilde
ENCODING 297
SWIDTH 316 0
DWIDTH 6 0
BBX 8 14 0 0
BITMAP
21
7E
84
00
18
78
38
38
38
38
38
38
38
7C
ENDCHAR
STARTCHAR Imacron
ENCODING 298
SWIDTH 384 0
DWIDTH 7 0
BBX 6 17 1 0
BITMAP
FC
FC
00
F8
70
70
70
70
70
70
70
70
70
70
70
70
F8
ENDCHAR
STARTCHAR imacron
ENCODING 299
SWIDTH 316 0
DWIDTH 6 0
BBX 6 13 0 0
BITMAP
FC
FC
00
18
78
38
38
38
38
38
38
38
7C
ENDCHAR
STARTCHAR Ibreve
ENCODING 300
SWIDTH 384 0
DWIDTH 7 0
BBX 6 18 1 0
BITMAP
84
F8
78
00
F8
70
70
70
70
70
70
70
70
70
70
70
70
F8
ENDCHAR
STARTCHAR ibreve
ENCODING 301
SWIDTH 316 0
DWIDTH 6 0
BBX 6 14 0 0
BITMAP
84
F8
78
00
18
78
38
38
38
38
38
38
38
7C
ENDCHAR
STARTCHAR Iogonek
ENCODING 302
SWIDTH 384 0
DWIDTH 7 0
BBX 5 19 1 -5
BITMAP
F8
70
70
70
70
70
70
70
70
70
70
70
70
F8
30
40
C0
C0
70
ENDCHAR
STARTCHAR iogonek
ENCODING 303
SWIDTH 316 0
DWIDTH 6 0
BBX 5 19 1 -5
BITMAP
60
70
70
00
30
F0
70
70
70
70
70
70
70
F8
30
40
C0
C0
70
ENDCHAR
STARTCHAR Idotaccent
ENCODING 304
SWIDTH 384 0
DWIDTH 7 0
BBX 5 18 1 0
BITMAP
70
70
70
00
F8
70
70
70
70
70
70
70
70
70
70
70
70
F8
ENDCHAR
STARTCHAR dotlessi
ENCODING 305
SWIDTH 316 0
DWIDTH 6 0
BBX 5 10 1 0
BITMAP
30
F0
70
70
70
70
70
70
70
F8
ENDCHAR
STARTCHAR IJ
ENCODING 306
SWIDTH 751 0
DWIDTH 15 0
BBX 12 16 1 -2
BITMAP
F9F0
70E0
70E0
70E0
70E0
70E0
70E0
70E0
70E0
70E0
70E0
70E0
70E0
F8E0
01C0
0300
ENDCHAR
STARTCHAR ij
ENCODING 307
SWIDTH 616 0
DWIDTH 12 0
BBX 10 19 1 -4
BITMAP
0180
61C0
71C0
7080
0000
30C0
F3C0
71C0
71C0
71C0
71C0
71C0
71C0
71C0
F9C0
01C0
01C0
0380
0600
ENDCHAR
STARTCHAR Jcircumflex
ENCODING 308
SWIDTH 386 0
DWIDTH 8 0
BBX 7 21 0 -2
BITMAP
10
38
6C
82
00
7C
38
38
38
38
38
38
38
38
38
38
38
38
38
70
C0
ENDCHAR
STARTCHAR jcircumflex
ENCODING 309
SWIDTH 316 0
DWIDTH 6 0
BBX 7 19 0 -4
BITMAP
10
38
6C
82
00
18
78
38
38
38
38
38
38
38
38
38
38
70
C0
ENDCHAR
STARTCHAR Kcommaaccent
ENCODING 310
SWIDTH 707 0
DWIDTH 14 0
BBX 13 22 1 -8
BITMAP
FCF8
7060
70C0
7180
7300
7600
7F00
7F00
7780
77C0
73C0
71E0
70F0
F838
0000
0200
0700
0300
0300
0200
0600
0400
ENDCHAR
STARTCHAR kcommaaccent
ENCODING 311
SWIDTH 582 0
DWIDTH 11 0
BBX 11 22 1 -8
BITMAP
3000
F000
7000
7000
71E0
7380
7600
7C00
7E00
7F00
7700
7380
73C0
F9E0
0000
0400
0E00
0600
0600
0400
0C00
0800
ENDCHAR
STARTCHAR kgreenlandic
ENCODING 312
SWIDTH 582 0
DWIDTH 11 0
BBX 11 10 1 0
BITMAP
71E0
7380
7600
7C00
7E00
7F00
7700
7380
73C0
F9E0
ENDCHAR
STARTCHAR Lacute
ENCODING 313
SWIDTH 585 0
DWIDTH 11 0
BBX 10 19 1 0
BITMAP
0600
0E00
1800
2000
0000
FC00
7000
7000
7000
7000
7000
7000
7000
7000
7000
7040
7040
70C0
FFC0
ENDCHAR
STARTCHAR lacute
ENCODING 314
SWIDTH 309 0
DWIDTH 6 0
BBX 6 19 1 0
BITMAP
0C
1C
30
40
00
30
F0
70
70
70
70
70
70
70
70
70
70
70
F8
ENDCHAR
STARTCHAR Lcommaaccent
ENCODING 315
SWIDTH 585 0
DWIDTH 11 0
BBX 10 22 1 -8
BITMAP
FC00
7000
7000
7000
7000
7000
7000
7000
7000
7000
7040
7040
70C0
FFC0
0000
0800
1C00
0C00
0C00
0800
1800
1000
ENDCHAR
STARTCHAR lcommaaccent
ENCODING 316
SWIDTH 309 0
DWIDTH 6 0
BBX 5 22 1 -8
BITMAP
30
F0
70
70
70
70
70
70
70
70
70
70
70
F8
00
20
70
30
30
20
60
40
ENDCHAR
STARTCHAR Lcaron
ENCODING 317
SWIDTH 808 0
DWIDTH 15 0
BBX 13 14 1 0
BITMAP
FC10
7038
7018
7010
7010
7020
7000
7000
7000
7000
7040
7040
70C0
FFC0
ENDCHAR
STARTCHAR lcaron
ENCODING 318
SWIDTH 546 0
DWIDTH 11 0
BBX 9 14 1 0
BITMAP
3100
F380
7180
7100
7100
7200
7000
7000
7000
7000
7000
7000
7000
F800
ENDCHAR
STARTCHAR Ldot
ENCODING 319
SWIDTH 836 0
DWIDTH 15 0
BBX 14 14 1 0
BITMAP
FC00
7000
7000
7000
7000
7000
7000
7018
703C
703C
7058
7040
70C0
FFC0
ENDCHAR
STARTCHAR ldot
ENCODING 320
SWIDTH 574 0
DWIDTH 11 0
BBX 10 14 1 0
BITMAP
3000
F000
7000
7000
7000
7000
7000
7180
73C0
73C0
7180
7000
7000
F800
ENDCHAR
STARTCHAR Lslash
ENCODING 321
SWIDTH 591 0
DWIDTH 11 0
BBX 11 14 0 0
BITMAP
7E00
3800
3800
3800
3900
3E00
3C00
3800
7800
F800
3820
3820
3860
7FE0
ENDCHAR
STARTCHAR lslash
ENCODING 322
SWIDTH 321 0
DWIDTH 6 0
BBX 7 14 0 0
BITMAP
18
78
38
38
38
3E
38
38
78
B8
38
38
38
7C
ENDCHAR
STARTCHAR Nacute
ENCODING 323
SWIDTH 739 0
DWIDTH 14 0
BBX 12 19 1 0
BITMAP
0180
0380
0600
0800
0000
F0F0
7820
7820
7C20
5E20
4E20
4F20
47A0
43A0
43E0
41E0
40E0
40E0
F060
ENDCHAR
STARTCHAR nacute
ENCODING 324
SWIDTH 638 0
DWIDTH 12 0
BBX 11 15 1 0
BITMAP
0180
0380
0600
0800
0000
3780
F9C0
71C0
71C0
71C0
71C0
71C0
71C0
71C0
FBE0
ENDCHAR
STARTCHAR Ncommaaccent
ENCODING 325
SWIDTH 739 0
DWIDTH 14 0
BBX 12 22 1 -8
BITMAP
F0F0
7820
7820
7C20
5E20
4E20
4F20
47A0
43A0
43E0
41E0
40E0
40E0
F060
0000
0200
0700
0300
0300
0200
0600
0400
ENDCHAR
STARTCHAR ncommaaccent
ENCODING 326
SWIDTH 638 0
DWIDTH 12 0
BBX 11 18 1 -8
BITMAP
3780
F9C0
71C0
71C0
71C0
71C0
71C0
71C0
71C0
FBE0
0000
0400
0E00
0600
0600
0400
0C00
0800
ENDCHAR
STARTCHAR Ncaron
ENCODING 327
SWIDTH 739 0
DWIDTH 14 0
BBX 12 19 1 0
BITMAP
2080
1B00
0E00
0400
0000
F0F0
7820
7820
7C20
5E20
4E20
4F20
47A0
43A0
43E0
41E0
40E0
40E0
F060
ENDCHAR
STARTCHAR ncaron
ENCODING 328
SWIDTH 638 0
DWIDTH 12 0
BBX 11 15 1 0
BITMAP
2080
1B00
0E00
0400
0000
3780
F9C0
71C0
71C0
71C0
71C0
71C0
71C0
71C0
FBE0
ENDCHAR
STARTCHAR napostrophe
ENCODING 329
SWIDTH 877 0
DWIDTH 17 0
BBX 16 14 1 0
BITMAP
4000
E000
6000
4000
41BC
87CE
038E
038E
038E
038E
038E
038E
038E
07DF
ENDCHAR
STARTCHAR Eng
ENCODING 330
SWIDTH 739 0
DWIDTH 14 0
BBX 12 18 1 -4
BITMAP
F0F0
7820
7820
7C20
5E20
4E20
4F20
47A0
43A0
43E0
41E0
40E0
40E0
F0E0
00E0
00E0
01C0
0300
ENDCHAR
STARTCHAR eng
ENCODING 331
SWIDTH 638 0
DWIDTH 12 0
BBX 10 14 1 -4
BITMAP
3780
F9C0
71C0
71C0
71C0
71C0
71C0
71C0
71C0
F9C0
01C0
01C0
0380
0600
ENDCHAR
STARTCHAR Omacron
ENCODING 332
SWIDTH 768 0
DWIDTH 15 0
BBX 13 17 1 0
BITMAP
0FC0
0FC0
0000
0F80
38E0
7070
6030
E038
E038
E038
E038
E038
E038
6030
7070
38E0
0F80
ENDCHAR
STARTCHAR omacron
ENCODING 333
SWIDTH 585 0
DWIDTH 11 0
BBX 10 13 1 0
BITMAP
3F00
3F00
0000
1E00
7380
6180
E1C0
E1C0
E1C0
E1C0
6180
7380
1E00
ENDCHAR
STARTCHAR Obreve
ENCODING 334
SWIDTH 768 0
DWIDTH 15 0
BBX 13 18 1 0
BITMAP
0840
0F80
0780
0000
0F80
38E0
7070
6030
E038
E038
E038
E038
E038
E038
6030
7070
38E0
0F80
ENDCHAR
STARTCHAR obreve
ENCODING 335
SWIDTH 585 0
DWIDTH 11 0
BBX 10 14 1 0
BITMAP
2100
3E00
1E00
0000
1E00
7380
6180
E1C0
E1C0
E1C0
E1C0
6180
7380
1E00
ENDCHAR
STARTCHAR Ohungarumlaut
ENCODING 336
SWIDTH 768 0
DWIDTH 15 0
BBX 13 19 1 0
BITMAP
0CC0
0CC0
0980
1100
0000
0F80
38E0
7070
6030
E038
E038
E038
E038
E038
E038
6030
7070
38E0
0F80
ENDCHAR
STARTCHAR ohungarumlaut
ENCODING 337
SWIDTH 585 0
DWIDTH 11 0
BBX 10 15 1 0
BITMAP
1980
1980
1300
2200
0000
1E00
7380
6180
E1C0
E1C0
E1C0
E1C0
6180
7380
1E00
ENDCHAR
STARTCHAR OE
ENCODING 338
SWIDTH 1049 0
DWIDTH 20 0
BBX 19 14 1 0
BITMAP
0FFFC0
3870C0
707040
707040
E07080
E07080
E07F80
E07080
E07080
E07000
707060
707040
3870C0
0FFFC0
ENDCHAR
STARTCHAR oe
ENCODING 339
SWIDTH 866 0
DWIDTH 17 0
BBX 16 10 1 0
BITMAP
1E3C
73E6
61C7
E1C7
E1FF
E1C0
E1C0
61C1
73E2
1E3C
ENDCHAR
STARTCHAR Racute
ENCODING 340
SWIDTH 684 0
DWIDTH 13 0
BBX 12 19 1 0
BITMAP
0180
0380
0600
0800
0000
FF80
71C0
70E0
70E0
70E0
70E0
71C0
7F00
73C0
71C0
71C0
70E0
70E0
F870
ENDCHAR
STARTCHAR racute
ENCODING 341
SWIDTH 440 0
DWIDTH 9 0
BBX 8 15 1 0
BITMAP
06
0E
18
20
00
36
FF
76
70
70
70
70
70
70
FC
ENDCHAR
STARTCHAR Rcommaaccent
ENCODING 342
SWIDTH 684 0
DWIDTH 13 0
BBX 12 22 1 -8
BITMAP
FF80
71C0
70E0
70E0
70E0
70E0
71C0
7F00
73C0
71C0
71C0
70E0
70E0
F870
0000
0400
0E00
0600
0600
0400
0C00
0800
ENDCHAR
STARTCHAR rcommaaccent
ENCODING 343
SWIDTH 440 0
DWIDTH 9 0
BBX 8 18 1 -8
BITMAP
36
FF
76
70
70
70
70
70
70
FC
00
10
38
18
18
10
30
20
ENDCHAR
STARTCHAR Rcaron
ENCODING 344
SWIDTH 684 0
DWIDTH 13 0
BBX 12 19 1 0
BITMAP
2080
1B00
0E00
0400
0000
FF80
71C0
70E0
70E0
70E0
70E0
71C0
7F00
73C0
71C0
71C0
70E0
70E0
F870
ENDCHAR
STARTCHAR rcaron
ENCODING 345
SWIDTH 440 0
DWIDTH 9 0
BBX 8 15 1 0
BITMAP
41
36
1C
08
00
36
FF
76
70
70
70
70
70
70
FC
ENDCHAR
STARTCHAR Sacute
ENCODING 346
SWIDTH 561 0
DWIDTH 11 0
BBX 9 19 1 0
BITMAP
0300
0700
0C00
1000
0000
1F00
6180
E180
E080
F000
F800
7E00
1F00
0F80
8380
8380
C380
E300
3E00
ENDCHAR
STARTCHAR sacute
ENCODING 347
SWIDTH 446 0
DWIDTH 9 0
BBX 8 15 0 0
BITMAP
03
07
0C
10
00
1E
33
71
78
3C
1F
8F
47
46
3C
ENDCHAR
STARTCHAR Scircumflex
ENCODING 348
SWIDTH 561 0
DWIDTH 11 0
BBX 9 19 1 0
BITMAP
0800
1C00
3600
4100
0000
1F00
6180
E180
E080
F000
F800
7E00
1F00
0F80
8380
8380
C380
E300
3E00
ENDCHAR
STARTCHAR scircumflex
ENCODING 349
SWIDTH 446 0
DWIDTH 9 0
BBX 8 15 0 0
BITMAP
08
1C
36
41
00
1E
33
71
78
3C
1F
8F
47
46
3C
ENDCHAR
STARTCHAR Scedilla
ENCODING 350
SWIDTH 561 0
DWIDTH 11 0
BBX 9 19 1 -5
BITMAP
1F00
6180
E180
E080
F000
F800
7E00
1F00
0F80
8380
8380
C380
E300
3E00
0800
0E00
0600
0600
1C00
ENDCHAR
STARTCHAR scedilla
ENCODING 351
SWIDTH 446 0
DWIDTH 9 0
BBX 8 15 0 -5
BITMAP
1E
33
71
78
3C
1F
8F
47
46
3C
10
1C
0C
0C
38
ENDCHAR
STARTCHAR Scaron
ENCODING 352
SWIDTH 561 0
DWIDTH 11 0
BBX 9 17 1 0
BITMAP
6300
1E00
0C00
1F00
6180
E180
E080
F000
F800
7E00
1F00
0F80
8380
8380
C380
E300
3E00
ENDCHAR
STARTCHAR scaron
ENCODING 353
SWIDTH 446 0
DWIDTH 9 0
BBX 8 14 0 0
BITMAP
C3
66
3C
18
1E
33
71
78
3C
1F
8F
47
46
3C
ENDCHAR
STARTCHAR Tcommaaccent
ENCODING 354
SWIDTH 624 0
DWIDTH 12 0
BBX 11 19 0 -5
BITMAP
FFE0
CE60
8E20
8E20
0E00
0E00
0E00
0E00
0E00
0E00
0E00
0E00
0E00
3F80
0400
0700
0300
0300
0E00
ENDCHAR
STARTCHAR tcommaaccent
ENCODING 355
SWIDTH 370 0
DWIDTH 7 0
BBX 7 17 1 -5
BITMAP
30
30
FC
70
70
70
70
70
70
70
70
3E
20
38
18
18
70
ENDCHAR
STARTCHAR Tcaron
ENCODING 356
SWIDTH 624 0
DWIDTH 12 0
BBX 11 19 0 0
BITMAP
2080
1B00
0E00
0400
0000
FFE0
CE60
8E20
8E20
0E00
0E00
0E00
0E00
0E00
0E00
0E00
0E00
0E00
3F80
ENDCHAR
STARTCHAR tcaron
ENCODING 357
SWIDTH 604 0
DWIDTH 12 0
BBX 10 14 1 0
BITMAP
0080
01C0
30C0
3080
FC80
7100
7000
7000
7000
7000
7000
7000
7000
3E00
ENDCHAR
STARTCHAR Tbar
ENCODING 358
SWIDTH 624 0
DWIDTH 12 0
BBX 11 14 0 0
BITMAP
FFE0
CE60
8E20
8E20
0E00
0E00
1F00
0E00
0E00
0E00
0E00
0E00
0E00
3F80
ENDCHAR
STARTCHAR tbar
ENCODING 359
SWIDTH 370 0
DWIDTH 7 0
BBX 7 12 1 0
BITMAP
30
30
FC
70
70
70
7C
70
70
70
70
3E
ENDCHAR
STARTCHAR Utilde
ENCODING 360
SWIDTH 786 0
DWIDTH 15 0
BBX 13 18 1 0
BITMAP
0420
0FC0
1080
0000
F8F8
7070
7070
7070
7070
7070
7070
7070
7070
7070
7070
7070
38E0
0F80
ENDCHAR
STARTCHAR utilde
ENCODING 361
SWIDTH 629 0
DWIDTH 12 0
BBX 11 14 1 0
BITMAP
0840
1F80
2100
0000
30C0
F3C0
71C0
71C0
71C0
71C0
71C0
71C0
7FC0
19E0
ENDCHAR
STARTCHAR Umacron
ENCODING 362
SWIDTH 786 0
DWIDTH 15 0
BBX 13 17 1 0
BITMAP
0FC0
0FC0
0000
F8F8
7070
7070
7070
7070
7070
7070
7070
7070
7070
7070
7070
38E0
0F80
ENDCHAR
STARTCHAR umacron
ENCODING 363
SWIDTH 629 0
DWIDTH 12 0
BBX 11 13 1 0
BITMAP
3F00
3F00
0000
30C0
F3C0
71C0
71C0
71C0
71C0
71C0
71C0
7FC0
19E0
ENDCHAR
STARTCHAR Ubreve
ENCODING 364
SWIDTH 786 0
DWIDTH 15 0
BBX 13 18 1 0
BITMAP
0840
0F80
0780
0000
F8F8
7070
7070
7070
7070
7070
7070
7070
7070
7070
7070
7070
38E0
0F80
ENDCHAR
STARTCHAR ubreve
ENCODING 365
SWIDTH 629 0
DWIDTH 12 0
BBX 11 14 1 0
BITMAP
2100
3E00
1E00
0000
30C0
F3C0
71C0
71C0
71C0
71C0
71C0
71C0
7FC0
19E0
ENDCHAR
STARTCHAR Uring
ENCODING 366
SWIDTH 786 0
DWIDTH 15 0
BBX 13 20 1 0
BITMAP
0300
0480
0480
0480
0300
0000
F8F8
7070
7070
7070
7070
7070
7070
7070
7070
7070
7070
7070
38E0
0F80
ENDCHAR
STARTCHAR uring
ENCODING 367
SWIDTH 629 0
DWIDTH 12 0
BBX 11 16 1 0
BITMAP
0C00
1200
1200
1200
0C00
0000
30C0
F3C0
71C0
71C0
71C0
71C0
71C0
71C0
7FC0
19E0
ENDCHAR
STARTCHAR Uhungarumlaut
ENCODING 368
SWIDTH 786 0
DWIDTH 15 0
BBX 13 19 1 0
BITMAP
0CC0
0CC0
0980
1100
0000
F8F8
7070
7070
7070
7070
7070
7070
7070
7070
7070
7070
7070
38E0
0F80
ENDCHAR
STARTCHAR uhungarumlaut
ENCODING 369
SWIDTH 629 0
DWIDTH 12 0
BBX 11 15 1 0
BITMAP
1980
1980
1300
2200
0000
30C0
F3C0
71C0
71C0
71C0
71C0
71C0
71C0
7FC0
19E0
ENDCHAR
STARTCHAR Uogonek
ENCODING 370
SWIDTH 786 0
DWIDTH 15 0
BBX 13 19 1 -5
BITMAP
F8F8
7070
7070
7070
7070
7070
7070
7070
7070
7070
7070
7070
38E0
0F80
0300
0400
0C00
0C00
0700
ENDCHAR
STARTCHAR uogonek
ENCODING 371
SWIDTH 629 0
DWIDTH 12 0
BBX 11 15 1 -5
BITMAP
30C0
F3C0
71C0
71C0
71C0
71C0
71C0
71C0
7FC0
19E0
0300
0400
0C00
0C00
0700
ENDCHAR
STARTCHAR Wcircumflex
ENCODING 372
SWIDTH 933 0
DWIDTH 18 0
BBX 19 19 0 0
BITMAP
004000
00E000
01B000
020800
000000
F803E0
7060C0
70E080
30F080
38F080
38F180
39B900
193900
1D3900
1D3A00
1D1E00
0E1E00
0E1E00
0E0C00
ENDCHAR
STARTCHAR wcircumflex
ENCODING 373
SWIDTH 774 0
DWIDTH 15 0
BBX 16 15 0 0
BITMAP
0100
0380
06C0
0820
0000
F9CF
71C6
39C4
39E4
3BEC
1AE8
1E68
1E78
1C70
0C30
ENDCHAR
STARTCHAR Ycircumflex
ENCODING 374
SWIDTH 617 0
DWIDTH 12 0
BBX 13 19 0 0
BITMAP
0200
0700
0D80
1040
0000
FCF8
7830
3820
1C60
1C40
0E80
0E80
0700
0700
0700
0700
0700
0700
1FC0
ENDCHAR
STARTCHAR ycircumflex
ENCODING 375
SWIDTH 524 0
DWIDTH 10 0
BBX 11 19 0 -4
BITMAP
0400
0E00
1B00
2080
0000
F9E0
70C0
3080
3980
3900
1D00
1F00
1E00
0E00
0C00
0C00
2800
7800
3000
ENDCHAR
STARTCHAR Ydieresis
ENCODING 376
SWIDTH 617 0
DWIDTH 12 0
BBX 13 17 0 0
BITMAP
1DC0
1DC0
1DC0
FCF8
7830
3820
1C60
1C40
0E80
0E80
0700
0700
0700
0700
0700
0700
1FC0
ENDCHAR
STARTCHAR Zacute
ENCODING 377
SWIDTH 614 0
DWIDTH 12 0
BBX 12 19 0 0
BITMAP
00C0
01C0
0300
0400
0000
7FF0
60E0
41E0
43C0
0380
0780
0F00
0F00
1E00
3C00
3C10
7830
F070
FFF0
ENDCHAR
STARTCHAR zacute
ENCODING 378
SWIDTH 483 0
DWIDTH 9 0
BBX 10 15 0 0
BITMAP
0180
0380
0600
0800
0000
7FC0
6380
4780
0F00
1E00
1C00
3C40
78C0
70C0
FF80
ENDCHAR
STARTCHAR Zdotaccent
ENCODING 379
SWIDTH 614 0
DWIDTH 12 0
BBX 12 18 0 0
BITMAP
0700
0700
0700
0000
7FF0
60E0
41E0
43C0
0380
0780
0F00
0F00
1E00
3C00
3C10
7830
F070
FFF0
ENDCHAR
STARTCHAR zdotaccent
ENCODING 380
SWIDTH 483 0
DWIDTH 9 0
BBX 10 14 0 0
BITMAP
0E00
0E00
0E00
0000
7FC0
6380
4780
0F00
1E00
1C00
3C40
78C0
70C0
FF80
ENDCHAR
STARTCHAR Zcaron
ENCODING 381
SWIDTH 614 0
DWIDTH 12 0
BBX 12 17 0 0
BITMAP
18C0
0F80
0200
7FF0
60E0
41E0
43C0
0380
0780
0F00
0F00
1E00
3C00
3C10
7830
F070
FFF0
ENDCHAR
STARTCHAR zcaron
ENCODING 382
SWIDTH 483 0
DWIDTH 9 0
BBX 10 15 0 0
BITMAP
0080
2180
1300
0E00
0400
7FC0
6380
4780
0F00
1E00
1C00
3C40
78C0
70C0
FF80
ENDCHAR
STARTCHAR uni0186
ENCODING 390
SWIDTH 689 0
DWIDTH 13 0
BBX 12 14 1 0
BITMAP
3F00
E1C0
C0E0
80E0
8070
0070
0070
0070
0070
0070
80E0
C0E0
E1C0
7F00
ENDCHAR
STARTCHAR uni0189
ENCODING 393
SWIDTH 783 0
DWIDTH 15 0
BBX 14 14 0 0
BITMAP
7FE0
3870
3838
3838
381C
381C
FF1C
381C
381C
381C
3838
3838
3870
7FC0
ENDCHAR
STARTCHAR uni018E
ENCODING 398
SWIDTH 629 0
DWIDTH 12 0
BBX 11 14 1 0
BITMAP
7FE0
61C0
41C0
C1C0
01C0
21C0
21C0
3FC0
21C0
21C0
41C0
41C0
61C0
7FE0
ENDCHAR
STARTCHAR florin
ENCODING 402
SWIDTH 560 0
DWIDTH 11 0
BBX 12 17 -1 -3
BITMAP
01C0
0370
0730
0700
0700
0F00
3FC0
0E00
0E00
0E00
0E00
0E00
0C00
0C00
5C00
F800
7000
ENDCHAR
STARTCHAR uni0197
ENCODING 407
SWIDTH 384 0
DWIDTH 7 0
BBX 5 14 1 0
BITMAP
F8
70
70
70
70
70
F8
70
70
70
70
70
70
F8
ENDCHAR
STARTCHAR uni019A
ENCODING 410
SWIDTH 309 0
DWIDTH 6 0
BBX 5 14 1 0
BITMAP
30
F0
70
70
70
70
F8
70
70
70
70
70
70
F8
ENDCHAR
STARTCHAR uni019D
ENCODING 413
SWIDTH 739 0
DWIDTH 14 0
BBX 13 18 0 -4
BITMAP
7878
3C10
3C10
3E10
2F10
2710
2790
23D0
21D0
21F0
38F0
3870
3870
3830
3800
3800
7000
C000
ENDCHAR
STARTCHAR uni019F
ENCODING 415
SWIDTH 768 0
DWIDTH 15 0
BBX 13 14 1 0
BITMAP
0F80
38E0
7070
6030
E038
E038
FFF8
E038
E038
E038
6030
7070
38E0
0F80
ENDCHAR
STARTCHAR Ohorn
ENCODING 416
SWIDTH 768 0
DWIDTH 15 0
BBX 15 14 1 0
BITMAP
0F84
38EE
7076
6034
E03C
E038
E038
E038
E038
E038
6030
7070
38E0
0F80
ENDCHAR
STARTCHAR ohorn
ENCODING 417
SWIDTH 585 0
DWIDTH 11 0
BBX 12 10 1 0
BITMAP
1E20
73F0
61B0
E1E0
E1E0
E1C0
E1C0
6180
7380
1E00
ENDCHAR
STARTCHAR uni01A7
ENCODING 423
SWIDTH 561 0
DWIDTH 11 0
BBX 9 14 1 0
BITMAP
7C00
C300
C380
8380
0780
0F80
3F00
7C00
F800
E080
E080
E180
6380
3E00
ENDCHAR
STARTCHAR uni01A8
ENCODING 424
SWIDTH 446 0
DWIDTH 9 0
BBX 8 10 0 0
BITMAP
78
CC
8E
1E
3C
F8
F1
E2
62
3C
ENDCHAR
STARTCHAR uni01AE
ENCODING 430
SWIDTH 624 0
DWIDTH 12 0
BBX 11 18 0 -4
BITMAP
FFE0
CE60
8E20
8E20
0E00
0E00
0E00
0E00
0E00
0E00
0E00
0E00
0E00
0E00
0E00
0E00
0700
0180
ENDCHAR
STARTCHAR Uhorn
ENCODING 431
SWIDTH 786 0
DWIDTH 15 0
BBX 15 14 1 0
BITMAP
F8FC
707E
7076
7074
7074
7078
7070
7070
7070
7070
7070
7070
38E0
0F80
ENDCHAR
STARTCHAR uhorn
ENCODING 432
SWIDTH 629 0
DWIDTH 12 0
BBX 13 10 1 0
BITMAP
30D0
F3F8
71D8
71D0
71D0
71E0
71C0
71C0
7FC0
19E0
ENDCHAR
STARTCHAR uni01B5
ENCODING 437
SWIDTH 614 0
DWIDTH 12 0
BBX 12 14 0 0
BITMAP
7FF0
60E0
41E0
43C0
0380
0780
0F80
0F00
1E00
3C00
3C10
7830
F070
FFF0
ENDCHAR
STARTCHAR uni01B6
ENCODING 438
SWIDTH 483 0
DWIDTH 9 0
BBX 10 10 0 0
BITMAP
7FC0
6380
4780
0F00
1F00
1C00
3C40
78C0
70C0
FF80
ENDCHAR
STARTCHAR uni01BB
ENCODING 443
SWIDTH 560 0
DWIDTH 11 0
BBX 11 13 0 0
BITMAP
1F00
3980
71C0
71C0
01C0
01C0
FFE0
0600
0C00
3800
7060
FFC0
FFC0
ENDCHAR
STARTCHAR uni01BC
ENCODING 444
SWIDTH 560 0
DWIDTH 11 0
BBX 9 13 1 0
BITMAP
7F80
7F00
4000
4000
4000
7E00
4700
0380
0380
4380
E380
6700
3E00
ENDCHAR
STARTCHAR uni01C0
ENCODING 448
SWIDTH 284 0
DWIDTH 6 0
BBX 2 14 2 0
BITMAP
C0
C0
C0
C0
C0
C0
C0
C0
C0
C0
C0
C0
C0
C0
ENDCHAR
STARTCHAR uni01C2
ENCODING 450
SWIDTH 600 0
DWIDTH 12 0
BBX 9 14 1 -2
BITMAP
0C00
0C00
0C00
0C00
FF80
FF80
0C00
0C00
FF80
FF80
0C00
0C00
0C00
0C00
ENDCHAR
STARTCHAR uni01C3
ENCODING 451
SWIDTH 278 0
DWIDTH 5 0
BBX 4 14 1 0
BITMAP
60
F0
F0
60
60
60
60
60
60
00
40
F0
F0
60
ENDCHAR
STARTCHAR uni01CD
ENCODING 461
SWIDTH 644 0
DWIDTH 13 0
BBX 13 19 0 0
BITMAP
1040
0D80
0700
0200
0000
0700
0700
0780
0B80
0B80
0B80
19C0
11C0
1FC0
30E0
20E0
20E0
60F0
F1F8
ENDCHAR
STARTCHAR uni01CE
ENCODING 462
SWIDTH 544 0
DWIDTH 11 0
BBX 10 15 1 0
BITMAP
4100
3600
1C00
0800
0000
1E00
6700
E700
4700
3F00
6700
E700
E700
7FC0
3300
ENDCHAR
STARTCHAR uni01CF
ENCODING 463
SWIDTH 384 0
DWIDTH 7 0
BBX 7 19 0 0
BITMAP
82
6C
38
10
00
7C
38
38
38
38
38
38
38
38
38
38
38
38
7C
ENDCHAR
STARTCHAR uni01D0
ENCODING 464
SWIDTH 316 0
DWIDTH 6 0
BBX 7 15 0 0
BITMAP
82
6C
38
10
00
18
78
38
38
38
38
38
38
38
7C
ENDCHAR
STARTCHAR uni01D1
ENCODING 465
SWIDTH 768 0
DWIDTH 15 0
BBX 13 19 1 0
BITMAP
1040
0D80
0700
0200
0000
0F80
38E0
7070
6030
E038
E038
E038
E038
E038
E038
6030
7070
38E0
0F80
ENDCHAR
STARTCHAR uni01D2
ENCODING 466
SWIDTH 585 0
DWIDTH 11 0
BBX 10 15 1 0
BITMAP
2080
1B00
0E00
0400
0000
1E00
7380
6180
E1C0
E1C0
E1C0
E1C0
6180
7380
1E00
ENDCHAR
STARTCHAR uni01D3
ENCODING 467
SWIDTH 786 0
DWIDTH 15 0
BBX 13 19 1 0
BITMAP
1040
0D80
0700
0200
0000
F8F8
7070
7070
7070
7070
7070
7070
7070
7070
7070
7070
7070
38E0
0F80
ENDCHAR
STARTCHAR uni01D4
ENCODING 468
SWIDTH 629 0
DWIDTH 12 0
BBX 11 15 1 0
BITMAP
2080
1B00
0E00
0400
0000
30C0
F3C0
71C0
71C0
71C0
71C0
71C0
71C0
7FC0
19E0
ENDCHAR
STARTCHAR uni01D5
ENCODING 469
SWIDTH 786 0
DWIDTH 15 0
BBX 13 20 1 0
BITMAP
0FC0
0FC0
0000
1CE0
1CE0
1CE0
F8F8
7070
7070
7070
7070
7070
7070
7070
7070
7070
7070
7070
38E0
0F80
ENDCHAR
STARTCHAR uni01D6
ENCODING 470
SWIDTH 629 0
DWIDTH 12 0
BBX 11 17 1 0
BITMAP
3F00
3F00
0000
7380
7380
7380
0000
30C0
F3C0
71C0
71C0
71C0
71C0
71C0
71C0
7FC0
19E0
ENDCHAR
STARTCHAR uni01D7
ENCODING 471
SWIDTH 786 0
DWIDTH 15 0
BBX 13 22 1 0
BITMAP
00C0
01C0
0300
0400
0000
1CE0
1CE0
1CE0
F8F8
7070
7070
7070
7070
7070
7070
7070
7070
7070
7070
7070
38E0
0F80
ENDCHAR
STARTCHAR uni01D8
ENCODING 472
SWIDTH 629 0
DWIDTH 12 0
BBX 11 19 1 0
BITMAP
0300
0700
0C00
1000
0000
7380
7380
7380
0000
30C0
F3C0
71C0
71C0
71C0
71C0
71C0
71C0
7FC0
19E0
ENDCHAR
STARTCHAR uni01D9
ENCODING 473
SWIDTH 786 0
DWIDTH 15 0
BBX 13 22 1 0
BITMAP
1040
0D80
0700
0200
0000
1CE0
1CE0
1CE0
F8F8
7070
7070
7070
7070
7070
7070
7070
7070
7070
7070
7070
38E0
0F80
ENDCHAR
STARTCHAR uni01DA
ENCODING 474
SWIDTH 629 0
DWIDTH 12 0
BBX 11 19 1 0
BITMAP
2080
1B00
0E00
0400
0000
7380
7380
7380
0000
30C0
F3C0
71C0
71C0
71C0
71C0
71C0
71C0
7FC0
19E0
ENDCHAR
STARTCHAR uni01DB
ENCODING 475
SWIDTH 786 0
DWIDTH 15 0
BBX 13 22 1 0
BITMAP
0C00
0E00
0300
0080
0000
1CE0
1CE0
1CE0
F8F8
7070
7070
7070
7070
7070
7070
7070
7070
7070
7070
7070
38E0
0F80
ENDCHAR
STARTCHAR uni01DC
ENCODING 476
SWIDTH 629 0
DWIDTH 12 0
BBX 11 19 1 0
BITMAP
3000
3800
0C00
0200
0000
7380
7380
7380
0000
30C0
F3C0
71C0
71C0
71C0
71C0
71C0
71C0
7FC0
19E0
ENDCHAR
STARTCHAR uni01DD
ENCODING 477
SWIDTH 519 0
DWIDTH 10 0
BBX 9 10 1 0
BITMAP
3E00
4700
8380
0380
0380
FF80
E380
E300
6700
3E00
ENDCHAR
STARTCHAR uni01DE
ENCODING 478
SWIDTH 644 0
DWIDTH 13 0
BBX 14 20 -1 0
BITMAP
0FC0
0FC0
0000
1CE0
1CE0
1CE0
0380
0780
0780
07C0
0DC0
09C0
09C0
18E0
1FE0
10E0
3070
2070
6078
F8FC
ENDCHAR
STARTCHAR uni01DF
ENCODING 479
SWIDTH 544 0
DWIDTH 11 0
BBX 10 17 1 0
BITMAP
3F00
3F00
0000
7700
7700
7700
0000
1E00
6700
E700
4700
3F00
6700
E700
E700
7FC0
3300
ENDCHAR
STARTCHAR uni01E0
ENCODING 480
SWIDTH 644 0
DWIDTH 13 0
BBX 13 21 0 0
BITMAP
0FC0
0FC0
0000
0700
0700
0700
0000
0700
0700
0780
0B80
0B80
0B80
19C0
11C0
1FC0
30E0
20E0
20E0
60F0
F1F8
ENDCHAR
STARTCHAR uni01E1
ENCODING 481
SWIDTH 544 0
DWIDTH 11 0
BBX 10 17 1 0
BITMAP
3F00
3F00
0000
1C00
1C00
1C00
0000
1E00
6700
E700
4700
3F00
6700
E700
E700
7FC0
3300
ENDCHAR
STARTCHAR uni01E2
ENCODING 482
SWIDTH 879 0
DWIDTH 17 0
BBX 18 17 -1 0
BITMAP
01F800
01F800
000000
07FF80
01E180
02E080
02E080
04E100
04E100
0FFF00
08E100
10E100
10E000
30E0C0
20E080
60E180
F9FF80
ENDCHAR
STARTCHAR uni01E3
ENCODING 483
SWIDTH 806 0
DWIDTH 16 0
BBX 14 13 1 0
BITMAP
0FC0
0FC0
0000
1CF0
6798
E71C
471C
1FFC
6700
E700
E704
E788
79F0
ENDCHAR
STARTCHAR uni01E4
ENCODING 484
SWIDTH 726 0
DWIDTH 14 0
BBX 14 14 1 0
BITMAP
07E0
3870
7030
7010
E000
E000
E000
E000
E1F8
E070
607C
7070
3870
0FC0
ENDCHAR
STARTCHAR uni01E5
ENCODING 485
SWIDTH 533 0
DWIDTH 10 0
BBX 10 14 0 -4
BITMAP
1EC0
33C0
7380
7380
7380
3300
3E00
6000
7F80
3FC0
FFC0
E0C0
7180
1F00
ENDCHAR
STARTCHAR Gcaron
ENCODING 486
SWIDTH 726 0
DWIDTH 14 0
BBX 13 19 1 0
BITMAP
1040
0D80
0700
0200
0000
07E0
3870
7030
7010
E000
E000
E000
E000
E1F8
E070
6070
7070
3870
0FC0
ENDCHAR
STARTCHAR gcaron
ENCODING 487
SWIDTH 533 0
DWIDTH 10 0
BBX 10 19 0 -4
BITMAP
2080
1B00
0E00
0400
0000
1EC0
33C0
7380
7380
7380
3300
3E00
6000
7F80
3FC0
60C0
E0C0
7180
1F00
ENDCHAR
STARTCHAR uni01E8
ENCODING 488
SWIDTH 707 0
DWIDTH 14 0
BBX 13 19 1 0
BITMAP
2080
1B00
0E00
0400
0000
FCF8
7060
70C0
7180
7300
7600
7F00
7F00
7780
77C0
73C0
71E0
70F0
F838
ENDCHAR
STARTCHAR uni01E9
ENCODING 489
SWIDTH 582 0
DWIDTH 11 0
BBX 11 19 1 0
BITMAP
8200
6C00
3800
1000
0000
3000
F000
7000
7000
71E0
7380
7600
7C00
7E00
7F00
7700
7380
73C0
F9E0
ENDCHAR
STARTCHAR uni01EA
ENCODING 490
SWIDTH 768 0
DWIDTH 15 0
BBX 13 19 1 -5
BITMAP
0F80
38E0
7070
6030
E038
E038
E038
E038
E038
E038
6030
7070
38E0
0F80
0300
0400
0C00
0C00
0700
ENDCHAR
STARTCHAR uni01EB
ENCODING 491
SWIDTH 585 0
DWIDTH 11 0
BBX 10 15 1 -5
BITMAP
1E00
7380
6180
E1C0
E1C0
E1C0
E1C0
6180
7380
1E00
0600
0800
1800
1800
0E00
ENDCHAR
STARTCHAR uni01EC
ENCODING 492
SWIDTH 768 0
DWIDTH 15 0
BBX 13 22 1 -5
BITMAP
0FC0
0FC0
0000
0F80
38E0
7070
6030
E038
E038
E038
E038
E038
E038
6030
7070
38E0
0F80
0300
0400
0C00
0C00
0700
ENDCHAR
STARTCHAR uni01ED
ENCODING 493
SWIDTH 585 0
DWIDTH 11 0
BBX 10 18 1 -5
BITMAP
3F00
3F00
0000
1E00
7380
6180
E1C0
E1C0
E1C0
E1C0
6180
7380
1E00
0600
0800
1800
1800
0E00
ENDCHAR
STARTCHAR uni01F0
ENCODING 496
SWIDTH 316 0
DWIDTH 6 0
BBX 7 19 0 -4
BITMAP
82
6C
38
10
00
18
78
38
38
38
38
38
38
38
38
38
38
70
C0
ENDCHAR
STARTCHAR uni01F4
ENCODING 500
SWIDTH 726 0
DWIDTH 14 0
BBX 13 19 1 0
BITMAP
00C0
01C0
0300
0400
0000
07E0
3870
7030
7010
E000
E000
E000
E000
E1F8
E070
6070
7070
3870
0FC0
ENDCHAR
STARTCHAR uni01F5
ENCODING 501
SWIDTH 533 0
DWIDTH 10 0
BBX 10 19 0 -4
BITMAP
0180
0380
0600
0800
0000
1EC0
33C0
7380
7380
7380
3300
3E00
6000
7F80
3FC0
60C0
E0C0
7180
1F00
ENDCHAR
STARTCHAR uni01F8
ENCODING 504
SWIDTH 739 0
DWIDTH 14 0
BBX 12 19 1 0
BITMAP
3000
3800
0C00
0200
0000
F0F0
7820
7820
7C20
5E20
4E20
4F20
47A0
43A0
43E0
41E0
40E0
40E0
F060
ENDCHAR
STARTCHAR uni01F9
ENCODING 505
SWIDTH 638 0
DWIDTH 12 0
BBX 11 15 1 0
BITMAP
3000
3800
0C00
0200
0000
3780
F9C0
71C0
71C0
71C0
71C0
71C0
71C0
71C0
FBE0
ENDCHAR
STARTCHAR Aringacute
ENCODING 506
SWIDTH 644 0
DWIDTH 13 0
BBX 14 22 -1 0
BITMAP
00C0
01C0
0300
0400
0000
0300
0480
0480
0780
0300
0780
0780
07C0
05C0
09C0
09E0
1FE0
10E0
3070
2070
6078
F8FC
ENDCHAR
STARTCHAR aringacute
ENCODING 507
SWIDTH 544 0
DWIDTH 11 0
BBX 10 20 1 0
BITMAP
0300
0700
0C00
1000
0000
1800
2400
2400
2400
1800
3E00
E700
E700
4F00
3700
E700
E700
E700
7FC0
3300
ENDCHAR
STARTCHAR AEacute
ENCODING 508
SWIDTH 879 0
DWIDTH 17 0
BBX 18 19 -1 0
BITMAP
001800
003800
006000
008000
000000
07FF80
01E180
02E080
02E080
04E100
04E100
0FFF00
08E100
10E100
10E000
30E0C0
20E080
60E180
F9FF80
ENDCHAR
STARTCHAR aeacute
ENCODING 509
SWIDTH 806 0
DWIDTH 16 0
BBX 14 15 1 0
BITMAP
00C0
01C0
0300
0400
0000
1CF0
6798
E71C
471C
1FFC
6700
E700
E704
E788
79F0
ENDCHAR
STARTCHAR Oslashacute
ENCODING 510
SWIDTH 768 0
DWIDTH 15 0
BBX 13 21 1 -1
BITMAP
00C0
01C0
0300
0400
0000
0020
0FA0
38E0
7070
60B0
E1B8
E138
E238
E638
E438
EC38
6830
7070
38E0
2F80
2000
ENDCHAR
STARTCHAR oslashacute
ENCODING 511
SWIDTH 585 0
DWIDTH 11 0
BBX 10 17 1 -1
BITMAP
0300
0700
0C00
1000
0000
0100
1F80
7300
6380
E5C0
E5C0
E9C0
F9C0
F180
7380
3E00
4000
ENDCHAR
STARTCHAR uni0200
ENCODING 512
SWIDTH 644 0
DWIDTH 13 0
BBX 13 19 0 0
BITMAP
1980
1980
0C80
0440
0000
0700
0700
0780
0B80
0B80
0B80
19C0
11C0
1FC0
30E0
20E0
20E0
60F0
F1F8
ENDCHAR
STARTCHAR uni0201
ENCODING 513
SWIDTH 544 0
DWIDTH 11 0
BBX 10 15 1 0
BITMAP
6600
6600
3200
1100
0000
1E00
6700
E700
4700
3F00
6700
E700
E700
7FC0
3300
ENDCHAR
STARTCHAR uni0202
ENCODING 514
SWIDTH 644 0
DWIDTH 13 0
BBX 13 18 0 0
BITMAP
0780
0F80
0840
0000
0700
0700
0780
0B80
0B80
0B80
19C0
11C0
1FC0
30E0
20E0
20E0
60F0
F1F8
ENDCHAR
STARTCHAR uni0203
ENCODING 515
SWIDTH 544 0
DWIDTH 11 0
BBX 10 14 1 0
BITMAP
1E00
3E00
2100
0000
1E00
6700
E700
4700
3F00
6700
E700
E700
7FC0
3300
ENDCHAR
STARTCHAR uni0204
ENCODING 516
SWIDTH 629 0
DWIDTH 12 0
BBX 11 19 1 0
BITMAP
6600
6600
3200
1100
0000
FFC0
70C0
7040
7040
7080
7080
7F80
7080
7080
7000
7060
7040
70C0
FFC0
ENDCHAR
STARTCHAR uni0205
ENCODING 517
SWIDTH 519 0
DWIDTH 10 0
BBX 9 15 1 0
BITMAP
6600
6600
3200
1100
0000
3E00
7300
6380
E380
FF80
E000
E000
E080
7100
3E00
ENDCHAR
STARTCHAR uni0206
ENCODING 518
SWIDTH 629 0
DWIDTH 12 0
BBX 11 18 1 0
BITMAP
1E00
3E00
2100
0000
FFC0
70C0
7040
7040
7080
7080
7F80
7080
7080
7000
7060
7040
70C0
FFC0
ENDCHAR
STARTCHAR uni0207
ENCODING 519
SWIDTH 519 0
DWIDTH 10 0
BBX 9 14 1 0
BITMAP
1E00
3E00
2100
0000
3E00
7300
6380
E380
FF80
E000
E000
E080
7100
3E00
ENDCHAR
STARTCHAR uni0208
ENCODING 520
SWIDTH 384 0
DWIDTH 7 0
BBX 7 19 0 0
BITMAP
CC
CC
64
22
00
7C
38
38
38
38
38
38
38
38
38
38
38
38
7C
ENDCHAR
STARTCHAR uni0209
ENCODING 521
SWIDTH 316 0
DWIDTH 6 0
BBX 7 15 0 0
BITMAP
CC
CC
64
22
00
18
78
38
38
38
38
38
38
38
7C
ENDCHAR
STARTCHAR uni020A
ENCODING 522
SWIDTH 384 0
DWIDTH 7 0
BBX 6 18 1 0
BITMAP
78
F8
84
00
F8
70
70
70
70
70
70
70
70
70
70
70
70
F8
ENDCHAR
STARTCHAR uni020B
ENCODING 523
SWIDTH 316 0
DWIDTH 6 0
BBX 6 14 0 0
BITMAP
78
F8
84
00
18
78
38
38
38
38
38
38
38
7C
ENDCHAR
STARTCHAR uni020C
ENCODING 524
SWIDTH 768 0
DWIDTH 15 0
BBX 13 19 1 0
BITMAP
1980
1980
0C80
0440
0000
0F80
38E0
7070
6030
E038
E038
E038
E038
E038
E038
6030
7070
38E0
0F80
ENDCHAR
STARTCHAR uni020D
ENCODING 525
SWIDTH 585 0
DWIDTH 11 0
BBX 10 15 1 0
BITMAP
6600
6600
3200
1100
0000
1E00
7380
6180
E1C0
E1C0
E1C0
E1C0
6180
7380
1E00
ENDCHAR
STARTCHAR uni020E
ENCODING 526
SWIDTH 768 0
DWIDTH 15 0
BBX 13 18 1 0
BITMAP
0780
0F80
0840
0000
0F80
38E0
7070
6030
E038
E038
E038
E038
E038
E038
6030
7070
38E0
0F80
ENDCHAR
STARTCHAR uni020F
ENCODING 527
SWIDTH 585 0
DWIDTH 11 0
BBX 10 14 1 0
BITMAP
1E00
3E00
2100
0000
1E00
7380
6180
E1C0
E1C0
E1C0
E1C0
6180
7380
1E00
ENDCHAR
STARTCHAR uni0210
ENCODING 528
SWIDTH 684 0
DWIDTH 13 0
BBX 12 19 1 0
BITMAP
3300
3300
1900
0880
0000
FF80
71C0
70E0
70E0
70E0
70E0
71C0
7F00
73C0
71C0
71C0
70E0
70E0
F870
ENDCHAR
STARTCHAR uni0211
ENCODING 529
SWIDTH 440 0
DWIDTH 9 0
BBX 8 15 1 0
BITMAP
CC
CC
64
22
00
36
FF
76
70
70
70
70
70
70
FC
ENDCHAR
STARTCHAR uni0212
ENCODING 530
SWIDTH 684 0
DWIDTH 13 0
BBX 12 18 1 0
BITMAP
0F00
1F00
1080
0000
FF80
71C0
70E0
70E0
70E0
70E0
71C0
7F00
73C0
71C0
71C0
70E0
70E0
F870
ENDCHAR
STARTCHAR uni0213
ENCODING 531
SWIDTH 440 0
DWIDTH 9 0
BBX 8 14 1 0
BITMAP
3C
7C
42
00
36
FF
76
70
70
70
70
70
70
FC
ENDCHAR
STARTCHAR uni0214
ENCODING 532
SWIDTH 786 0
DWIDTH 15 0
BBX 13 19 1 0
BITMAP
1980
1980
0C80
0440
0000
F8F8
7070
7070
7070
7070
7070
7070
7070
7070
7070
7070
7070
38E0
0F80
ENDCHAR
STARTCHAR uni0215
ENCODING 533
SWIDTH 629 0
DWIDTH 12 0
BBX 11 15 1 0
BITMAP
3300
3300
1900
0880
0000
30C0
F3C0
71C0
71C0
71C0
71C0
71C0
71C0
7FC0
19E0
ENDCHAR
STARTCHAR uni0216
ENCODING 534
SWIDTH 786 0
DWIDTH 15 0
BBX 13 18 1 0
BITMAP
0780
0F80
0840
0000
F8F8
7070
7070
7070
7070
7070
7070
7070
7070
7070
7070
7070
38E0
0F80
ENDCHAR
STARTCHAR uni0217
ENCODING 535
SWIDTH 629 0
DWIDTH 12 0
BBX 11 14 1 0
BITMAP
1E00
3E00
2100
0000
30C0
F3C0
71C0
71C0
71C0
71C0
71C0
71C0
7FC0
19E0
ENDCHAR
STARTCHAR Scommaaccent
ENCODING 536
SWIDTH 561 0
DWIDTH 11 0
BBX 9 22 1 -8
BITMAP
1F00
6180
E180
E080
F000
F800
7E00
1F00
0F80
8380
8380
C380
E300
3E00
0000
0800
1C00
0C00
0C00
0800
1800
1000
ENDCHAR
STARTCHAR scommaaccent
ENCODING 537
SWIDTH 446 0
DWIDTH 9 0
BBX 8 18 0 -8
BITMAP
1E
33
71
78
3C
1F
8F
47
46
3C
00
08
1C
0C
0C
08
18
10
ENDCHAR
STARTCHAR Tcommaaccent
ENCODING 538
SWIDTH 624 0
DWIDTH 12 0
BBX 11 22 0 -8
BITMAP
FFE0
CE60
8E20
8E20
0E00
0E00
0E00
0E00
0E00
0E00
0E00
0E00
0E00
3F80
0000
0400
0E00
0600
0600
0400
0C00
0800
ENDCHAR
STARTCHAR tcommaaccent
ENCODING 539
SWIDTH 370 0
DWIDTH 7 0
BBX 7 20 1 -8
BITMAP
30
30
FC
70
70
70
70
70
70
70
70
3E
00
10
38
18
18
10
30
20
ENDCHAR
STARTCHAR uni021E
ENCODING 542
SWIDTH 807 0
DWIDTH 16 0
BBX 13 19 1 0
BITMAP
1040
0D80
0700
0200
0000
F8F8
7070
7070
7070
7070
7070
7FF0
7070
7070
7070
7070
7070
7070
F8F8
ENDCHAR
STARTCHAR uni021F
ENCODING 543
SWIDTH 631 0
DWIDTH 12 0
BBX 11 19 1 0
BITMAP
8200
6C00
3800
1000
0000
3000
F000
7000
7000
7780
79C0
71C0
71C0
71C0
71C0
71C0
71C0
71C0
FBE0
ENDCHAR
STARTCHAR uni0226
ENCODING 550
SWIDTH 644 0
DWIDTH 13 0
BBX 13 18 0 0
BITMAP
0700
0700
0700
0000
0700
0700
0780
0B80
0B80
0B80
19C0
11C0
1FC0
30E0
20E0
20E0
60F0
F1F8
ENDCHAR
STARTCHAR uni0227
ENCODING 551
SWIDTH 544 0
DWIDTH 11 0
BBX 10 14 1 0
BITMAP
1C00
1C00
1C00
0000
1E00
6700
E700
4700
3F00
6700
E700
E700
7FC0
3300
ENDCHAR
STARTCHAR uni0228
ENCODING 552
SWIDTH 629 0
DWIDTH 12 0
BBX 11 19 1 -5
BITMAP
FFC0
70C0
7040
7040
7080
7080
7F80
7080
7080
7000
7060
7040
70C0
FFC0
0800
0E00
0600
0600
1C00
ENDCHAR
STARTCHAR uni0229
ENCODING 553
SWIDTH 519 0
DWIDTH 10 0
BBX 9 15 1 -5
BITMAP
3E00
7300
6380
E380
FF80
E000
E000
E080
7100
3E00
1000
1C00
0C00
0C00
3800
ENDCHAR
STARTCHAR uni022A
ENCODING 554
SWIDTH 768 0
DWIDTH 15 0
BBX 13 20 1 0
BITMAP
0FC0
0FC0
0000
1DC0
1DC0
1DC0
0F80
38E0
7070
6030
E038
E038
E038
E038
E038
E038
6030
7070
38E0
0F80
ENDCHAR
STARTCHAR uni022B
ENCODING 555
SWIDTH 585 0
DWIDTH 11 0
BBX 10 17 1 0
BITMAP
3F00
3F00
0000
7380
7380
7380
0000
1E00
7380
6180
E1C0
E1C0
E1C0
E1C0
6180
7380
1E00
ENDCHAR
STARTCHAR uni022C
ENCODING 556
SWIDTH 768 0
DWIDTH 15 0
BBX 13 20 1 0
BITMAP
0FC0
0FC0
0000
0C20
1FC0
1180
0F80
38E0
7070
6030
E038
E038
E038
E038
E038
E038
6030
7070
38E0
0F80
ENDCHAR
STARTCHAR uni022D
ENCODING 557
SWIDTH 585 0
DWIDTH 11 0
BBX 10 17 1 0
BITMAP
3F00
3F00
0000
3880
3F80
4300
0000
1E00
7380
6180
E1C0
E1C0
E1C0
E1C0
6180
7380
1E00
ENDCHAR
STARTCHAR uni022E
ENCODING 558
SWIDTH 768 0
DWIDTH 15 0
BBX 13 18 1 0
BITMAP
0700
0700
0700
0000
0F80
38E0
7070
6030
E038
E038
E038
E038
E038
E038
6030
7070
38E0
0F80
ENDCHAR
STARTCHAR uni022F
ENCODING 559
SWIDTH 585 0
DWIDTH 11 0
BBX 10 14 1 0
BITMAP
0E00
0E00
0E00
0000
1E00
7380
6180
E1C0
E1C0
E1C0
E1C0
6180
7380
1E00
ENDCHAR
STARTCHAR uni0230
ENCODING 560
SWIDTH 768 0
DWIDTH 15 0
BBX 13 21 1 0
BITMAP
0FC0
0FC0
0000
0700
0700
0700
0000
0F80
38E0
7070
6030
E038
E038
E038
E038
E038
E038
6030
7070
38E0
0F80
ENDCHAR
STARTCHAR uni0231
ENCODING 561
SWIDTH 585 0
DWIDTH 11 0
BBX 10 17 1 0
BITMAP
3F00
3F00
0000
0E00
0E00
0E00
0000
1E00
7380
6180
E1C0
E1C0
E1C0
E1C0
6180
7380
1E00
ENDCHAR
STARTCHAR uni0232
ENCODING 562
SWIDTH 617 0
DWIDTH 12 0
BBX 13 17 0 0
BITMAP
1F80
1F80
0000
FCF8
7830
3820
1C60
1C40
0E80
0E80
0700
0700
0700
0700
0700
0700
1FC0
ENDCHAR
STARTCHAR uni0233
ENCODING 563
SWIDTH 524 0
DWIDTH 10 0
BBX 11 17 0 -4
BITMAP
3F00
3F00
0000
F9E0
70C0
3080
3980
3900
1D00
1F00
1E00
0E00
0C00
0C00
2800
7800
3000
ENDCHAR
STARTCHAR uni0250
ENCODING 592
SWIDTH 544 0
DWIDTH 11 0
BBX 10 10 1 0
BITMAP
3300
FF80
39C0
39C0
3980
3F00
3880
39C0
3980
1E00
ENDCHAR
STARTCHAR uni0254
ENCODING 596
SWIDTH 494 0
DWIDTH 10 0
BBX 9 10 1 0
BITMAP
3C00
7700
6300
2380
0380
0380
0380
8380
4700
3E00
ENDCHAR
STARTCHAR uni0258
ENCODING 600
SWIDTH 519 0
DWIDTH 10 0
BBX 9 10 1 0
BITMAP
3E00
6700
E300
E380
FF80
0380
0380
8380
4700
3E00
ENDCHAR
STARTCHAR uni0259
ENCODING 601
SWIDTH 519 0
DWIDTH 10 0
BBX 9 10 1 0
BITMAP
3E00
4700
8380
0380
0380
FF80
E380
E300
6700
3E00
ENDCHAR
STARTCHAR uni025F
ENCODING 607
SWIDTH 342 0
DWIDTH 7 0
BBX 7 14 1 -4
BITMAP
3E
1C
1C
1C
1C
1C
1C
1C
1C
7E
1C
9C
D8
70
ENDCHAR
STARTCHAR uni0265
ENCODING 613
SWIDTH 631 0
DWIDTH 12 0
BBX 11 14 1 -4
BITMAP
FBE0
71C0
71C0
71C0
71C0
71C0
71C0
71C0
73C0
3DC0
01C0
01C0
01E0
0180
ENDCHAR
STARTCHAR uni0275
ENCODING 629
SWIDTH 585 0
DWIDTH 11 0
BBX 10 10 1 0
BITMAP
1E00
7380
6180
E1C0
FFC0
E1C0
E1C0
6180
7380
1E00
ENDCHAR
STARTCHAR uni0279
ENCODING 633
SWIDTH 440 0
DWIDTH 9 0
BBX 8 10 1 0
BITMAP
3F
0E
0E
0E
0E
0E
0E
6E
FF
6C
ENDCHAR
STARTCHAR uni0287
ENCODING 647
SWIDTH 370 0
DWIDTH 7 0
BBX 7 12 1 0
BITMAP
F8
1C
1C
1C
1C
1C
1C
1C
1C
7E
18
18
ENDCHAR
STARTCHAR uni0288
ENCODING 648
SWIDTH 370 0
DWIDTH 7 0
BBX 6 16 1 -4
BITMAP
30
30
FC
70
70
70
70
70
70
70
70
70
70
70
38
0C
ENDCHAR
STARTCHAR uni0289
ENCODING 649
SWIDTH 629 0
DWIDTH 12 0
BBX 11 10 1 0
BITMAP
30C0
F3C0
71C0
71C0
FFE0
71C0
71C0
71C0
7FC0
19E0
ENDCHAR
STARTCHAR uni028C
ENCODING 652
SWIDTH 520 0
DWIDTH 10 0
BBX 11 10 0 0
BITMAP
0E00
0E00
0F00
1F00
1700
1380
3380
2380
61C0
F3E0
ENDCHAR
STARTCHAR uni028D
ENCODING 653
SWIDTH 774 0
DWIDTH 15 0
BBX 16 10 0 0
BITMAP
0C30
0E38
1E78
1678
1758
37DC
279C
239C
638E
F39F
ENDCHAR
STARTCHAR uni028E
ENCODING 654
SWIDTH 524 0
DWIDTH 10 0
BBX 11 14 0 0
BITMAP
0180
03C0
0280
0600
0600
0E00
0F00
1F00
1700
1380
3380
2180
61C0
F3E0
ENDCHAR
STARTCHAR uni029E
ENCODING 670
SWIDTH 582 0
DWIDTH 11 0
BBX 11 14 1 -4
BITMAP
F3E0
79C0
39C0
1DC0
1FC0
0FC0
07C0
0DC0
39C0
F1C0
01C0
01C0
01E0
0180
ENDCHAR
STARTCHAR uni02BB
ENCODING 699
SWIDTH 252 0
DWIDTH 5 0
BBX 3 6 1 8
BITMAP
20
40
40
C0
E0
40
ENDCHAR
STARTCHAR afii57929
ENCODING 700
SWIDTH 252 0
DWIDTH 5 0
BBX 3 6 1 8
BITMAP
40
E0
60
40
40
80
ENDCHAR
STARTCHAR afii64937
ENCODING 701
SWIDTH 252 0
DWIDTH 5 0
BBX 3 6 1 8
BITMAP
40
E0
C0
40
40
20
ENDCHAR
STARTCHAR circumflex
ENCODING 710
SWIDTH 430 0
DWIDTH 8 0
BBX 7 4 1 10
BITMAP
10
38
6C
82
ENDCHAR
STARTCHAR caron
ENCODING 711
SWIDTH 430 0
DWIDTH 8 0
BBX 7 4 1 10
BITMAP
82
6C
38
10
ENDCHAR
STARTCHAR uni02C8
ENCODING 712
SWIDTH 252 0
DWIDTH 5 0
BBX 3 6 1 8
BITMAP
E0
E0
E0
40
40
40
ENDCHAR
STARTCHAR macron
ENCODING 713
SWIDTH 430 0
DWIDTH 8 0
BBX 6 2 1 11
BITMAP
FC
FC
ENDCHAR
STARTCHAR uni02CA
ENCODING 714
SWIDTH 430 0
DWIDTH 8 0
BBX 5 4 2 10
BITMAP
18
38
60
80
ENDCHAR
STARTCHAR uni02CB
ENCODING 715
SWIDTH 430 0
DWIDTH 8 0
BBX 5 4 1 10
BITMAP
C0
E0
30
08
ENDCHAR
STARTCHAR uni02CD
ENCODING 717
SWIDTH 430 0
DWIDTH 8 0
BBX 6 2 1 -3
BITMAP
FC
FC
ENDCHAR
STARTCHAR uni02CE
ENCODING 718
SWIDTH 430 0
DWIDTH 8 0
BBX 5 4 1 -5
BITMAP
C0
E0
30
08
ENDCHAR
STARTCHAR uni02CF
ENCODING 719
SWIDTH 430 0
DWIDTH 8 0
BBX 5 4 2 -5
BITMAP
18
38
60
80
ENDCHAR
STARTCHAR breve
ENCODING 728
SWIDTH 430 0
DWIDTH 8 0
BBX 6 3 1 11
BITMAP
84
F8
78
ENDCHAR
STARTCHAR dotaccent
ENCODING 729
SWIDTH 430 0
DWIDTH 8 0
BBX 3 3 3 11
BITMAP
E0
E0
E0
ENDCHAR
STARTCHAR ring
ENCODING 730
SWIDTH 430 0
DWIDTH 8 0
BBX 4 5 2 10
BITMAP
60
90
90
90
60
ENDCHAR
STARTCHAR ogonek
ENCODING 731
SWIDTH 430 0
DWIDTH 8 0
BBX 4 5 2 -5
BITMAP
30
40
C0
C0
70
ENDCHAR
STARTCHAR tilde
ENCODING 732
SWIDTH 430 0
DWIDTH 8 0
BBX 8 3 0 11
BITMAP
21
7E
84
ENDCHAR
STARTCHAR hungarumlaut
ENCODING 733
SWIDTH 430 0
DWIDTH 8 0
BBX 7 4 1 10
BITMAP
66
66
4C
88
ENDCHAR
STARTCHAR uni02EE
ENCODING 750
SWIDTH 473 0
DWIDTH 9 0
BBX 8 6 1 8
BITMAP
66
67
77
62
46
8C
ENDCHAR
STARTCHAR uni037E
ENCODING 894
SWIDTH 280 0
DWIDTH 5 0
BBX 4 13 1 -3
BITMAP
60
F0
70
60
00
00
40
E0
60
60
40
40
80
ENDCHAR
STARTCHAR tonos
ENCODING 900
SWIDTH 430 0
DWIDTH 8 0
BBX 5 4 2 10
BITMAP
18
38
60
80
ENDCHAR
STARTCHAR dieresistonos
ENCODING 901
SWIDTH 430 0
DWIDTH 8 0
BBX 8 8 0 11
BITMAP
06
0E
18
20
00
66
E7
66
ENDCHAR
STARTCHAR anoteleia
ENCODING 903
SWIDTH 280 0
DWIDTH 5 0
BBX 4 4 1 3
BITMAP
60
F0
F0
60
ENDCHAR
STARTCHAR mu
ENCODING 956
SWIDTH 629 0
DWIDTH 12 0
BBX 11 14 1 -4
BITMAP
30C0
F3C0
71C0
71C0
71C0
71C0
71C0
71C0
7FC0
69E0
6000
6000
7000
4000
ENDCHAR
STARTCHAR uni1E00
ENCODING 7680
SWIDTH 644 0
DWIDTH 13 0
BBX 13 20 0 -6
BITMAP
0700
0700
0780
0B80
0B80
0B80
19C0
11C0
1FC0
30E0
20E0
20E0
60F0
F1F8
0000
0300
0480
0480
0480
0300
ENDCHAR
STARTCHAR uni1E01
ENCODING 7681
SWIDTH 544 0
DWIDTH 11 0
BBX 10 16 1 -6
BITMAP
1E00
6700
E700
4700
3F00
6700
E700
E700
7FC0
3300
0000
0C00
1200
1200
1200
0C00
ENDCHAR
STARTCHAR uni1E02
ENCODING 7682
SWIDTH 683 0
DWIDTH 13 0
BBX 11 18 1 0
BITMAP
0E00
0E00
0E00
0000
FF80
71C0
70E0
70E0
70E0
71C0
7F00
7180
70C0
70E0
70E0
70E0
71C0
FF80
ENDCHAR
STARTCHAR uni1E03
ENCODING 7683
SWIDTH 605 0
DWIDTH 12 0
BBX 11 18 0 0
BITMAP
3800
3800
3800
0000
3000
F000
7000
7000
7780
79C0
70E0
70E0
70E0
70E0
70E0
70C0
71C0
4F00
ENDCHAR
STARTCHAR uni1E04
ENCODING 7684
SWIDTH 683 0
DWIDTH 13 0
BBX 11 18 1 -4
BITMAP
FF80
71C0
70E0
70E0
70E0
71C0
7F00
7180
70C0
70E0
70E0
70E0
71C0
FF80
0000
0E00
0E00
0E00
ENDCHAR
STARTCHAR uni1E05
ENCODING 7685
SWIDTH 605 0
DWIDTH 12 0
BBX 11 18 0 -4
BITMAP
3000
F000
7000
7000
7780
79C0
70E0
70E0
70E0
70E0
70E0
70C0
71C0
4F00
0000
0E00
0E00
0E00
ENDCHAR
STARTCHAR uni1E06
ENCODING 7686
SWIDTH 683 0
DWIDTH 13 0
BBX 11 17 1 -3
BITMAP
FF80
71C0
70E0
70E0
70E0
71C0
7F00
7180
70C0
70E0
70E0
70E0
71C0
FF80
0000
3F00
3F00
ENDCHAR
STARTCHAR uni1E07
ENCODING 7687
SWIDTH 605 0
DWIDTH 12 0
BBX 11 17 0 -3
BITMAP
3000
F000
7000
7000
7780
79C0
70E0
70E0
70E0
70E0
70E0
70C0
71C0
4F00
0000
3F00
3F00
ENDCHAR
STARTCHAR uni1E08
ENCODING 7688
SWIDTH 689 0
DWIDTH 13 0
BBX 12 24 1 -5
BITMAP
0180
0380
0600
0800
0000
0FE0
3870
7030
7010
E000
E000
E000
E000
E000
E010
7010
7030
3C70
0FC0
0200
0780
0180
0180
0700
ENDCHAR
STARTCHAR uni1E09
ENCODING 7689
SWIDTH 494 0
DWIDTH 10 0
BBX 8 20 1 -5
BITMAP
06
0E
18
20
00
1C
77
67
E2
E0
E0
E0
E1
71
3E
10
1C
0C
0C
18
ENDCHAR
STARTCHAR uni1E0A
ENCODING 7690
SWIDTH 777 0
DWIDTH 15 0
BBX 13 18 1 0
BITMAP
0700
0700
0700
0000
FFC0
70E0
7070
7070
7038
7038
7038
7038
7038
7030
7070
7070
70E0
FF80
ENDCHAR
STARTCHAR uni1E0B
ENCODING 7691
SWIDTH 605 0
DWIDTH 12 0
BBX 10 18 1 0
BITMAP
0700
0700
0700
0000
0180
0780
0380
0380
1F80
7380
6380
E380
E380
E380
E380
E380
7380
3FC0
ENDCHAR
STARTCHAR uni1E0C
ENCODING 7692
SWIDTH 777 0
DWIDTH 15 0
BBX 13 18 1 -4
BITMAP
FFC0
70E0
7070
7070
7038
7038
7038
7038
7038
7030
7070
7070
70E0
FF80
0000
0E00
0E00
0E00
ENDCHAR
STARTCHAR uni1E0D
ENCODING 7693
SWIDTH 605 0
DWIDTH 12 0
BBX 10 18 1 -4
BITMAP
0180
0780
0380
0380
1F80
7380
6380
E380
E380
E380
E380
E380
7380
3FC0
0000
0E00
0E00
0E00
ENDCHAR
STARTCHAR uni1E0E
ENCODING 7694
SWIDTH 777 0
DWIDTH 15 0
BBX 13 17 1 -3
BITMAP
FFC0
70E0
7070
7070
7038
7038
7038
7038
7038
7030
7070
7070
70E0
FF80
0000
1F80
1F80
ENDCHAR
STARTCHAR uni1E0F
ENCODING 7695
SWIDTH 605 0
DWIDTH 12 0
BBX 10 17 1 -3
BITMAP
0180
0780
0380
0380
1F80
7380
6380
E380
E380
E380
E380
E380
7380
3FC0
0000
3F00
3F00
ENDCHAR
STARTCHAR uni1E10
ENCODING 7696
SWIDTH 777 0
DWIDTH 15 0
BBX 13 19 1 -5
BITMAP
FFC0
70E0
7070
7070
7038
7038
7038
7038
7038
7030
7070
7070
70E0
FF80
0400
0700
0300
0300
0E00
ENDCHAR
STARTCHAR uni1E11
ENCODING 7697
SWIDTH 605 0
DWIDTH 12 0
BBX 10 19 1 -5
BITMAP
0180
0780
0380
0380
1F80
7380
6380
E380
E380
E380
E380
E380
7380
3FC0
0800
0E00
0600
0600
1C00
ENDCHAR
STARTCHAR uni1E12
ENCODING 7698
SWIDTH 777 0
DWIDTH 15 0
BBX 13 19 1 -5
BITMAP
FFC0
70E0
7070
7070
7038
7038
7038
7038
7038
7030
7070
7070
70E0
FF80
0000
0400
0E00
1B00
2080
ENDCHAR
STARTCHAR uni1E13
ENCODING 7699
SWIDTH 605 0
DWIDTH 12 0
BBX 10 19 1 -5
BITMAP
0180
0780
0380
0380
1F80
7380
6380
E380
E380
E380
E380
E380
7380
3FC0
0000
0400
0E00
1B00
2080
ENDCHAR
STARTCHAR uni1E14
ENCODING 7700
SWIDTH 629 0
DWIDTH 12 0
BBX 11 22 1 0
BITMAP
3000
3800
0C00
0200
0000
3F00
3F00
0000
FFC0
70C0
7040
7040
7080
7080
7F80
7080
7080
7000
7060
7040
70C0
FFC0
ENDCHAR
STARTCHAR uni1E15
ENCODING 7701
SWIDTH 519 0
DWIDTH 10 0
BBX 9 18 1 0
BITMAP
3000
3800
0C00
0200
0000
3F00
3F00
0000
3E00
7300
6380
E380
FF80
E000
E000
E080
7100
3E00
ENDCHAR
STARTCHAR uni1E16
ENCODING 7702
SWIDTH 629 0
DWIDTH 12 0
BBX 11 22 1 0
BITMAP
0300
0700
0C00
1000
0000
3F00
3F00
0000
FFC0
70C0
7040
7040
7080
7080
7F80
7080
7080
7000
7060
7040
70C0
FFC0
ENDCHAR
STARTCHAR uni1E17
ENCODING 7703
SWIDTH 519 0
DWIDTH 10 0
BBX 9 18 1 0
BITMAP
0300
0700
0C00
1000
0000
3F00
3F00
0000
3E00
7300
6380
E380
FF80
E000
E000
E080
7100
3E00
ENDCHAR
STARTCHAR uni1E18
ENCODING 7704
SWIDTH 629 0
DWIDTH 12 0
BBX 11 19 1 -5
BITMAP
FFC0
70C0
7040
7040
7080
7080
7F80
7080
7080
7000
7060
7040
70C0
FFC0
0000
0400
0E00
1B00
2080
ENDCHAR
STARTCHAR uni1E19
ENCODING 7705
SWIDTH 519 0
DWIDTH 10 0
BBX 9 15 1 -5
BITMAP
3E00
7300
6380
E380
FF80
E000
E000
E080
7100
3E00
0000
0800
1C00
3600
4100
ENDCHAR
STARTCHAR uni1E1A
ENCODING 7706
SWIDTH 629 0
DWIDTH 12 0
BBX 11 18 1 -4
BITMAP
FFC0
70C0
7040
7040
7080
7080
7F80
7080
7080
7000
7060
7040
70C0
FFC0
0000
1080
3F00
4200
ENDCHAR
STARTCHAR uni1E1B
ENCODING 7707
SWIDTH 519 0
DWIDTH 10 0
BBX 10 14 0 -4
BITMAP
1F00
3980
31C0
71C0
7FC0
7000
7000
7040
3880
1F00
0000
2100
7E00
8400
ENDCHAR
STARTCHAR uni1E1C
ENCODING 7708
SWIDTH 629 0
DWIDTH 12 0
BBX 11 23 1 -5
BITMAP
2100
3E00
1E00
0000
FFC0
70C0
7040
7040
7080
7080
7F80
7080
7080
7000
7060
7040
70C0
FFC0
0800
0E00
0600
0600
1C00
ENDCHAR
STARTCHAR uni1E1D
ENCODING 7709
SWIDTH 519 0
DWIDTH 10 0
BBX 9 19 1 -5
BITMAP
2100
3E00
1E00
0000
3E00
7300
6380
E380
FF80
E000
E000
E080
7100
3E00
1000
1C00
0C00
0C00
3800
ENDCHAR
STARTCHAR uni1E1E
ENCODING 7710
SWIDTH 593 0
DWIDTH 12 0
BBX 10 18 1 0
BITMAP
1C00
1C00
1C00
0000
FFC0
70C0
7040
7040
7000
7080
7080
7F80
7080
7080
7000
7000
7000
FC00
ENDCHAR
STARTCHAR uni1E1F
ENCODING 7711
SWIDTH 342 0
DWIDTH 7 0
BBX 7 18 1 0
BITMAP
38
38
38
00
1C
36
72
70
FC
70
70
70
70
70
70
70
70
F8
ENDCHAR
STARTCHAR uni1E20
ENCODING 7712
SWIDTH 726 0
DWIDTH 14 0
BBX 13 17 1 0
BITMAP
0FC0
0FC0
0000
07E0
3870
7030
7010
E000
E000
E000
E000
E1F8
E070
6070
7070
3870
0FC0
ENDCHAR
STARTCHAR uni1E21
ENCODING 7713
SWIDTH 533 0
DWIDTH 10 0
BBX 10 17 0 -4
BITMAP
3F00
3F00
0000
1EC0
33C0
7380
7380
7380
3300
3E00
6000
7F80
3FC0
60C0
E0C0
7180
1F00
ENDCHAR
STARTCHAR uni1E22
ENCODING 7714
SWIDTH 807 0
DWIDTH 16 0
BBX 13 18 1 0
BITMAP
0700
0700
0700
0000
F8F8
7070
7070
7070
7070
7070
7FF0
7070
7070
7070
7070
7070
7070
F8F8
ENDCHAR
STARTCHAR uni1E23
ENCODING 7715
SWIDTH 631 0
DWIDTH 12 0
BBX 11 18 1 0
BITMAP
3800
3800
3800
0000
3000
F000
7000
7000
7780
79C0
71C0
71C0
71C0
71C0
71C0
71C0
71C0
FBE0
ENDCHAR
STARTCHAR uni1E24
ENCODING 7716
SWIDTH 807 0
DWIDTH 16 0
BBX 13 18 1 -4
BITMAP
F8F8
7070
7070
7070
7070
7070
7FF0
7070
7070
7070
7070
7070
7070
F8F8
0000
0700
0700
0700
ENDCHAR
STARTCHAR uni1E25
ENCODING 7717
SWIDTH 631 0
DWIDTH 12 0
BBX 11 18 1 -4
BITMAP
3000
F000
7000
7000
7780
79C0
71C0
71C0
71C0
71C0
71C0
71C0
71C0
FBE0
0000
0E00
0E00
0E00
ENDCHAR
STARTCHAR uni1E26
ENCODING 7718
SWIDTH 807 0
DWIDTH 16 0
BBX 13 18 1 0
BITMAP
0CC0
1CE0
0CC0
0000
F8F8
7070
7070
7070
7070
7070
7FF0
7070
7070
7070
7070
7070
7070
F8F8
ENDCHAR
STARTCHAR uni1E27
ENCODING 7719
SWIDTH 631 0
DWIDTH 12 0
BBX 12 18 0 0
BITMAP
6600
E700
6600
0000
1800
7800
3800
3800
3BC0
3CE0
38E0
38E0
38E0
38E0
38E0
38E0
38E0
7DF0
ENDCHAR
STARTCHAR uni1E28
ENCODING 7720
SWIDTH 807 0
DWIDTH 16 0
BBX 13 19 1 -5
BITMAP
F8F8
7070
7070
7070
7070
7070
7FF0
7070
7070
7070
7070
7070
7070
F9F8
0200
0380
0180
0180
0700
ENDCHAR
STARTCHAR uni1E29
ENCODING 7721
SWIDTH 631 0
DWIDTH 12 0
BBX 11 19 1 -5
BITMAP
3000
F000
7000
7000
7780
79C0
71C0
71C0
71C0
71C0
71C0
71C0
71C0
FBE0
0400
0700
0300
0300
0E00
ENDCHAR
STARTCHAR uni1E2A
ENCODING 7722
SWIDTH 807 0
DWIDTH 16 0
BBX 13 18 1 -4
BITMAP
F8F8
7070
7070
7070
7070
7070
7FF0
7070
7070
7070
7070
7070
7070
F8F8
0000
0840
0F80
0780
ENDCHAR
STARTCHAR uni1E2B
ENCODING 7723
SWIDTH 631 0
DWIDTH 12 0
BBX 11 18 1 -4
BITMAP
3000
F000
7000
7000
7780
79C0
71C0
71C0
71C0
71C0
71C0
71C0
71C0
FBE0
0000
1080
1F00
0F00
ENDCHAR
STARTCHAR uni1E2C
ENCODING 7724
SWIDTH 384 0
DWIDTH 7 0
BBX 8 18 -1 -4
BITMAP
3E
1C
1C
1C
1C
1C
1C
1C
1C
1C
1C
1C
1C
3E
00
21
7E
84
ENDCHAR
STARTCHAR uni1E2D
ENCODING 7725
SWIDTH 316 0
DWIDTH 6 0
BBX 8 18 -1 -4
BITMAP
18
1C
1C
00
0C
3C
1C
1C
1C
1C
1C
1C
1C
3E
00
21
7E
84
ENDCHAR
STARTCHAR uni1E2E
ENCODING 7726
SWIDTH 384 0
DWIDTH 7 0
BBX 8 22 0 0
BITMAP
06
0E
18
20
00
E7
E7
E7
7C
38
38
38
38
38
38
38
38
38
38
38
38
7C
ENDCHAR
STARTCHAR uni1E2F
ENCODING 7727
SWIDTH 316 0
DWIDTH 6 0
BBX 8 19 -1 0
BITMAP
06
0E
18
20
00
E7
E7
E7
00
0C
3C
1C
1C
1C
1C
1C
1C
1C
3E
ENDCHAR
STARTCHAR uni1E30
ENCODING 7728
SWIDTH 707 0
DWIDTH 14 0
BBX 13 19 1 0
BITMAP
0180
0380
0600
0800
0000
FCF8
7060
70C0
7180
7300
7600
7F00
7F00
7780
77C0
73C0
71E0
70F0
F838
ENDCHAR
STARTCHAR uni1E31
ENCODING 7729
SWIDTH 582 0
DWIDTH 11 0
BBX 11 19 1 0
BITMAP
0600
0E00
1800
2000
0000
3000
F000
7000
7000
71E0
7380
7600
7C00
7E00
7F00
7700
7380
73C0
F9E0
ENDCHAR
STARTCHAR uni1E32
ENCODING 7730
SWIDTH 707 0
DWIDTH 14 0
BBX 13 18 1 -4
BITMAP
FCF8
7060
70C0
7180
7300
7600
7F00
7F00
7780
77C0
73C0
71E0
70F0
F838
0000
0700
0700
0700
ENDCHAR
STARTCHAR uni1E33
ENCODING 7731
SWIDTH 582 0
DWIDTH 11 0
BBX 11 18 1 -4
BITMAP
3000
F000
7000
7000
71E0
7380
7600
7C00
7E00
7F00
7700
7380
73C0
F9E0
0000
0E00
0E00
0E00
ENDCHAR
STARTCHAR uni1E34
ENCODING 7732
SWIDTH 707 0
DWIDTH 14 0
BBX 13 17 1 -3
BITMAP
FCF8
7060
70C0
7180
7300
7600
7F00
7F00
7780
77C0
73C0
71E0
70F0
F838
0000
1F80
1F80
ENDCHAR
STARTCHAR uni1E35
ENCODING 7733
SWIDTH 582 0
DWIDTH 11 0
BBX 11 17 1 -3
BITMAP
3000
F000
7000
7000
71E0
7380
7600
7C00
7E00
7F00
7700
7380
73C0
F9E0
0000
3F00
3F00
ENDCHAR
STARTCHAR uni1E36
ENCODING 7734
SWIDTH 585 0
DWIDTH 11 0
BBX 10 18 1 -4
BITMAP
FC00
7000
7000
7000
7000
7000
7000
7000
7000
7000
7040
7040
70C0
FFC0
0000
1C00
1C00
1C00
ENDCHAR
STARTCHAR uni1E37
ENCODING 7735
SWIDTH 309 0
DWIDTH 6 0
BBX 5 18 1 -4
BITMAP
30
F0
70
70
70
70
70
70
70
70
70
70
70
F8
00
70
70
70
ENDCHAR
STARTCHAR uni1E38
ENCODING 7736
SWIDTH 585 0
DWIDTH 11 0
BBX 10 21 1 -4
BITMAP
FC00
FC00
0000
FC00
7000
7000
7000
7000
7000
7000
7000
7000
7000
7040
7040
70C0
FFC0
0000
1C00
1C00
1C00
ENDCHAR
STARTCHAR uni1E39
ENCODING 7737
SWIDTH 309 0
DWIDTH 6 0
BBX 6 21 0 -4
BITMAP
FC
FC
00
18
78
38
38
38
38
38
38
38
38
38
38
38
7C
00
38
38
38
ENDCHAR
STARTCHAR uni1E3A
ENCODING 7738
SWIDTH 585 0
DWIDTH 11 0
BBX 10 17 1 -3
BITMAP
FC00
7000
7000
7000
7000
7000
7000
7000
7000
7000
7040
7040
70C0
FFC0
0000
3F00
3F00
ENDCHAR
STARTCHAR uni1E3B
ENCODING 7739
SWIDTH 309 0
DWIDTH 6 0
BBX 6 17 1 -3
BITMAP
30
F0
70
70
70
70
70
70
70
70
70
70
70
F8
00
FC
FC
ENDCHAR
STARTCHAR uni1E3C
ENCODING 7740
SWIDTH 585 0
DWIDTH 11 0
BBX 10 19 1 -5
BITMAP
FC00
7000
7000
7000
7000
7000
7000
7000
7000
7000
7040
7040
70C0
FFC0
0000
0800
1C00
3600
4100
ENDCHAR
STARTCHAR uni1E3D
ENCODING 7741
SWIDTH 309 0
DWIDTH 6 0
BBX 7 19 0 -5
BITMAP
18
78
38
38
38
38
38
38
38
38
38
38
38
7C
00
10
38
6C
82
ENDCHAR
STARTCHAR uni1E3E
ENCODING 7742
SWIDTH 918 0
DWIDTH 18 0
BBX 16 19 1 0
BITMAP
0060
00E0
0180
0200
0000
F81F
781E
781E
5C2E
5C2E
5E6E
4E4E
4E4E
4FCE
478E
478E
430E
430E
F33F
ENDCHAR
STARTCHAR uni1E3F
ENCODING 7743
SWIDTH 948 0
DWIDTH 18 0
BBX 17 15 1 0
BITMAP
006000
00E000
018000
020000
000000
379E00
F9E700
71C700
71C700
71C700
71C700
71C700
71C700
71C700
FBEF80
ENDCHAR
STARTCHAR uni1E40
ENCODING 7744
SWIDTH 918 0
DWIDTH 18 0
BBX 16 18 1 0
BITMAP
01C0
01C0
01C0
0000
F81F
781E
781E
5C2E
5C2E
5E6E
4E4E
4E4E
4FCE
478E
478E
430E
430E
F33F
ENDCHAR
STARTCHAR uni1E41
ENCODING 7745
SWIDTH 948 0
DWIDTH 18 0
BBX 17 14 1 0
BITMAP
01C000
01C000
01C000
000000
379E00
F9E700
71C700
71C700
71C700
71C700
71C700
71C700
71C700
FBEF80
ENDCHAR
STARTCHAR uni1E42
ENCODING 7746
SWIDTH 918 0
DWIDTH 18 0
BBX 16 18 1 -4
BITMAP
F81F
781E
781E
5C2E
5C2E
5E6E
4E4E
4E4E
4FCE
478E
478E
430E
430E
F33F
0000
01C0
01C0
01C0
ENDCHAR
STARTCHAR uni1E43
ENCODING 7747
SWIDTH 948 0
DWIDTH 18 0
BBX 17 14 1 -4
BITMAP
379E00
F9E700
71C700
71C700
71C700
71C700
71C700
71C700
71C700
FBEF80
000000
01C000
01C000
01C000
ENDCHAR
STARTCHAR uni1E44
ENCODING 7748
SWIDTH 739 0
DWIDTH 14 0
BBX 12 18 1 0
BITMAP
0E00
0E00
0E00
0000
F0F0
7820
7820
7C20
5E20
4E20
4F20
47A0
43A0
43E0
41E0
40E0
40E0
F060
ENDCHAR
STARTCHAR uni1E45
ENCODING 7749
SWIDTH 638 0
DWIDTH 12 0
BBX 11 14 1 0
BITMAP
0E00
0E00
0E00
0000
3780
F9C0
71C0
71C0
71C0
71C0
71C0
71C0
71C0
FBE0
ENDCHAR
STARTCHAR uni1E46
ENCODING 7750
SWIDTH 739 0
DWIDTH 14 0
BBX 12 18 1 -4
BITMAP
F0F0
7820
7820
7C20
5E20
4E20
4F20
47A0
43A0
43E0
41E0
40E0
40E0
F060
0000
0700
0700
0700
ENDCHAR
STARTCHAR uni1E47
ENCODING 7751
SWIDTH 638 0
DWIDTH 12 0
BBX 11 14 1 -4
BITMAP
3780
F9C0
71C0
71C0
71C0
71C0
71C0
71C0
71C0
FBE0
0000
0E00
0E00
0E00
ENDCHAR
STARTCHAR uni1E48
ENCODING 7752
SWIDTH 739 0
DWIDTH 14 0
BBX 12 17 1 -3
BITMAP
F0F0
7820
7820
7C20
5E20
4E20
4F20
47A0
43A0
43E0
41E0
40E0
40E0
F060
0000
1F80
1F80
ENDCHAR
STARTCHAR uni1E49
ENCODING 7753
SWIDTH 638 0
DWIDTH 12 0
BBX 11 13 1 -3
BITMAP
3780
F9C0
71C0
71C0
71C0
71C0
71C0
71C0
71C0
FBE0
0000
1F80
1F80
ENDCHAR
STARTCHAR uni1E4A
ENCODING 7754
SWIDTH 739 0
DWIDTH 14 0
BBX 12 19 1 -5
BITMAP
F0F0
7820
7820
7C20
5E20
4E20
4F20
47A0
43A0
43E0
41E0
40E0
40E0
F060
0000
0200
0700
0D80
1040
ENDCHAR
STARTCHAR uni1E4B
ENCODING 7755
SWIDTH 638 0
DWIDTH 12 0
BBX 11 15 1 -5
BITMAP
3780
F9C0
71C0
71C0
71C0
71C0
71C0
71C0
71C0
FBE0
0000
0400
0E00
1B00
2080
ENDCHAR
STARTCHAR uni1E4C
ENCODING 7756
SWIDTH 768 0
DWIDTH 15 0
BBX 13 22 1 0
BITMAP
00C0
01C0
0300
0400
0000
0C20
1FC0
1180
0F80
38E0
7070
6030
E038
E038
E038
E038
E038
E038
6030
7070
38E0
0F80
ENDCHAR
STARTCHAR uni1E4D
ENCODING 7757
SWIDTH 585 0
DWIDTH 11 0
BBX 10 19 1 0
BITMAP
0300
0700
0C00
1000
0000
3880
3F80
4300
0000
1E00
7380
6180
E1C0
E1C0
E1C0
E1C0
6180
7380
1E00
ENDCHAR
STARTCHAR uni1E4E
ENCODING 7758
SWIDTH 768 0
DWIDTH 15 0
BBX 13 21 1 0
BITMAP
0CC0
1CE0
0CC0
0000
0C20
1FC0
1180
0F80
38E0
7070
6030
E038
E038
E038
E038
E038
E038
6030
7070
38E0
0F80
ENDCHAR
STARTCHAR uni1E4F
ENCODING 7759
SWIDTH 585 0
DWIDTH 11 0
BBX 10 18 1 0
BITMAP
3300
7380
3300
0000
3880
3F80
4300
0000
1E00
7380
6180
E1C0
E1C0
E1C0
E1C0
6180
7380
1E00
ENDCHAR
STARTCHAR uni1E50
ENCODING 7760
SWIDTH 768 0
DWIDTH 15 0
BBX 13 22 1 0
BITMAP
0C00
0E00
0300
0080
0000
0FC0
0FC0
0000
0F80
38E0
7070
6030
E038
E038
E038
E038
E038
E038
6030
7070
38E0
0F80
ENDCHAR
STARTCHAR uni1E51
ENCODING 7761
SWIDTH 585 0
DWIDTH 11 0
BBX 10 18 1 0
BITMAP
3000
3800
0C00
0200
0000
3F00
3F00
0000
1E00
7380
6180
E1C0
E1C0
E1C0
E1C0
6180
7380
1E00
ENDCHAR
STARTCHAR uni1E52
ENCODING 7762
SWIDTH 768 0
DWIDTH 15 0
BBX 13 22 1 0
BITMAP
00C0
01C0
0300
0400
0000
0FC0
0FC0
0000
0F80
38E0
7070
6030
E038
E038
E038
E038
E038
E038
6030
7070
38E0
0F80
ENDCHAR
STARTCHAR uni1E53
ENCODING 7763
SWIDTH 585 0
DWIDTH 11 0
BBX 10 18 1 0
BITMAP
0300
0700
0C00
1000
0000
3F00
3F00
0000
1E00
7380
6180
E1C0
E1C0
E1C0
E1C0
6180
7380
1E00
ENDCHAR
STARTCHAR uni1E54
ENCODING 7764
SWIDTH 650 0
DWIDTH 13 0
BBX 11 19 1 0
BITMAP
0180
0380
0600
0800
0000
FF80
71C0
70E0
70E0
70E0
70E0
70E0
71C0
7F00
7000
7000
7000
7000
FC00
ENDCHAR
STARTCHAR uni1E55
ENCODING 7765
SWIDTH 615 0
DWIDTH 12 0
BBX 10 19 1 -4
BITMAP
0300
0700
0C00
1000
0000
6F00
F380
71C0
71C0
71C0
71C0
71C0
7180
7380
7E00
7000
7000
7000
FC00
ENDCHAR
STARTCHAR uni1E56
ENCODING 7766
SWIDTH 650 0
DWIDTH 13 0
BBX 11 18 1 0
BITMAP
0E00
0E00
0E00
0000
FF80
71C0
70E0
70E0
70E0
70E0
70E0
71C0
7F00
7000
7000
7000
7000
FC00
ENDCHAR
STARTCHAR uni1E57
ENCODING 7767
SWIDTH 615 0
DWIDTH 12 0
BBX 10 18 1 -4
BITMAP
1C00
1C00
1C00
0000
6F00
F380
71C0
71C0
71C0
71C0
71C0
7180
7380
7E00
7000
7000
7000
FC00
ENDCHAR
STARTCHAR uni1E58
ENCODING 7768
SWIDTH 684 0
DWIDTH 13 0
BBX 12 18 1 0
BITMAP
0E00
0E00
0E00
0000
FF80
71C0
70E0
70E0
70E0
70E0
71C0
7F00
73C0
71C0
71C0
70E0
70E0
F870
ENDCHAR
STARTCHAR uni1E59
ENCODING 7769
SWIDTH 440 0
DWIDTH 9 0
BBX 8 14 1 0
BITMAP
1C
1C
1C
00
36
FF
76
70
70
70
70
70
70
FC
ENDCHAR
STARTCHAR uni1E5A
ENCODING 7770
SWIDTH 684 0
DWIDTH 13 0
BBX 12 18 1 -4
BITMAP
FF80
71C0
70E0
70E0
70E0
70E0
71C0
7F00
73C0
71C0
71C0
70E0
70E0
F870
0000
0E00
0E00
0E00
ENDCHAR
STARTCHAR uni1E5B
ENCODING 7771
SWIDTH 440 0
DWIDTH 9 0
BBX 8 14 1 -4
BITMAP
36
FF
76
70
70
70
70
70
70
FC
00
38
38
38
ENDCHAR
STARTCHAR uni1E5C
ENCODING 7772
SWIDTH 684 0
DWIDTH 13 0
BBX 12 21 1 -4
BITMAP
1F80
1F80
0000
FF80
71C0
70E0
70E0
70E0
70E0
71C0
7F00
73C0
71C0
71C0
70E0
70E0
F870
0000
0E00
0E00
0E00
ENDCHAR
STARTCHAR uni1E5D
ENCODING 7773
SWIDTH 440 0
DWIDTH 9 0
BBX 8 17 1 -4
BITMAP
7E
7E
00
36
FF
76
70
70
70
70
70
70
FC
00
38
38
38
ENDCHAR
STARTCHAR uni1E5E
ENCODING 7774
SWIDTH 684 0
DWIDTH 13 0
BBX 12 17 1 -3
BITMAP
FF80
71C0
70E0
70E0
70E0
70E0
71C0
7F00
73C0
71C0
71C0
70E0
70E0
F870
0000
1F80
1F80
ENDCHAR
STARTCHAR uni1E5F
ENCODING 7775
SWIDTH 440 0
DWIDTH 9 0
BBX 8 13 1 -3
BITMAP
36
FF
76
70
70
70
70
70
70
FC
00
FC
FC
ENDCHAR
STARTCHAR uni1E60
ENCODING 7776
SWIDTH 561 0
DWIDTH 11 0
BBX 9 18 1 0
BITMAP
1C00
1C00
1C00
0000
1F00
6180
E180
E080
F000
F800
7E00
1F00
0F80
8380
8380
C380
E300
3E00
ENDCHAR
STARTCHAR uni1E61
ENCODING 7777
SWIDTH 446 0
DWIDTH 9 0
BBX 8 14 0 0
BITMAP
1C
1C
1C
00
1E
33
71
78
3C
1F
8F
47
46
3C
ENDCHAR
STARTCHAR uni1E62
ENCODING 7778
SWIDTH 561 0
DWIDTH 11 0
BBX 9 18 1 -4
BITMAP
1F00
6180
E180
E080
F000
F800
7E00
1F00
0F80
8380
8380
C380
E300
3E00
0000
1C00
1C00
1C00
ENDCHAR
STARTCHAR uni1E63
ENCODING 7779
SWIDTH 446 0
DWIDTH 9 0
BBX 8 14 0 -4
BITMAP
1E
33
71
78
3C
1F
8F
47
46
3C
00
1C
1C
1C
ENDCHAR
STARTCHAR uni1E64
ENCODING 7780
SWIDTH 561 0
DWIDTH 11 0
BBX 9 23 1 0
BITMAP
0E00
0E00
0E00
0000
0300
0700
0C00
1000
0000
1F00
6180
E180
E080
F000
F800
7E00
1F00
0F80
8380
8380
C380
E300
3E00
ENDCHAR
STARTCHAR uni1E65
ENCODING 7781
SWIDTH 446 0
DWIDTH 9 0
BBX 8 19 0 0
BITMAP
0E
0E
0E
00
03
07
0C
10
00
1E
33
71
78
3C
1F
8F
47
46
3C
ENDCHAR
STARTCHAR uni1E66
ENCODING 7782
SWIDTH 561 0
DWIDTH 11 0
BBX 9 21 1 0
BITMAP
1C00
1C00
1C00
0000
6300
1E00
0C00
1F00
6180
E180
E080
F000
F800
7E00
1F00
0F80
8380
8380
C380
E300
3E00
ENDCHAR
STARTCHAR uni1E67
ENCODING 7783
SWIDTH 446 0
DWIDTH 9 0
BBX 8 18 0 0
BITMAP
1C
1C
1C
00
C3
66
3C
18
1E
33
71
78
3C
1F
8F
47
46
3C
ENDCHAR
STARTCHAR uni1E68
ENCODING 7784
SWIDTH 561 0
DWIDTH 11 0
BBX 9 22 1 -4
BITMAP
1C00
1C00
1C00
0000
1F00
6180
E180
E080
F000
F800
7E00
1F00
0F80
8380
8380
C380
E300
3E00
0000
1C00
1C00
1C00
ENDCHAR
STARTCHAR uni1E69
ENCODING 7785
SWIDTH 446 0
DWIDTH 9 0
BBX 8 18 0 -4
BITMAP
1C
1C
1C
00
1E
33
71
78
3C
1F
8F
47
46
3C
00
1C
1C
1C
ENDCHAR
STARTCHAR uni1E6A
ENCODING 7786
SWIDTH 624 0
DWIDTH 12 0
BBX 11 18 0 0
BITMAP
0E00
0E00
0E00
0000
FFE0
CE60
8E20
8E20
0E00
0E00
0E00
0E00
0E00
0E00
0E00
0E00
0E00
3F80
ENDCHAR
STARTCHAR uni1E6B
ENCODING 7787
SWIDTH 370 0
DWIDTH 7 0
BBX 7 16 1 0
BITMAP
38
38
38
00
30
30
FC
70
70
70
70
70
70
70
70
3E
ENDCHAR
STARTCHAR uni1E6C
ENCODING 7788
SWIDTH 624 0
DWIDTH 12 0
BBX 11 18 0 -4
BITMAP
FFE0
CE60
8E20
8E20
0E00
0E00
0E00
0E00
0E00
0E00
0E00
0E00
0E00
3F80
0000
0E00
0E00
0E00
ENDCHAR
STARTCHAR uni1E6D
ENCODING 7789
SWIDTH 370 0
DWIDTH 7 0
BBX 7 16 1 -4
BITMAP
30
30
FC
70
70
70
70
70
70
70
70
3E
00
38
38
38
ENDCHAR
STARTCHAR uni1E6E
ENCODING 7790
SWIDTH 624 0
DWIDTH 12 0
BBX 11 17 0 -3
BITMAP
FFE0
CE60
8E20
8E20
0E00
0E00
0E00
0E00
0E00
0E00
0E00
0E00
0E00
3F80
0000
1F80
1F80
ENDCHAR
STARTCHAR uni1E6F
ENCODING 7791
SWIDTH 370 0
DWIDTH 7 0
BBX 7 15 1 -3
BITMAP
30
30
FC
70
70
70
70
70
70
70
70
3E
00
FC
FC
ENDCHAR
STARTCHAR uni1E70
ENCODING 7792
SWIDTH 624 0
DWIDTH 12 0
BBX 11 19 0 -5
BITMAP
FFE0
CE60
8E20
8E20
0E00
0E00
0E00
0E00
0E00
0E00
0E00
0E00
0E00
3F80
0000
0400
0E00
1B00
2080
ENDCHAR
STARTCHAR uni1E71
ENCODING 7793
SWIDTH 370 0
DWIDTH 7 0
BBX 7 17 1 -5
BITMAP
30
30
FC
70
70
70
70
70
70
70
70
3E
00
10
38
6C
82
ENDCHAR
STARTCHAR uni1E72
ENCODING 7794
SWIDTH 786 0
DWIDTH 15 0
BBX 13 18 1 -4
BITMAP
F8F8
7070
7070
7070
7070
7070
7070
7070
7070
7070
7070
7070
38E0
0F80
0000
0CC0
1CE0
0CC0
ENDCHAR
STARTCHAR uni1E73
ENCODING 7795
SWIDTH 629 0
DWIDTH 12 0
BBX 11 14 1 -4
BITMAP
30C0
F3C0
71C0
71C0
71C0
71C0
71C0
71C0
7FC0
19E0
0000
1980
39C0
1980
ENDCHAR
STARTCHAR uni1E74
ENCODING 7796
SWIDTH 786 0
DWIDTH 15 0
BBX 13 18 1 -4
BITMAP
F8F8
7070
7070
7070
7070
7070
7070
7070
7070
7070
7070
7070
38E0
0F80
0000
0840
1F80
2100
ENDCHAR
STARTCHAR uni1E75
ENCODING 7797
SWIDTH 629 0
DWIDTH 12 0
BBX 11 14 1 -4
BITMAP
30C0
F3C0
71C0
71C0
71C0
71C0
71C0
71C0
7FC0
19E0
0000
1080
3F00
4200
ENDCHAR
STARTCHAR uni1E76
ENCODING 7798
SWIDTH 786 0
DWIDTH 15 0
BBX 13 19 1 -5
BITMAP
F8F8
7070
7070
7070
7070
7070
7070
7070
7070
7070
7070
7070
38E0
0F80
0000
0200
0700
0D80
1040
ENDCHAR
STARTCHAR uni1E77
ENCODING 7799
SWIDTH 629 0
DWIDTH 12 0
BBX 11 15 1 -5
BITMAP
30C0
F3C0
71C0
71C0
71C0
71C0
71C0
71C0
7FC0
19E0
0000
0400
0E00
1B00
2080
ENDCHAR
STARTCHAR uni1E78
ENCODING 7800
SWIDTH 786 0
DWIDTH 15 0
BBX 13 23 1 0
BITMAP
00C0
01C0
0300
0400
0000
0420
0FC0
1080
0000
F8F8
7070
7070
7070
7070
7070
7070
7070
7070
7070
7070
7070
38E0
0F80
ENDCHAR
STARTCHAR uni1E79
ENCODING 7801
SWIDTH 629 0
DWIDTH 12 0
BBX 11 19 1 0
BITMAP
0180
0380
0600
0800
0000
0840
1F80
2100
0000
30C0
F3C0
71C0
71C0
71C0
71C0
71C0
71C0
7FC0
19E0
ENDCHAR
STARTCHAR uni1E7A
ENCODING 7802
SWIDTH 786 0
DWIDTH 15 0
BBX 13 21 1 0
BITMAP
0CC0
1CE0
0CC0
0000
0FC0
0FC0
0000
F8F8
7070
7070
7070
7070
7070
7070
7070
7070
7070
7070
7070
38E0
0F80
ENDCHAR
STARTCHAR uni1E7B
ENCODING 7803
SWIDTH 629 0
DWIDTH 12 0
BBX 11 17 1 0
BITMAP
3300
7380
3300
0000
3F00
3F00
0000
30C0
F3C0
71C0
71C0
71C0
71C0
71C0
71C0
7FC0
19E0
ENDCHAR
STARTCHAR uni1E7C
ENCODING 7804
SWIDTH 645 0
DWIDTH 13 0
BBX 14 18 -1 0
BITMAP
0420
0FC0
1080
0000
FC7C
7818
3830
3830
1C20
1C20
1C60
0E40
0E40
0EC0
0F80
0780
0780
0700
ENDCHAR
STARTCHAR uni1E7D
ENCODING 7805
SWIDTH 520 0
DWIDTH 10 0
BBX 11 14 0 0
BITMAP
0840
1F80
2100
0000
F9E0
70C0
3880
3980
3900
1D00
1F00
1E00
0E00
0E00
ENDCHAR
STARTCHAR uni1E7E
ENCODING 7806
SWIDTH 645 0
DWIDTH 13 0
BBX 14 18 -1 -4
BITMAP
FC7C
7818
3830
3830
1C20
1C20
1C60
0E40
0E40
0EC0
0F80
0780
0780
0700
0000
0700
0700
0700
ENDCHAR
STARTCHAR uni1E7F
ENCODING 7807
SWIDTH 520 0
DWIDTH 10 0
BBX 11 14 0 -4
BITMAP
F9E0
70C0
3880
3980
3900
1D00
1F00
1E00
0E00
0E00
0000
0E00
0E00
0E00
ENDCHAR
STARTCHAR Wgrave
ENCODING 7808
SWIDTH 933 0
DWIDTH 18 0
BBX 19 19 0 0
BITMAP
030000
038000
00C000
002000
000000
F803E0
7060C0
70E080
30F080
38F080
38F180
39B900
193900
1D3900
1D3A00
1D1E00
0E1E00
0E1E00
0E0C00
ENDCHAR
STARTCHAR wgrave
ENCODING 7809
SWIDTH 774 0
DWIDTH 15 0
BBX 16 15 0 0
BITMAP
0600
0700
0180
0040
0000
F9CF
71C6
39C4
39E4
3BEC
1AE8
1E68
1E78
1C70
0C30
ENDCHAR
STARTCHAR Wacute
ENCODING 7810
SWIDTH 933 0
DWIDTH 18 0
BBX 19 19 0 0
BITMAP
003000
007000
00C000
010000
000000
F803E0
7060C0
70E080
30F080
38F080
38F180
39B900
193900
1D3900
1D3A00
1D1E00
0E1E00
0E1E00
0E0C00
ENDCHAR
STARTCHAR wacute
ENCODING 7811
SWIDTH 774 0
DWIDTH 15 0
BBX 16 15 0 0
BITMAP
0060
00E0
0180
0200
0000
F9CF
71C6
39C4
39E4
3BEC
1AE8
1E68
1E78
1C70
0C30
ENDCHAR
STARTCHAR Wdieresis
ENCODING 7812
SWIDTH 933 0
DWIDTH 18 0
BBX 19 18 0 0
BITMAP
033000
073800
033000
000000
F803E0
7060C0
70E080
30F080
38F080
38F180
39B900
193900
1D3900
1D3A00
1D1E00
0E1E00
0E1E00
0E0C00
ENDCHAR
STARTCHAR wdieresis
ENCODING 7813
SWIDTH 774 0
DWIDTH 15 0
BBX 16 14 0 0
BITMAP
0660
0E70
0660
0000
F9CF
71C6
39C4
39E4
3BEC
1AE8
1E68
1E78
1C70
0C30
ENDCHAR
STARTCHAR uni1E86
ENCODING 7814
SWIDTH 933 0
DWIDTH 18 0
BBX 19 18 0 0
BITMAP
00E000
00E000
00E000
000000
F803E0
7060C0
70E080
30F080
38F080
38F180
39B900
193900
1D3900
1D3A00
1D1E00
0E1E00
0E1E00
0E0C00
ENDCHAR
STARTCHAR uni1E87
ENCODING 7815
SWIDTH 774 0
DWIDTH 15 0
BBX 16 14 0 0
BITMAP
0380
0380
0380
0000
F9CF
71C6
39C4
39E4
3BEC
1AE8
1E68
1E78
1C70
0C30
ENDCHAR
STARTCHAR uni1E88
ENCODING 7816
SWIDTH 933 0
DWIDTH 18 0
BBX 19 18 0 -4
BITMAP
F803E0
7060C0
70E080
30F080
38F080
38F180
39B900
193900
1D3900
1D3A00
1D1E00
0E1E00
0E1E00
0E0C00
000000
00E000
00E000
00E000
ENDCHAR
STARTCHAR uni1E89
ENCODING 7817
SWIDTH 774 0
DWIDTH 15 0
BBX 16 14 0 -4
BITMAP
F9CF
71C6
39C4
39E4
3BEC
1AE8
1E68
1E78
1C70
0C30
0000
0380
0380
0380
ENDCHAR
STARTCHAR uni1E8A
ENCODING 7818
SWIDTH 634 0
DWIDTH 12 0
BBX 14 18 -1 0
BITMAP
0700
0700
0700
0000
7E78
3C30
1C60
0E40
0F80
0780
0380
0380
07C0
05E0
0CE0
18F0
3878
FCFC
ENDCHAR
STARTCHAR uni1E8B
ENCODING 7819
SWIDTH 522 0
DWIDTH 10 0
BBX 10 14 0 0
BITMAP
1C00
1C00
1C00
0000
FBC0
7100
3A00
1E00
1C00
0E00
1600
3700
6380
F7C0
ENDCHAR
STARTCHAR uni1E8C
ENCODING 7820
SWIDTH 634 0
DWIDTH 12 0
BBX 14 18 -1 0
BITMAP
0CC0
1CE0
0CC0
0000
7E78
3C30
1C60
0E40
0F80
0780
0380
0380
07C0
05E0
0CE0
18F0
3878
FCFC
ENDCHAR
STARTCHAR uni1E8D
ENCODING 7821
SWIDTH 522 0
DWIDTH 10 0
BBX 10 14 0 0
BITMAP
3300
7380
3300
0000
FBC0
7100
3A00
1E00
1C00
0E00
1600
3700
6380
F7C0
ENDCHAR
STARTCHAR uni1E8E
ENCODING 7822
SWIDTH 617 0
DWIDTH 12 0
BBX 13 18 0 0
BITMAP
0700
0700
0700
0000
FCF8
7830
3820
1C60
1C40
0E80
0E80
0700
0700
0700
0700
0700
0700
1FC0
ENDCHAR
STARTCHAR uni1E8F
ENCODING 7823
SWIDTH 524 0
DWIDTH 10 0
BBX 11 18 0 -4
BITMAP
0E00
0E00
0E00
0000
F9E0
70C0
3080
3980
3900
1D00
1F00
1E00
0E00
0C00
0C00
2800
7800
3000
ENDCHAR
STARTCHAR uni1E90
ENCODING 7824
SWIDTH 614 0
DWIDTH 12 0
BBX 12 19 0 0
BITMAP
0200
0700
0D80
1040
0000
7FF0
60E0
41E0
43C0
0380
0780
0F00
0F00
1E00
3C00
3C10
7830
F070
FFF0
ENDCHAR
STARTCHAR uni1E91
ENCODING 7825
SWIDTH 483 0
DWIDTH 9 0
BBX 10 15 0 0
BITMAP
0400
0E00
1B00
2080
0000
7FC0
6380
4780
0F00
1E00
1C00
3C40
78C0
70C0
FF80
ENDCHAR
STARTCHAR uni1E92
ENCODING 7826
SWIDTH 614 0
DWIDTH 12 0
BBX 12 18 0 -4
BITMAP
7FF0
60E0
41E0
43C0
0380
0780
0F00
0F00
1E00
3C00
3C10
7830
F070
FFF0
0000
0E00
0E00
0E00
ENDCHAR
STARTCHAR uni1E93
ENCODING 7827
SWIDTH 483 0
DWIDTH 9 0
BBX 10 14 0 -4
BITMAP
7FC0
6380
4780
0F00
1E00
1C00
3C40
78C0
70C0
FF80
0000
1C00
1C00
1C00
ENDCHAR
STARTCHAR uni1E94
ENCODING 7828
SWIDTH 614 0
DWIDTH 12 0
BBX 12 17 0 -3
BITMAP
7FF0
60E0
41E0
43C0
0380
0780
0F00
0F00
1E00
3C00
3C10
7830
F070
FFF0
0000
1F80
1F80
ENDCHAR
STARTCHAR uni1E95
ENCODING 7829
SWIDTH 483 0
DWIDTH 9 0
BBX 10 13 0 -3
BITMAP
7FC0
6380
4780
0F00
1E00
1C00
3C40
78C0
70C0
FF80
0000
3F00
3F00
ENDCHAR
STARTCHAR uni1E96
ENCODING 7830
SWIDTH 631 0
DWIDTH 12 0
BBX 11 17 1 -3
BITMAP
3000
F000
7000
7000
7780
79C0
71C0
71C0
71C0
71C0
71C0
71C0
71C0
FBE0
0000
1F80
1F80
ENDCHAR
STARTCHAR uni1E97
ENCODING 7831
SWIDTH 370 0
DWIDTH 7 0
BBX 8 16 0 0
BITMAP
66
E7
66
00
18
18
7E
38
38
38
38
38
38
38
38
1F
ENDCHAR
STARTCHAR uni1E98
ENCODING 7832
SWIDTH 774 0
DWIDTH 15 0
BBX 16 16 0 0
BITMAP
0180
0240
0240
0240
0180
0000
F9CF
71C6
39C4
39E4
3BEC
1AE8
1E68
1E78
1C70
0C30
ENDCHAR
STARTCHAR uni1E99
ENCODING 7833
SWIDTH 524 0
DWIDTH 10 0
BBX 11 20 0 -4
BITMAP
0C00
1200
1200
1200
0C00
0000
F9E0
70C0
3080
3980
3900
1D00
1F00
1E00
0E00
0C00
0C00
2800
7800
3000
ENDCHAR
STARTCHAR uni1EA0
ENCODING 7840
SWIDTH 644 0
DWIDTH 13 0
BBX 13 18 0 -4
BITMAP
0700
0700
0780
0B80
0B80
0B80
19C0
11C0
1FC0
30E0
20E0
20E0
60F0
F1F8
0000
0380
0380
0380
ENDCHAR
STARTCHAR uni1EA1
ENCODING 7841
SWIDTH 544 0
DWIDTH 11 0
BBX 10 14 1 -4
BITMAP
1E00
6700
E700
4700
3F00
6700
E700
E700
7FC0
3300
0000
1C00
1C00
1C00
ENDCHAR
STARTCHAR uni1EA4
ENCODING 7844
SWIDTH 644 0
DWIDTH 13 0
BBX 13 23 0 0
BITMAP
00C0
01C0
0300
0400
0000
0300
0780
08C0
1000
0700
0700
0780
0B80
0B80
0B80
19C0
11C0
1FC0
30E0
20E0
20E0
60F0
F1F8
ENDCHAR
STARTCHAR uni1EA5
ENCODING 7845
SWIDTH 544 0
DWIDTH 11 0
BBX 10 19 1 0
BITMAP
0300
0700
0C00
1000
0000
0800
1C00
2600
4100
1E00
6700
E700
4700
3F00
6700
E700
E700
7FC0
3300
ENDCHAR
STARTCHAR uni1EA6
ENCODING 7846
SWIDTH 644 0
DWIDTH 13 0
BBX 13 23 0 0
BITMAP
1800
1C00
0600
0100
0000
0300
0780
08C0
1000
0700
0700
0780
0B80
0B80
0B80
19C0
11C0
1FC0
30E0
20E0
20E0
60F0
F1F8
ENDCHAR
STARTCHAR uni1EA7
ENCODING 7847
SWIDTH 544 0
DWIDTH 11 0
BBX 10 19 1 0
BITMAP
3000
3800
0C00
0200
0000
0800
1C00
2600
4100
1E00
6700
E700
4700
3F00
6700
E700
E700
7FC0
3300
ENDCHAR
STARTCHAR uni1EAA
ENCODING 7850
SWIDTH 644 0
DWIDTH 13 0
BBX 13 22 0 0
BITMAP
0420
0FC0
1080
0000
0300
0780
08C0
1000
0700
0700
0780
0B80
0B80
0B80
19C0
11C0
1FC0
30E0
20E0
20E0
60F0
F1F8
ENDCHAR
STARTCHAR uni1EAB
ENCODING 7851
SWIDTH 544 0
DWIDTH 11 0
BBX 10 18 1 0
BITMAP
1080
3F00
4200
0000
0800
1C00
2600
4100
1E00
6700
E700
4700
3F00
6700
E700
E700
7FC0
3300
ENDCHAR
STARTCHAR uni1EAC
ENCODING 7852
SWIDTH 644 0
DWIDTH 13 0
BBX 13 23 0 -4
BITMAP
0200
0700
0D80
1040
0000
0700
0700
0780
0B80
0B80
0B80
19C0
11C0
1FC0
30E0
20E0
20E0
60F0
F1F8
0000
0380
0380
0380
ENDCHAR
STARTCHAR uni1EAD
ENCODING 7853
SWIDTH 544 0
DWIDTH 11 0
BBX 10 19 1 -4
BITMAP
0800
1C00
3600
4100
0000
1E00
6700
E700
4700
3F00
6700
E700
E700
7FC0
3300
0000
1C00
1C00
1C00
ENDCHAR
STARTCHAR uni1EAE
ENCODING 7854
SWIDTH 644 0
DWIDTH 13 0
BBX 13 23 0 0
BITMAP
00C0
01C0
0300
0400
0000
0840
0F80
0780
0000
0700
0700
0780
0B80
0B80
0B80
19C0
11C0
1FC0
30E0
20E0
20E0
60F0
F1F8
ENDCHAR
STARTCHAR uni1EAF
ENCODING 7855
SWIDTH 544 0
DWIDTH 11 0
BBX 10 19 1 0
BITMAP
0300
0700
0C00
1000
0000
2100
3E00
1E00
0000
1E00
6700
E700
4700
3F00
6700
E700
E700
7FC0
3300
ENDCHAR
STARTCHAR uni1EB0
ENCODING 7856
SWIDTH 644 0
DWIDTH 13 0
BBX 13 23 0 0
BITMAP
1800
1C00
0600
0100
0000
0840
0F80
0780
0000
0700
0700
0780
0B80
0B80
0B80
19C0
11C0
1FC0
30E0
20E0
20E0
60F0
F1F8
ENDCHAR
STARTCHAR uni1EB1
ENCODING 7857
SWIDTH 544 0
DWIDTH 11 0
BBX 10 19 1 0
BITMAP
3000
3800
0C00
0200
0000
2100
3E00
1E00
0000
1E00
6700
E700
4700
3F00
6700
E700
E700
7FC0
3300
ENDCHAR
STARTCHAR uni1EB4
ENCODING 7860
SWIDTH 644 0
DWIDTH 13 0
BBX 13 22 0 0
BITMAP
0420
0FC0
1080
0000
0840
0F80
0780
0000
0700
0700
0780
0B80
0B80
0B80
19C0
11C0
1FC0
30E0
20E0
20E0
60F0
F1F8
ENDCHAR
STARTCHAR uni1EB5
ENCODING 7861
SWIDTH 544 0
DWIDTH 11 0
BBX 10 18 1 0
BITMAP
0840
1F80
2100
0000
2100
3E00
1E00
0000
1E00
6700
E700
4700
3F00
6700
E700
E700
7FC0
3300
ENDCHAR
STARTCHAR uni1EB6
ENCODING 7862
SWIDTH 644 0
DWIDTH 13 0
BBX 13 22 0 -4
BITMAP
0840
0F80
0780
0000
0700
0700
0780
0B80
0B80
0B80
19C0
11C0
1FC0
30E0
20E0
20E0
60F0
F1F8
0000
0380
0380
0380
ENDCHAR
STARTCHAR uni1EB7
ENCODING 7863
SWIDTH 544 0
DWIDTH 11 0
BBX 10 18 1 -4
BITMAP
2100
3E00
1E00
0000
1E00
6700
E700
4700
3F00
6700
E700
E700
7FC0
3300
0000
1C00
1C00
1C00
ENDCHAR
STARTCHAR uni1EB8
ENCODING 7864
SWIDTH 629 0
DWIDTH 12 0
BBX 11 18 1 -4
BITMAP
FFC0
70C0
7040
7040
7080
7080
7F80
7080
7080
7000
7060
7040
70C0
FFC0
0000
0E00
0E00
0E00
ENDCHAR
STARTCHAR uni1EB9
ENCODING 7865
SWIDTH 519 0
DWIDTH 10 0
BBX 9 14 1 -4
BITMAP
3E00
7300
6380
E380
FF80
E000
E000
E080
7100
3E00
0000
1C00
1C00
1C00
ENDCHAR
STARTCHAR uni1EBC
ENCODING 7868
SWIDTH 629 0
DWIDTH 12 0
BBX 11 18 1 0
BITMAP
0840
1F80
2100
0000
FFC0
70C0
7040
7040
7080
7080
7F80
7080
7080
7000
7060
7040
70C0
FFC0
ENDCHAR
STARTCHAR uni1EBD
ENCODING 7869
SWIDTH 519 0
DWIDTH 10 0
BBX 9 14 1 0
BITMAP
1080
3F00
4200
0000
3E00
7300
6380
E380
FF80
E000
E000
E080
7100
3E00
ENDCHAR
STARTCHAR uni1EBE
ENCODING 7870
SWIDTH 629 0
DWIDTH 12 0
BBX 11 23 1 0
BITMAP
0300
0700
0C00
1000
0000
0C00
1E00
3180
0000
FFC0
70C0
7040
7040
7080
7080
7F80
7080
7080
7000
7060
7040
70C0
FFC0
ENDCHAR
STARTCHAR uni1EBF
ENCODING 7871
SWIDTH 519 0
DWIDTH 10 0
BBX 9 19 1 0
BITMAP
0300
0700
0C00
1000
0000
0800
1C00
2200
4100
3E00
7300
6380
E380
FF80
E000
E000
E080
7100
3E00
ENDCHAR
STARTCHAR uni1EC0
ENCODING 7872
SWIDTH 629 0
DWIDTH 12 0
BBX 11 23 1 0
BITMAP
3000
3800
0C00
0200
0000
0C00
1E00
3180
0000
FFC0
70C0
7040
7040
7080
7080
7F80
7080
7080
7000
7060
7040
70C0
FFC0
ENDCHAR
STARTCHAR uni1EC1
ENCODING 7873
SWIDTH 519 0
DWIDTH 10 0
BBX 9 19 1 0
BITMAP
6000
7000
1800
0400
0000
0800
1C00
2200
4100
3E00
7300
6380
E380
FF80
E000
E000
E080
7100
3E00
ENDCHAR
STARTCHAR uni1EC4
ENCODING 7876
SWIDTH 629 0
DWIDTH 12 0
BBX 11 22 1 0
BITMAP
0840
1F80
2100
0000
0C00
1E00
3180
0000
FFC0
70C0
7040
7040
7080
7080
7F80
7080
7080
7000
7060
7040
70C0
FFC0
ENDCHAR
STARTCHAR uni1EC5
ENCODING 7877
SWIDTH 519 0
DWIDTH 10 0
BBX 9 18 1 0
BITMAP
1080
3F00
4200
0000
0800
1C00
2200
4100
3E00
7300
6380
E380
FF80
E000
E000
E080
7100
3E00
ENDCHAR
STARTCHAR uni1EC6
ENCODING 7878
SWIDTH 629 0
DWIDTH 12 0
BBX 11 23 1 -4
BITMAP
0800
1C00
3600
4100
0000
FFC0
70C0
7040
7040
7080
7080
7F80
7080
7080
7000
7060
7040
70C0
FFC0
0000
0E00
0E00
0E00
ENDCHAR
STARTCHAR uni1EC7
ENCODING 7879
SWIDTH 519 0
DWIDTH 10 0
BBX 9 19 1 -4
BITMAP
0800
1C00
3600
4100
0000
3E00
7300
6380
E380
FF80
E000
E000
E080
7100
3E00
0000
1C00
1C00
1C00
ENDCHAR
STARTCHAR uni1ECA
ENCODING 7882
SWIDTH 384 0
DWIDTH 7 0
BBX 5 18 1 -4
BITMAP
F8
70
70
70
70
70
70
70
70
70
70
70
70
F8
00
70
70
70
ENDCHAR
STARTCHAR uni1ECB
ENCODING 7883
SWIDTH 316 0
DWIDTH 6 0
BBX 5 18 1 -4
BITMAP
60
70
70
00
30
F0
70
70
70
70
70
70
70
F8
00
70
70
70
ENDCHAR
STARTCHAR uni1ECC
ENCODING 7884
SWIDTH 768 0
DWIDTH 15 0
BBX 13 18 1 -4
BITMAP
0F80
38E0
7070
6030
E038
E038
E038
E038
E038
E038
6030
7070
38E0
0F80
0000
0700
0700
0700
ENDCHAR
STARTCHAR uni1ECD
ENCODING 7885
SWIDTH 585 0
DWIDTH 11 0
BBX 10 14 1 -4
BITMAP
1E00
7380
6180
E1C0
E1C0
E1C0
E1C0
6180
7380
1E00
0000
0E00
0E00
0E00
ENDCHAR
STARTCHAR uni1ED0
ENCODING 7888
SWIDTH 768 0
DWIDTH 15 0
BBX 13 23 1 0
BITMAP
00C0
01C0
0300
0400
0000
0700
0F80
18C0
2020
0F80
38E0
7070
6030
E038
E038
E038
E038
E038
E038
6030
7070
38E0
0F80
ENDCHAR
STARTCHAR uni1ED1
ENCODING 7889
SWIDTH 585 0
DWIDTH 11 0
BBX 10 19 1 0
BITMAP
0300
0700
0C00
1000
0000
0C00
1E00
3300
4080
1E00
7380
6180
E1C0
E1C0
E1C0
E1C0
6180
7380
1E00
ENDCHAR
STARTCHAR uni1ED2
ENCODING 7890
SWIDTH 768 0
DWIDTH 15 0
BBX 13 23 1 0
BITMAP
1800
1C00
0600
0100
0000
0700
0F80
18C0
2020
0F80
38E0
7070
6030
E038
E038
E038
E038
E038
E038
6030
7070
38E0
0F80
ENDCHAR
STARTCHAR uni1ED3
ENCODING 7891
SWIDTH 585 0
DWIDTH 11 0
BBX 10 19 1 0
BITMAP
3000
3800
0C00
0200
0000
0C00
1E00
3300
4080
1E00
7380
6180
E1C0
E1C0
E1C0
E1C0
6180
7380
1E00
ENDCHAR
STARTCHAR uni1ED6
ENCODING 7894
SWIDTH 768 0
DWIDTH 15 0
BBX 13 22 1 0
BITMAP
0420
0FC0
1080
0000
0700
0F80
18C0
2020
0F80
38E0
7070
6030
E038
E038
E038
E038
E038
E038
6030
7070
38E0
0F80
ENDCHAR
STARTCHAR uni1ED7
ENCODING 7895
SWIDTH 585 0
DWIDTH 11 0
BBX 10 18 1 0
BITMAP
0840
1F80
2100
0000
0C00
1E00
3300
4080
1E00
7380
6180
E1C0
E1C0
E1C0
E1C0
6180
7380
1E00
ENDCHAR
STARTCHAR uni1ED8
ENCODING 7896
SWIDTH 768 0
DWIDTH 15 0
BBX 13 23 1 -4
BITMAP
0200
0700
0D80
1040
0000
0F80
38E0
7070
6030
E038
E038
E038
E038
E038
E038
6030
7070
38E0
0F80
0000
0700
0700
0700
ENDCHAR
STARTCHAR uni1ED9
ENCODING 7897
SWIDTH 585 0
DWIDTH 11 0
BBX 10 19 1 -4
BITMAP
0400
0E00
1B00
2080
0000
1E00
7380
6180
E1C0
E1C0
E1C0
E1C0
6180
7380
1E00
0000
0E00
0E00
0E00
ENDCHAR
STARTCHAR uni1EDA
ENCODING 7898
SWIDTH 768 0
DWIDTH 15 0
BBX 15 19 1 0
BITMAP
0060
00E0
0180
0200
0000
0F84
38EE
7076
6034
E03C
E038
E038
E038
E038
E038
6030
7070
38E0
0F80
ENDCHAR
STARTCHAR uni1EDB
ENCODING 7899
SWIDTH 585 0
DWIDTH 11 0
BBX 12 15 1 0
BITMAP
00C0
01C0
0300
0400
0000
1E20
73F0
61B0
E1E0
E1E0
E1C0
E1C0
6180
7380
1E00
ENDCHAR
STARTCHAR uni1EDC
ENCODING 7900
SWIDTH 768 0
DWIDTH 15 0
BBX 15 19 1 0
BITMAP
0600
0700
0180
0040
0000
0F84
38EE
7076
6034
E03C
E038
E038
E038
E038
E038
6030
7070
38E0
0F80
ENDCHAR
STARTCHAR uni1EDD
ENCODING 7901
SWIDTH 585 0
DWIDTH 11 0
BBX 12 15 1 0
BITMAP
1800
1C00
0600
0100
0000
1E20
73F0
61B0
E1E0
E1E0
E1C0
E1C0
6180
7380
1E00
ENDCHAR
STARTCHAR uni1EE0
ENCODING 7904
SWIDTH 768 0
DWIDTH 15 0
BBX 15 18 1 0
BITMAP
0108
03F0
0420
0000
0F84
38EE
7076
6034
E03C
E038
E038
E038
E038
E038
6030
7070
38E0
0F80
ENDCHAR
STARTCHAR uni1EE1
ENCODING 7905
SWIDTH 585 0
DWIDTH 11 0
BBX 12 14 1 0
BITMAP
0420
0FC0
1080
0000
1E20
73F0
61B0
E1E0
E1E0
E1C0
E1C0
6180
7380
1E00
ENDCHAR
STARTCHAR uni1EE2
ENCODING 7906
SWIDTH 768 0
DWIDTH 15 0
BBX 15 18 1 -4
BITMAP
0F84
38EE
7076
6034
E03C
E038
E038
E038
E038
E038
6030
7070
38E0
0F80
0000
0700
0700
0700
ENDCHAR
STARTCHAR uni1EE3
ENCODING 7907
SWIDTH 585 0
DWIDTH 11 0
BBX 12 14 1 -4
BITMAP
1E20
73F0
61B0
E1E0
E1E0
E1C0
E1C0
6180
7380
1E00
0000
0E00
0E00
0E00
ENDCHAR
STARTCHAR uni1EE4
ENCODING 7908
SWIDTH 786 0
DWIDTH 15 0
BBX 13 18 1 -4
BITMAP
F8F8
7070
7070
7070
7070
7070
7070
7070
7070
7070
7070
7070
38E0
0F80
0000
0700
0700
0700
ENDCHAR
STARTCHAR uni1EE5
ENCODING 7909
SWIDTH 629 0
DWIDTH 12 0
BBX 11 14 1 -4
BITMAP
30C0
F3C0
71C0
71C0
71C0
71C0
71C0
71C0
7FC0
19E0
0000
0E00
0E00
0E00
ENDCHAR
STARTCHAR uni1EE8
ENCODING 7912
SWIDTH 786 0
DWIDTH 15 0
BBX 15 19 1 0
BITMAP
0060
00E0
0180
0200
0000
F8FC
707E
7076
7074
7074
7078
7070
7070
7070
7070
7070
7070
38E0
0F80
ENDCHAR
STARTCHAR uni1EE9
ENCODING 7913
SWIDTH 629 0
DWIDTH 12 0
BBX 13 15 1 0
BITMAP
00C0
01C0
0300
0400
0000
30D0
F3F8
71D8
71D0
71D0
71E0
71C0
71C0
7FC0
19E0
ENDCHAR
STARTCHAR uni1EEA
ENCODING 7914
SWIDTH 786 0
DWIDTH 15 0
BBX 15 19 1 0
BITMAP
0600
0700
0180
0040
0000
F8FC
707E
7076
7074
7074
7078
7070
7070
7070
7070
7070
7070
38E0
0F80
ENDCHAR
STARTCHAR uni1EEB
ENCODING 7915
SWIDTH 629 0
DWIDTH 12 0
BBX 13 15 1 0
BITMAP
0C00
0E00
0300
0080
0000
30D0
F3F8
71D8
71D0
71D0
71E0
71C0
71C0
7FC0
19E0
ENDCHAR
STARTCHAR uni1EEE
ENCODING 7918
SWIDTH 786 0
DWIDTH 15 0
BBX 15 18 1 0
BITMAP
0210
07E0
0840
0000
F8FC
707E
7076
7074
7074
7078
7070
7070
7070
7070
7070
7070
38E0
0F80
ENDCHAR
STARTCHAR uni1EEF
ENCODING 7919
SWIDTH 629 0
DWIDTH 12 0
BBX 13 14 1 0
BITMAP
0420
0FC0
1080
0000
30D0
F3F8
71D8
71D0
71D0
71E0
71C0
71C0
7FC0
19E0
ENDCHAR
STARTCHAR uni1EF0
ENCODING 7920
SWIDTH 786 0
DWIDTH 15 0
BBX 15 18 1 -4
BITMAP
F8FC
707E
7076
7074
7074
7078
7070
7070
7070
7070
7070
7070
38E0
0F80
0000
0700
0700
0700
ENDCHAR
STARTCHAR uni1EF1
ENCODING 7921
SWIDTH 629 0
DWIDTH 12 0
BBX 13 14 1 -4
BITMAP
30D0
F3F8
71D8
71D0
71D0
71E0
71C0
71C0
7FC0
19E0
0000
0700
0700
0700
ENDCHAR
STARTCHAR Ygrave
ENCODING 7922
SWIDTH 617 0
DWIDTH 12 0
BBX 13 19 0 0
BITMAP
1800
1C00
0600
0100
0000
FCF8
7830
3820
1C60
1C40
0E80
0E80
0700
0700
0700
0700
0700
0700
1FC0
ENDCHAR
STARTCHAR ygrave
ENCODING 7923
SWIDTH 524 0
DWIDTH 10 0
BBX 11 19 0 -4
BITMAP
3000
3800
0C00
0200
0000
F9E0
70C0
3080
3980
3900
1D00
1F00
1E00
0E00
0C00
0C00
2800
7800
3000
ENDCHAR
STARTCHAR uni1EF4
ENCODING 7924
SWIDTH 617 0
DWIDTH 12 0
BBX 13 18 0 -4
BITMAP
FCF8
7830
3820
1C60
1C40
0E80
0E80
0700
0700
0700
0700
0700
0700
1FC0
0000
0700
0700
0700
ENDCHAR
STARTCHAR uni1EF5
ENCODING 7925
SWIDTH 524 0
DWIDTH 10 0
BBX 11 18 0 -8
BITMAP
F9E0
70C0
3080
3980
3900
1D00
1F00
1E00
0E00
0C00
0C00
2800
7800
3000
0000
1C00
1C00
1C00
ENDCHAR
STARTCHAR uni1EF8
ENCODING 7928
SWIDTH 617 0
DWIDTH 12 0
BBX 13 18 0 0
BITMAP
0420
0FC0
1080
0000
FCF8
7830
3820
1C60
1C40
0E80
0E80
0700
0700
0700
0700
0700
0700
1FC0
ENDCHAR
STARTCHAR uni1EF9
ENCODING 7929
SWIDTH 524 0
DWIDTH 10 0
BBX 11 18 0 -4
BITMAP
0840
1F80
2100
0000
F9E0
70C0
3080
3980
3900
1D00
1F00
1E00
0E00
0C00
0C00
2800
7800
3000
ENDCHAR
STARTCHAR uni2000
ENCODING 8192
SWIDTH 500 0
DWIDTH 10 0
BBX 1 1 0 0
BITMAP
00
ENDCHAR
STARTCHAR uni2001
ENCODING 8193
SWIDTH 1000 0
DWIDTH 19 0
BBX 1 1 0 0
BITMAP
00
ENDCHAR
STARTCHAR uni2002
ENCODING 8194
SWIDTH 500 0
DWIDTH 10 0
BBX 1 1 0 0
BITMAP
00
ENDCHAR
STARTCHAR uni2003
ENCODING 8195
SWIDTH 1000 0
DWIDTH 19 0
BBX 1 1 0 0
BITMAP
00
ENDCHAR
STARTCHAR uni2004
ENCODING 8196
SWIDTH 333 0
DWIDTH 6 0
BBX 1 1 0 0
BITMAP
00
ENDCHAR
STARTCHAR uni2005
ENCODING 8197
SWIDTH 250 0
DWIDTH 5 0
BBX 1 1 0 0
BITMAP
00
ENDCHAR
STARTCHAR uni2006
ENCODING 8198
SWIDTH 167 0
DWIDTH 3 0
BBX 1 1 0 0
BITMAP
00
ENDCHAR
STARTCHAR uni2007
ENCODING 8199
SWIDTH 560 0
DWIDTH 11 0
BBX 1 1 0 0
BITMAP
00
ENDCHAR
STARTCHAR uni2008
ENCODING 8200
SWIDTH 280 0
DWIDTH 5 0
BBX 1 1 0 0
BITMAP
00
ENDCHAR
STARTCHAR uni2009
ENCODING 8201
SWIDTH 200 0
DWIDTH 4 0
BBX 1 1 0 0
BITMAP
00
ENDCHAR
STARTCHAR uni200A
ENCODING 8202
SWIDTH 100 0
DWIDTH 2 0
BBX 1 1 0 0
BITMAP
00
ENDCHAR
STARTCHAR uni200B
ENCODING 8203
SWIDTH 0 0
DWIDTH 0 0
BBX 1 1 0 0
BITMAP
00
ENDCHAR
STARTCHAR uni2010
ENCODING 8208
SWIDTH 392 0
DWIDTH 8 0
BBX 5 2 1 4
BITMAP
F8
F8
ENDCHAR
STARTCHAR uni2011
ENCODING 8209
SWIDTH 392 0
DWIDTH 8 0
BBX 5 2 1 4
BITMAP
F8
F8
ENDCHAR
STARTCHAR figuredash
ENCODING 8210
SWIDTH 500 0
DWIDTH 10 0
BBX 10 2 0 4
BITMAP
FFC0
FFC0
ENDCHAR
STARTCHAR endash
ENCODING 8211
SWIDTH 500 0
DWIDTH 10 0
BBX 10 2 0 4
BITMAP
FFC0
FFC0
ENDCHAR
STARTCHAR emdash
ENCODING 8212
SWIDTH 1000 0
DWIDTH 19 0
BBX 19 2 0 4
BITMAP
FFFFE0
FFFFE0
ENDCHAR
STARTCHAR afii00208
ENCODING 8213
SWIDTH 1000 0
DWIDTH 19 0
BBX 19 2 0 4
BITMAP
FFFFE0
FFFFE0
ENDCHAR
STARTCHAR quoteleft
ENCODING 8216
SWIDTH 252 0
DWIDTH 5 0
BBX 3 6 1 8
BITMAP
20
40
40
C0
E0
40
ENDCHAR
STARTCHAR quoteright
ENCODING 8217
SWIDTH 252 0
DWIDTH 5 0
BBX 3 6 1 8
BITMAP
40
E0
60
40
40
80
ENDCHAR
STARTCHAR quotesinglbase
ENCODING 8218
SWIDTH 252 0
DWIDTH 5 0
BBX 3 6 1 -3
BITMAP
40
E0
60
40
40
80
ENDCHAR
STARTCHAR quotereversed
ENCODING 8219
SWIDTH 252 0
DWIDTH 5 0
BBX 3 6 1 8
BITMAP
40
E0
C0
40
40
20
ENDCHAR
STARTCHAR quotedblleft
ENCODING 8220
SWIDTH 473 0
DWIDTH 9 0
BBX 8 6 1 8
BITMAP
31
62
46
EE
E6
66
ENDCHAR
STARTCHAR quotedblright
ENCODING 8221
SWIDTH 473 0
DWIDTH 9 0
BBX 8 6 1 8
BITMAP
66
67
77
62
46
8C
ENDCHAR
STARTCHAR quotedblbase
ENCODING 8222
SWIDTH 473 0
DWIDTH 9 0
BBX 8 6 1 -3
BITMAP
66
67
77
62
46
8C
ENDCHAR
STARTCHAR uni201F
ENCODING 8223
SWIDTH 473 0
DWIDTH 9 0
BBX 8 6 1 8
BITMAP
66
E6
EE
46
62
31
ENDCHAR
STARTCHAR dagger
ENCODING 8224
SWIDTH 510 0
DWIDTH 10 0
BBX 8 16 1 -2
BITMAP
10
38
38
10
D3
FF
18
18
18
18
18
18
18
18
10
10
ENDCHAR
STARTCHAR daggerdbl
ENCODING 8225
SWIDTH 486 0
DWIDTH 9 0
BBX 9 16 0 -2
BITMAP
1C00
1C00
1C00
0800
FF80
7F80
0C00
0C00
0C00
0C00
7F80
7F00
0800
1C00
1C00
1C00
ENDCHAR
STARTCHAR bullet
ENCODING 8226
SWIDTH 455 0
DWIDTH 9 0
BBX 7 7 1 3
BITMAP
38
7C
FE
FE
FE
7C
38
ENDCHAR
STARTCHAR ellipsis
ENCODING 8230
SWIDTH 1000 0
DWIDTH 19 0
BBX 16 4 1 0
BITMAP
6186
F3CF
F3CF
6186
ENDCHAR
STARTCHAR perthousand
ENCODING 8240
SWIDTH 1289 0
DWIDTH 25 0
BBX 23 14 1 -1
BITMAP
381800
47F000
C62000
C66000
C64000
44C000
38BC3C
012424
036666
026666
066666
042424
083C3C
080000
ENDCHAR
STARTCHAR guilsinglleft
ENCODING 8249
SWIDTH 287 0
DWIDTH 6 0
BBX 4 8 1 1
BITMAP
10
20
60
E0
E0
60
20
10
ENDCHAR
STARTCHAR guilsinglright
ENCODING 8250
SWIDTH 287 0
DWIDTH 6 0
BBX 4 8 1 1
BITMAP
80
40
60
70
70
60
40
80
ENDCHAR
STARTCHAR fraction
ENCODING 8260
SWIDTH 100 0
DWIDTH 2 0
BBX 8 15 -3 -1
BITMAP
01
03
02
06
04
0C
08
18
10
30
20
60
40
C0
40
ENDCHAR
STARTCHAR oneinferior
ENCODING 8321
SWIDTH 402 0
DWIDTH 8 0
BBX 4 8 2 -5
BITMAP
60
E0
60
60
60
60
60
F0
ENDCHAR
STARTCHAR twoinferior
ENCODING 8322
SWIDTH 402 0
DWIDTH 8 0
BBX 6 8 1 -5
BITMAP
38
6C
CC
1C
38
60
7C
FC
ENDCHAR
STARTCHAR threeinferior
ENCODING 8323
SWIDTH 402 0
DWIDTH 8 0
BBX 6 8 1 -5
BITMAP
38
EC
0C
78
0C
CC
CC
78
ENDCHAR
STARTCHAR uni20A5
ENCODING 8357
SWIDTH 948 0
DWIDTH 18 0
BBX 17 14 1 -2
BITMAP
003000
003000
37FE00
F9E700
71E700
71C700
71C700
71C700
71C700
71C700
71C700
FBEF80
030000
030000
ENDCHAR
STARTCHAR uni20A6
ENCODING 8358
SWIDTH 739 0
DWIDTH 14 0
BBX 12 14 1 0
BITMAP
F0F0
7820
7820
7C20
7FE0
7FE0
4F20
47A0
7FE0
7FE0
41E0
40E0
40E0
F060
ENDCHAR
STARTCHAR uni20A9
ENCODING 8361
SWIDTH 933 0
DWIDTH 18 0
BBX 19 14 0 0
BITMAP
F803E0
7060C0
70E080
30F080
3FFC80
3FFD80
39B900
193900
1FFD00
1FFE00
1D1E00
0E1E00
0E1E00
0E0C00
ENDCHAR
STARTCHAR Euro
ENCODING 8364
SWIDTH 689 0
DWIDTH 13 0
BBX 14 14 -1 0
BITMAP
03F8
0E1C
1C0C
1C04
FF80
FF80
3800
3800
FF80
FF84
1C04
1C0C
0E1C
03F0
ENDCHAR
STARTCHAR uni20AD
ENCODING 8365
SWIDTH 707 0
DWIDTH 14 0
BBX 13 14 1 0
BITMAP
FCF8
7060
70C0
7180
7300
7600
FFF8
7F00
7780
77C0
73C0
71E0
70F0
F838
ENDCHAR
STARTCHAR uni2103
ENCODING 8451
SWIDTH 1065 0
DWIDTH 21 0
BBX 20 14 1 0
BITMAP
000FE0
783870
CC7030
847010
84E000
CCE000
78E000
00E000
00E000
00E010
007010
007030
003870
000FC0
ENDCHAR
STARTCHAR uni2109
ENCODING 8457
SWIDTH 969 0
DWIDTH 20 0
BBX 18 14 1 0
BITMAP
00FFC0
7870C0
CC7040
847040
847000
CC7080
787080
007F80
007080
007080
007000
007000
007000
00FC00
ENDCHAR
STARTCHAR trademark
ENCODING 8482
SWIDTH 1090 0
DWIDTH 21 0
BBX 20 9 0 5
BITMAP
FFF870
CCB8E0
8CACE0
0C2D60
0C2D60
0C2760
0C2660
0C2660
3E76F0
ENDCHAR
STARTCHAR uni212A
ENCODING 8490
SWIDTH 707 0
DWIDTH 14 0
BBX 13 14 1 0
BITMAP
FCF8
7060
70C0
7180
7300
7600
7F00
7F00
7780
77C0
73C0
71E0
70F0
F838
ENDCHAR
STARTCHAR uni212B
ENCODING 8491
SWIDTH 644 0
DWIDTH 13 0
BBX 14 17 -1 0
BITMAP
0300
0480
0480
0780
0300
0780
0780
07C0
05C0
09C0
09E0
1FE0
10E0
3070
2070
6078
F8FC
ENDCHAR
STARTCHAR uni2132
ENCODING 8498
SWIDTH 593 0
DWIDTH 12 0
BBX 10 14 1 0
BITMAP
0FC0
0380
0380
0380
4380
4380
7F80
4380
4380
0380
8380
8380
C380
FFC0
ENDCHAR
STARTCHAR universal
ENCODING 8704
SWIDTH 644 0
DWIDTH 13 0
BBX 13 14 0 0
BITMAP
F1F8
60F0
20E0
20E0
30E0
1FC0
11C0
19C0
0B80
0B80
0B80
0780
0700
0700
ENDCHAR
STARTCHAR existential
ENCODING 8707
SWIDTH 629 0
DWIDTH 12 0
BBX 11 14 1 0
BITMAP
7FE0
61C0
41C0
41C0
21C0
21C0
3FC0
21C0
21C0
01C0
C1C0
41C0
61C0
7FE0
ENDCHAR
STARTCHAR uni2204
ENCODING 8708
SWIDTH 629 0
DWIDTH 12 0
BBX 11 14 1 0
BITMAP
7FE0
61C0
43C0
43C0
23C0
27C0
3FC0
27C0
27C0
0DC0
CDC0
4DC0
79C0
7FE0
ENDCHAR
STARTCHAR minus
ENCODING 8722
SWIDTH 600 0
DWIDTH 12 0
BBX 9 2 1 4
BITMAP
FF80
FF80
ENDCHAR
STARTCHAR fraction
ENCODING 8725
SWIDTH 100 0
DWIDTH 2 0
BBX 8 15 -3 -1
BITMAP
01
03
02
06
04
0C
08
18
10
30
20
60
40
C0
40
ENDCHAR
STARTCHAR periodcentered
ENCODING 8729
SWIDTH 280 0
DWIDTH 5 0
BBX 4 4 1 3
BITMAP
60
F0
F0
60
ENDCHAR
STARTCHAR uni2236
ENCODING 8758
SWIDTH 280 0
DWIDTH 5 0
BBX 4 10 1 0
BITMAP
60
F0
F0
60
00
00
60
F0
F0
60
ENDCHAR
STARTCHAR uni2259
ENCODING 8793
SWIDTH 600 0
DWIDTH 12 0
BBX 9 11 1 2
BITMAP
0800
1C00
3600
4100
0000
FF80
FF80
0000
0000
FF80
FF80
ENDCHAR
STARTCHAR uni225A
ENCODING 8794
SWIDTH 600 0
DWIDTH 12 0
BBX 9 11 1 2
BITMAP
4100
3600
1C00
0800
0000
FF80
FF80
0000
0000
FF80
FF80
ENDCHAR
STARTCHAR notequal
ENCODING 8800
SWIDTH 600 0
DWIDTH 12 0
BBX 9 14 1 -2
BITMAP
0300
0300
0600
0600
FF80
FF80
0C00
0C00
FF80
FF80
1800
1800
3000
3000
ENDCHAR
STARTCHAR equivalence
ENCODING 8801
SWIDTH 600 0
DWIDTH 12 0
BBX 9 5 0 2
BITMAP
FF80
0000
FF80
0000
FF80
ENDCHAR
STARTCHAR uni2262
ENCODING 8802
SWIDTH 600 0
DWIDTH 12 0
BBX 9 14 0 -2
BITMAP
0300
0300
0600
0600
0600
FF80
0C00
FF80
0C00
FF80
1800
1800
3000
3000
ENDCHAR
STARTCHAR lessequal
ENCODING 8804
SWIDTH 600 0
DWIDTH 12 0
BBX 9 12 1 -2
BITMAP
0080
0380
0F80
3C00
F000
C000
7800
1E00
0780
0080
0000
FF80
ENDCHAR
STARTCHAR greaterequal
ENCODING 8805
SWIDTH 600 0
DWIDTH 12 0
BBX 9 12 1 -2
BITMAP
8000
E000
F800
1E00
0780
0180
0F00
3C00
F000
8000
0000
FF80
ENDCHAR
STARTCHAR uni226E
ENCODING 8814
SWIDTH 600 0
DWIDTH 12 0
BBX 9 14 1 -2
BITMAP
0300
0300
0680
0780
0F80
3C00
FC00
CC00
7C00
1E00
1F80
1880
3000
3000
ENDCHAR
STARTCHAR uni226F
ENCODING 8815
SWIDTH 600 0
DWIDTH 12 0
BBX 9 14 1 -2
BITMAP
0300
0300
8600
E600
FE00
1E00
0F80
0D80
0F00
3C00
F800
9800
3000
3000
ENDCHAR
STARTCHAR uni2270
ENCODING 8816
SWIDTH 600 0
DWIDTH 12 0
BBX 9 14 1 -3
BITMAP
0300
0380
0780
0F80
3E00
FC00
CC00
7C00
1E00
1F80
1880
1800
FF80
3000
ENDCHAR
STARTCHAR uni2271
ENCODING 8817
SWIDTH 600 0
DWIDTH 12 0
BBX 9 14 1 -3
BITMAP
0300
8300
E600
FE00
1E00
0F80
0D80
0F00
3C00
F800
9800
1800
FF80
3000
ENDCHAR
STARTCHAR fi
ENCODING -1
SWIDTH 639 0
DWIDTH 12 0
BBX 11 14 1 0
BITMAP
1F00
31C0
7180
7000
FFC0
71C0
71C0
71C0
71C0
71C0
71C0
71C0
71C0
FBE0
ENDCHAR
STARTCHAR fl
ENCODING -1
SWIDTH 639 0
DWIDTH 12 0
BBX 11 14 1 0
BITMAP
1E40
31C0
71C0
71C0
FDC0
71C0
71C0
71C0
71C0
71C0
71C0
71C0
71C0
FBE0
ENDCHAR
ENDFONT
